<svg width="46" height="46" viewBox="0 0 46 46" fill="none" xmlns="http://www.w3.org/2000/svg">
<path d="M46 23C46 35.7074 35.7074 46 23 46C10.2926 46 0 35.7074 0 23C0 10.2926 10.2926 0 23 0C35.7074 0 46 10.2926 46 23ZM9.3821 17.2995C9.0654 17.2995 8.82788 17.6162 8.94664 17.9329C11.8761 26.9587 17.1411 30.2048 19.0413 31.1153C19.4768 31.3133 19.9518 31.3924 20.4268 31.3924H23.7521C24.2272 31.3924 24.6231 31.0757 24.7022 30.6403C24.9002 29.1756 24.8606 28.5422 25.296 28.0275C25.4544 27.8296 25.7711 27.9088 25.969 28.1067L29.3735 30.957C29.6506 31.2341 30.0465 31.3924 30.4423 31.3924H35.3511C35.7866 31.3924 36.0241 30.9174 35.747 30.5611L31.8675 25.969C31.4716 25.494 31.4716 24.821 31.8675 24.346C33.0155 22.9604 35.1928 20.1497 35.6282 17.9725C35.6678 17.6162 35.3907 17.2995 35.0344 17.2995H30.7194C30.3236 17.2995 29.9673 17.5766 29.809 17.9329C28.6609 21.0207 27.5129 23.9501 25.5336 24.3855C25.296 24.4251 25.0585 24.2272 25.0585 23.9501L24.6231 17.9329C24.6231 17.537 24.4251 17.1807 24.0293 17.0224C22.327 16.2306 20.5852 16.3494 18.8038 17.1015C18.5663 17.1807 18.5267 17.4974 18.685 17.6558C20.4268 19.7539 19.5163 22.6833 19.0413 23.8709C18.9225 24.1084 18.6059 24.148 18.4871 23.9105C16.9036 22.0499 15.5577 19.9122 14.4888 17.5766C14.4096 17.4182 14.2513 17.2995 14.0534 17.2995C13.1824 17.2995 10.6093 17.2995 9.3821 17.2995Z" fill="#798594"/>
</svg>
