<svg width="46" height="46" viewBox="0 0 46 46" fill="none" xmlns="http://www.w3.org/2000/svg">
<path d="M46 23C46 35.7074 35.7074 46 23 46C10.2926 46 0 35.7074 0 23C0 10.2926 10.2926 0 23 0C35.7074 0 46 10.2926 46 23ZM30.1256 14.2909C30.9966 14.2909 31.7091 15.0034 31.7091 15.8744C31.7091 16.7453 30.9966 17.4578 30.1256 17.4578C29.2547 17.4578 28.5422 16.7453 28.5422 15.8744C28.5422 15.0034 29.2547 14.2909 30.1256 14.2909ZM23.1188 27.2358C20.7831 27.2358 18.8434 25.296 18.8434 22.9604C18.8434 20.6248 20.7831 18.7246 23.1188 18.7246C25.4544 18.7246 27.3546 20.6248 27.3546 22.9604C27.3546 25.296 25.4544 27.2358 23.1188 27.2358ZM23.1188 16.3098C26.7608 16.3098 29.7694 19.3184 29.7694 22.9604C29.7694 26.642 26.7608 29.611 23.1188 29.611C19.4372 29.611 16.4682 26.642 16.4682 22.9604C16.4682 19.3184 19.4372 16.3098 23.1188 16.3098ZM17.6162 12.0344C14.568 12.0344 12.074 14.5284 12.074 17.5766V28.3442C12.074 31.432 14.568 33.926 17.6162 33.926H28.3838C31.432 33.926 33.9656 31.432 33.9656 28.3442V17.5766C33.9656 14.5284 31.432 12.0344 28.3838 12.0344H17.6162ZM28.3838 36.4596C32.8571 36.4596 36.4991 32.8176 36.4991 28.3442V17.5766C36.4991 13.1033 32.8571 9.50086 28.3838 9.50086H17.6162C13.1429 9.50086 9.50086 13.1033 9.50086 17.5766V28.3442C9.50086 32.8176 13.1429 36.4596 17.6162 36.4596H28.3838Z" fill="#798594"/>
</svg>
