<svg width="87" height="89" viewBox="0 0 87 89" fill="none" xmlns="http://www.w3.org/2000/svg">
<g filter="url(#filter0_d_12_75)">
<path d="M39.3576 28.7428C36.8277 28.7362 34.4124 28.6217 32.1842 27.0628C29.8415 25.4665 28.7185 22.1903 30.775 19.9731C32.3295 18.3086 34.7294 18.9647 36.7022 19.1584C35.925 19.8674 35.3503 20.583 34.9694 21.2722C34.0513 23.0248 34.2186 25.2992 35.7841 26.6291C37.1183 27.7828 38.1047 27.7674 39.3576 27.7256V28.7428Z" fill="#BB9A57"/>
<path d="M40.2383 14.4796L47.9335 11.7913L47.8829 12.8657C47.3808 13.2995 47.0153 13.8059 46.8062 14.3586C46.5089 15.0895 46.4781 16.2058 46.4781 16.9831C44.3336 17.5996 42.2375 18.3922 40.2383 19.3786V14.4796V14.4796ZM40.2383 56.2101C37.2901 59.5018 34.3287 61.9435 31.3342 63.5574C14.1845 72.7763 4.36676 56.5029 4.36676 40.8879C4.36676 21.9085 18.7444 2.30157 39.7649 2.30157C45.3772 2.30157 55.937 4.77418 55.937 13.4932C55.937 16.4414 55.1598 19.0395 53.6009 21.3074C52.1851 23.3639 50.1089 25.1891 47.361 26.8074V25.711C48.8847 24.6409 50.067 23.322 50.9125 21.7565C51.8989 19.8894 52.4053 17.6877 52.4053 15.1578C52.4053 7.12349 47.579 3.34082 39.5557 3.34082C20.9396 3.34082 11.0228 22.6857 11.0228 38.4835C11.0228 47.9578 14.5346 63.0554 26.5498 63.0554C32.1159 63.0554 36.7792 58.8985 40.2383 54.9441C40.2383 44.2059 40.2383 33.4744 40.2383 22.7385C42.112 21.4219 44.3027 20.4311 46.4781 19.7221C46.4781 32.5343 46.4781 45.3443 46.4781 58.1521C46.4781 62.7538 47.0154 65.3189 52.1433 63.9736C52.1235 64.3765 52.0971 64.7772 52.0662 65.1802C50.4964 65.7064 48.9089 65.9662 47.2928 65.9662C45.0227 65.9662 43.3075 65.1537 42.112 63.5046C40.9318 61.8621 40.3065 59.4291 40.2383 56.2101Z" fill="#BB9A57"/>
<path d="M60.8316 57.9737C62.287 56.3312 63.6631 54.4222 64.9687 52.2403C65.2968 52.3085 65.6161 52.4032 65.9221 52.5177C64.3324 55.1356 62.626 57.3946 60.8162 59.2837C60.825 58.9337 60.8316 58.5792 60.8316 58.2247C60.8316 58.1454 60.8316 58.0618 60.8316 57.9737Z" fill="#BB9A57"/>
<path d="M35.282 23.5048C39.9256 19.9092 45.648 17.6722 51.4409 16.8157C51.4145 17.113 51.3771 17.4058 51.3242 17.6987C45.2209 18.5419 40.0929 20.9221 35.8765 25.4511C35.4075 24.8236 35.3459 24.2556 35.282 23.5048V23.5048ZM38.2919 55.7719C37.6247 55.8666 36.9422 55.9194 36.242 55.9194C32.3977 55.9194 29.3614 54.7767 27.164 52.4869C22.3642 47.5394 23.3616 38.9635 26.4859 33.3908C27.6352 31.3365 29.1633 29.3109 31.0678 27.3293C31.7305 27.8775 32.5232 28.3509 33.3114 28.6856C29.3394 34.6128 27.7695 43.5806 32.3603 49.6267C34.1129 51.9738 36.3895 53.3213 39.3575 53.3213V54.6138C39.003 55.0057 38.653 55.391 38.2919 55.7719V55.7719ZM56.5579 16.4084C62.4168 16.3358 68.1305 17.593 72.8401 21.2237C79.4873 26.3737 81.4799 35.3944 75.7354 41.9843C73.5028 44.567 70.1539 46.8195 65.6821 48.746H66.7059C75.7993 48.746 82.1999 53.8938 82.1999 63.302C82.1999 72.3051 75.7046 82.8451 65.8076 82.8451C61.3049 82.8451 56.0625 78.4041 58.9424 74.3726C60.2415 72.6134 61.8532 73.9807 63.346 74.7007C60.9042 77.814 61.5713 81.9115 66.1004 81.9115C73.2364 81.9115 76.1692 73.3334 76.1692 67.4436C76.1692 58.13 72.1421 50.0957 61.8223 50.0957V49.1423C74.8393 46.3923 77.193 30.3017 68.4057 22.1419C65.3188 19.2641 61.2961 17.7141 56.3179 17.4785C56.4126 17.124 56.4896 16.7695 56.5579 16.4084V16.4084ZM63.7115 24.1873C59.7152 27.5891 58.7861 33.8025 58.7861 38.7587C58.7861 41.4823 58.9798 44.9832 59.3762 49.2987C60.2789 59.5083 60.8932 67.6461 52.9469 75.7949C48.2682 80.5596 42.5347 82.9485 35.7422 82.9485C30.1078 82.9485 23.4562 80.2139 23.4562 73.6988C23.4562 71.5543 24.7223 68.7052 27.2169 68.7052C28.0668 68.7052 31.1449 70.198 31.9793 70.5415C30.4887 71.6842 29.4495 72.708 28.844 73.6108C25.385 78.7497 30.9621 81.9115 35.8457 81.9115C41.5791 81.9115 45.8946 80.2315 48.7746 76.887C54.6952 69.9999 52.7752 58.1983 52.7752 49.5739C52.7752 39.1352 54.6952 30.3237 63.2403 23.5818L63.7115 24.1873V24.1873Z" fill="#B3BFCD"/>
<path d="M60.7258 79.3793C59.9178 77.8205 59.6624 75.7179 60.9504 74.9825C60.5651 74.857 60.226 74.857 60.0125 75.1542C59.6162 75.7069 59.4423 76.2595 59.4423 76.7879C59.4423 77.7897 60.0389 78.6968 60.7258 79.3793V79.3793Z" fill="#F3F4F4"/>
<path d="M30.2488 31.5391C30.6033 30.731 30.9996 29.9472 31.4333 29.2008L31.2396 29.0819C30.6341 29.7556 30.0704 30.4382 29.5486 31.1273C28.8176 32.0961 28.1813 33.0671 27.6397 34.0337V34.0381C26.0588 36.8542 25.0614 40.4871 25.1825 43.9549C25.286 46.8151 26.1579 49.5475 28.1086 51.5621L28.1153 51.5665C30.055 53.5856 32.7676 54.594 36.2421 54.594C36.4094 54.594 36.5723 54.5874 36.7287 54.583C33.4986 54.4883 30.9578 53.4821 29.1171 51.5665L29.1105 51.5621C27.1597 49.5475 26.2878 46.8151 26.1843 43.9549C26.0632 40.4871 27.0606 36.8542 28.6415 34.0381V34.0337C29.1061 33.2036 29.6367 32.3736 30.2488 31.5391V31.5391Z" fill="url(#paint0_linear_12_75)"/>
<path d="M67.2894 19.5547C67.9984 20.0413 68.6721 20.583 69.3085 21.1731C72.0849 23.7492 73.8265 27.0584 74.5619 30.5219C75.1255 33.208 75.0837 35.9889 74.4364 38.598C74.0247 40.2516 73.3729 41.8368 72.4812 43.2878C76.211 40.2626 76.4972 34.9518 75.5637 30.5219C74.4892 25.4357 72.021 21.4813 67.2894 19.5547V19.5547Z" fill="#F3F4F4"/>
<path d="M68.7029 50.1595C70.5723 51.0248 72.1201 52.2556 73.3729 53.7682C76.2485 57.2449 77.4947 62.1637 77.4947 67.4436C77.4947 70.6098 76.691 74.518 74.912 77.6335C77.8646 74.769 78.4965 71.5169 78.4965 67.4436C78.4965 62.1637 77.2503 57.2449 74.3748 53.7682C72.893 51.9848 71.0611 50.384 68.7029 50.1595V50.1595Z" fill="#F3F4F4"/>
<path d="M58.4096 30.7773C57.4232 32.3207 56.6526 33.939 56.0515 35.6344C54.5609 39.8178 54.1008 44.4877 54.1008 49.5739C54.1008 51.2912 54.169 52.9822 54.2373 54.7238C54.5125 61.7365 54.8207 69.6145 51.3992 75.4668C56.6724 70.4379 55.4989 61.3754 55.2391 54.7238C55.1708 52.9822 55.1026 51.2912 55.1026 49.5739C55.1026 44.4877 55.5627 39.8178 57.0533 35.6344C57.7116 33.7871 57.9142 32.6179 58.4096 30.7773V30.7773Z" fill="#F3F4F4"/>
<path d="M24.7795 73.6988C24.7795 75.7597 25.5788 77.3714 26.825 78.5824C26.1777 77.4132 25.7307 75.414 25.7814 73.6988C25.8078 72.7653 26.0786 71.6798 26.6643 70.9026C26.9241 70.5525 27.2544 70.2707 27.6397 70.1364C27.446 70.0681 27.3006 70.0307 27.217 70.0307C26.5696 70.0307 26.0478 70.3852 25.6625 70.9026C25.0768 71.6798 24.7795 72.7653 24.7795 73.6988V73.6988Z" fill="#F3F4F4"/>
<path d="M21.8687 64.4689C22.2607 64.4689 22.657 64.4535 23.0643 64.4182C21.2588 64.35 19.22 64.361 16.0825 62.1218C14.0128 60.6356 12.2844 58.5065 10.9281 55.9854C8.60302 51.6567 7.38103 46.2051 7.38103 40.8107C7.38103 31.3519 11.4455 22.2101 16.6109 14.3013C10.0518 21.7411 6.13483 30.9445 6.13483 40.8878C6.13483 46.2822 7.35461 51.7404 9.68189 56.0691C11.0382 58.5901 12.7644 60.7126 14.8363 62.2011C16.8443 63.6344 19.198 64.4689 21.8687 64.4689V64.4689Z" fill="url(#paint1_linear_12_75)"/>
<path d="M45.5666 14.0414L41.6166 15.4176V17.2847C41.9491 17.1393 42.2838 16.9984 42.6184 16.8619V15.4176C43.4067 15.1423 44.8048 14.4796 45.5666 14.0414Z" fill="#FFFABD"/>
<path d="M41.6166 54.944V55.4328L41.5946 55.4592L41.61 56.1836C41.643 57.6918 41.8038 59.0063 42.09 60.1226C42.3564 61.1662 42.7439 62.0381 43.2393 62.7317C43.7039 63.3746 44.2609 63.848 44.9126 64.1562C45.4675 64.4183 46.1038 64.5746 46.8237 64.6208C46.7489 64.5592 46.6828 64.4909 46.6146 64.4183C46.368 64.35 46.1346 64.2597 45.9144 64.1562C45.2627 63.848 44.7057 63.3746 44.2411 62.7317C43.7457 62.0381 43.3582 61.1662 43.0918 60.1226C42.8056 59.0063 42.6448 57.6918 42.6118 56.1858L42.5964 55.4592L42.6184 55.4328V54.944V23.432C43.2855 23.0445 44.1993 22.3245 45.2055 21.7455C43.9747 22.21 42.7527 22.7693 41.6166 23.432V54.944Z" fill="#FFFABD"/>
<path d="M33.9896 26.5872C32.9768 25.68 32.0058 24.381 31.7813 23.3528C31.3277 21.2457 32.8469 20.0655 34.4278 19.874C34.0138 19.7485 30.3942 20.0986 31.0943 23.3528C31.266 24.152 31.7306 24.9292 32.3823 25.5347C32.8359 25.9575 33.4414 26.3318 33.9896 26.5872V26.5872Z" fill="#FFFABD"/>
</g>
<defs>
<filter id="filter0_d_12_75" x="0" y="0" width="87" height="89" filterUnits="userSpaceOnUse" color-interpolation-filters="sRGB">
<feFlood flood-opacity="0" result="BackgroundImageFix"/>
<feColorMatrix in="SourceAlpha" type="matrix" values="0 0 0 0 0 0 0 0 0 0 0 0 0 0 0 0 0 0 127 0" result="hardAlpha"/>
<feOffset dy="2"/>
<feGaussianBlur stdDeviation="2"/>
<feComposite in2="hardAlpha" operator="out"/>
<feColorMatrix type="matrix" values="0 0 0 0 0 0 0 0 0 0 0 0 0 0 0 0 0 0 0.25 0"/>
<feBlend mode="normal" in2="BackgroundImageFix" result="effect1_dropShadow_12_75"/>
<feBlend mode="normal" in="SourceGraphic" in2="effect1_dropShadow_12_75" result="shape"/>
</filter>
<linearGradient id="paint0_linear_12_75" x1="57.7822" y1="75.5198" x2="61.3997" y2="15.5233" gradientUnits="userSpaceOnUse">
<stop stop-color="#EBEBEB"/>
<stop offset="1" stop-color="#FEFEFE"/>
</linearGradient>
<linearGradient id="paint1_linear_12_75" x1="15.7236" y1="61.9545" x2="23.0269" y2="-1.69468" gradientUnits="userSpaceOnUse">
<stop stop-color="#FFFABD"/>
<stop offset="1" stop-color="#FEFEFE"/>
</linearGradient>
</defs>
</svg>
