<svg width="315" height="315" viewBox="0 0 315 315" fill="none" xmlns="http://www.w3.org/2000/svg">
<path fill-rule="evenodd" clip-rule="evenodd" d="M263.497 159.281C263.497 159.121 263.657 159.121 263.657 159.121C266.378 160.719 269.098 161.996 271.498 164.233C274.379 166.948 276.139 170.462 277.099 174.136C270.218 171.9 265.257 165.83 263.497 159.281ZM71.1498 131.328C69.0695 131.168 67.3092 132.286 65.709 133.724C64.9089 134.523 66.1891 135.641 66.9892 134.842C68.2694 133.884 69.7096 132.925 71.4698 133.245C72.75 133.405 73.7101 134.363 74.8303 134.842C75.4704 135.002 75.7904 134.363 75.6304 134.043C74.8303 132.446 72.91 131.328 71.1498 131.328V131.328ZM231.973 118.39C231.973 116.473 231.013 114.716 230.853 112.799C230.853 112.001 229.412 112.001 229.412 112.799C229.572 114.716 230.052 117.112 231.333 118.709C231.493 118.869 231.973 118.709 231.973 118.39V118.39ZM135.479 66.4774C137.239 73.6653 139.8 81.0129 143.48 87.4021C143.8 88.041 144.6 87.7216 144.44 87.0826C142.36 80.0545 139.159 73.1861 136.439 66.3176C136.119 65.8384 135.319 65.9982 135.479 66.4774ZM223.171 244.258C222.371 247.133 221.571 250.487 221.891 253.522C221.891 253.682 222.371 254.001 222.531 253.682C223.972 250.807 223.491 247.612 224.132 244.577C224.292 243.938 223.331 243.779 223.171 244.258V244.258ZM223.972 237.23C221.251 240.903 219.651 244.897 219.651 249.369C219.651 249.689 220.291 249.689 220.451 249.369C221.731 245.536 223.011 241.542 224.772 237.709C225.092 237.23 224.292 236.75 223.972 237.23ZM237.253 258.474C238.854 249.05 240.614 239.466 241.094 229.882C241.094 228.924 239.654 228.924 239.494 229.882C238.374 239.306 236.133 248.73 236.133 258.314C236.133 258.793 237.093 258.953 237.253 258.474V258.474ZM234.213 155.767C233.733 150.017 231.013 144.745 230.052 138.995C229.892 138.356 228.772 138.516 228.772 139.155C229.572 144.905 231.013 150.655 233.413 156.086C233.573 156.406 234.373 156.246 234.213 155.767ZM169.884 133.245C169.404 132.446 168.124 133.245 168.604 134.043C177.405 147.78 190.367 160.719 205.249 168.705C205.729 169.025 206.369 168.226 205.889 167.906C192.607 157.045 179.485 147.621 169.884 133.245ZM197.888 155.607C183.966 136.919 168.764 119.827 157.402 99.3819C157.082 98.9027 156.282 99.3819 156.602 99.8611C166.363 120.307 180.125 140.433 197.248 156.086C197.568 156.406 198.208 155.927 197.888 155.607V155.607ZM224.132 143.787C220.771 127.974 214.69 112.799 211.97 96.6665C211.81 96.0276 210.53 96.1873 210.69 96.8262C212.93 113.119 218.691 128.453 223.011 144.107C223.331 144.905 224.292 144.586 224.132 143.787ZM264.457 182.442C265.897 182.282 267.178 181.963 268.458 181.643C267.818 182.282 267.178 182.921 266.378 183.4C265.417 184.199 263.657 185.157 262.697 186.275V186.116C263.017 184.838 263.337 183.56 263.497 182.122C263.817 182.282 264.137 182.442 264.457 182.442V182.442ZM275.339 211.353C269.898 207.2 266.698 200.491 264.777 193.783C265.097 194.262 265.417 194.741 265.897 195.061C267.658 197.297 268.938 200.012 271.018 201.929C271.498 202.249 272.138 202.089 272.138 201.45C271.978 199.054 270.218 196.818 268.618 194.901C267.338 193.463 266.057 192.026 264.777 190.588C271.498 196.019 279.019 203.207 275.339 211.353V211.353ZM261.897 176.532C261.737 178.768 261.417 180.845 260.937 182.921C260.777 183.879 260.617 184.678 260.297 185.637C259.817 185.796 259.657 186.435 259.977 186.755C259.977 186.914 259.977 187.074 259.977 187.234C258.376 184.359 255.816 181.803 251.655 178.608C243.974 172.219 252.136 164.073 254.376 157.843C254.696 157.045 254.696 156.086 254.696 155.288C255.816 156.406 257.096 157.684 258.056 159.121C258.216 159.281 258.216 159.441 258.376 159.6C258.056 160.08 258.536 160.719 259.177 160.719C262.377 165.83 263.017 170.622 262.537 175.893C262.217 175.893 261.897 176.212 261.897 176.532V176.532ZM256.136 206.082C263.017 209.916 261.737 215.826 258.856 221.256C258.056 220.138 257.256 219.18 256.296 218.062C251.976 213.749 247.335 211.193 248.935 204.165C249.415 202.089 250.215 200.332 251.175 198.575C251.175 200.012 251.495 201.61 252.296 202.728C253.416 204.325 254.536 205.124 256.136 206.082V206.082ZM257.416 231.958C257.256 232.757 257.096 233.556 256.936 234.354C256.936 234.195 256.776 234.035 256.776 234.035C255.816 233.396 254.856 232.917 253.896 232.438C253.416 232.118 252.936 231.799 252.616 231.479C252.776 231.32 252.776 231.16 252.776 231.16C253.416 230.201 252.296 229.403 251.495 229.562C250.855 227.326 251.495 224.451 251.976 222.215C252.296 220.618 252.296 219.18 252.136 217.742C254.216 219.819 256.136 221.736 256.936 224.291C256.776 224.611 256.456 225.09 256.296 225.409C255.816 226.048 256.776 226.687 257.416 226.368C257.576 227.646 257.416 229.243 256.936 231.16C256.936 231.479 257.096 231.799 257.416 231.958V231.958ZM247.015 200.811C246.855 200.651 246.695 200.491 246.375 200.332C245.735 200.172 245.095 200.012 244.454 199.853C245.415 199.533 246.055 199.214 246.695 198.575C246.855 198.575 246.855 198.415 247.015 198.255C247.655 198.255 248.295 197.297 247.495 196.658L247.335 196.498C247.495 196.338 247.495 196.338 247.495 196.179C247.975 196.977 248.295 197.936 248.615 198.734C248.295 199.533 247.815 200.332 247.495 201.13C247.335 200.971 247.175 200.811 247.015 200.811V200.811ZM243.174 197.776C242.694 197.457 242.214 197.297 241.734 197.137C241.734 197.137 241.734 197.137 241.574 196.977C240.294 196.338 239.494 195.54 237.894 196.179C237.733 196.338 237.733 196.338 237.573 196.338C237.413 196.338 237.093 196.338 236.773 196.338C236.613 196.338 236.453 196.338 236.293 196.179C235.973 196.179 235.653 196.179 235.493 196.338C169.244 193.783 139.64 120.626 120.917 70.3109C120.917 70.3109 120.757 70.3109 120.757 70.1512C123.797 69.8317 126.518 68.7136 129.078 66.9566C129.398 68.7136 130.198 70.1512 131.478 71.429C131.638 71.7485 131.958 71.429 131.798 71.1096C130.998 69.5123 130.198 68.0747 130.038 66.1579C130.518 65.8384 130.998 65.519 131.318 65.1995C132.599 70.1512 134.359 75.2626 136.919 79.8947C137.239 80.5337 138.199 80.0545 138.039 79.4156C136.759 74.1444 134.519 69.0331 132.759 63.9217C132.759 63.7619 132.919 63.6022 132.919 63.6022C133.079 63.6022 133.079 63.6022 133.079 63.6022C137.559 67.1163 142.04 66.7968 147.161 64.4009C148.441 63.7619 149.561 63.123 150.841 62.4841C151.961 62.9633 153.081 63.2828 154.202 63.6022C154.042 63.7619 153.882 63.9217 153.722 64.4009C152.441 87.5618 168.924 113.758 182.366 131.967C183.006 132.606 184.286 131.967 183.646 131.168C170.044 111.202 157.402 88.5202 155.802 64.4009C155.802 64.0814 155.642 63.9217 155.642 63.7619C158.522 64.2411 161.403 63.6022 164.443 62.3244C164.763 62.1646 165.243 62.0049 165.563 61.8452C165.563 66.6371 166.363 72.2277 169.564 75.7418C170.044 76.2209 170.684 75.7418 170.524 75.2626C169.724 70.9498 168.124 67.1163 167.483 62.8036C168.284 63.2828 169.084 63.6022 170.044 63.7619C169.884 64.0814 169.724 64.2411 169.884 64.5606C170.524 67.5955 171.004 70.7901 172.284 73.5055C172.444 74.1444 173.724 74.1444 173.564 73.3458C173.404 70.3109 172.604 67.1163 171.644 64.0814C173.404 64.4009 175.165 64.2411 176.925 63.7619C176.925 64.0814 177.085 64.4009 177.405 64.5606C182.366 67.276 187.326 67.9149 192.767 67.5955C195.007 71.429 198.848 73.1861 203.169 73.6652C204.129 79.5753 209.089 81.9713 214.85 82.9296C215.01 88.041 216.13 92.9927 217.891 97.7846C218.211 98.5832 219.331 98.2638 219.171 97.4651C218.531 92.6732 217.251 88.041 216.771 83.0894C216.931 83.2491 217.091 83.2491 217.091 83.2491C216.931 85.3256 217.571 86.7632 218.851 88.041C218.691 88.2007 218.531 88.3605 218.531 88.5202C219.171 93.7913 219.971 99.3819 222.531 104.014C222.691 104.493 223.491 104.334 223.491 103.854C223.011 98.9027 221.251 94.1108 220.131 89.1591C222.211 90.5967 224.932 91.3954 227.652 92.0343C228.132 92.0343 228.612 92.194 229.252 92.3538C224.932 98.1041 228.932 102.097 234.213 104.653C233.573 110.723 236.773 114.397 242.054 116.952C241.414 121.425 243.654 124.619 247.015 126.856C245.895 130.689 247.015 133.884 249.575 136.439L249.415 136.599C247.015 140.912 246.055 145.384 249.575 149.697C250.055 150.336 250.695 150.815 251.175 151.454C253.736 159.92 244.774 166.788 246.855 175.893C247.335 177.49 248.295 178.768 249.575 179.886C252.296 184.039 252.296 187.074 251.815 190.748C251.655 190.748 251.655 190.908 251.655 191.067C251.335 192.824 250.695 194.581 249.895 196.179C241.414 172.698 242.534 149.857 240.294 125.258C240.134 124.46 238.854 124.46 238.854 125.258C238.854 148.419 237.733 173.337 247.015 195.22C246.055 194.581 244.935 194.102 243.974 193.463C229.732 179.726 223.491 161.357 216.45 143.308C207.809 120.946 202.208 97.6249 196.128 74.4639C195.808 73.6653 194.527 73.9847 194.687 74.9431C200.768 100.5 207.489 125.737 216.931 150.496C221.571 163.114 226.692 177.171 235.493 188.032C207.809 168.066 193.727 133.564 178.365 104.972C178.205 104.653 177.405 104.813 177.565 105.292C186.046 125.897 195.808 145.225 209.089 163.274C217.411 174.775 228.452 190.269 242.854 195.54C243.654 196.179 244.294 196.658 245.095 197.297C244.454 197.297 243.814 197.616 243.174 197.776V197.776ZM242.214 204.165C241.894 204.644 241.414 204.964 241.094 205.443C237.894 203.686 234.693 202.249 233.573 198.575C233.733 198.575 233.893 198.575 234.053 198.575C235.013 200.172 236.293 201.61 237.894 202.408C238.374 202.728 238.854 203.047 239.494 203.367C240.294 203.686 241.254 203.686 242.374 203.846C242.214 204.006 242.214 204.006 242.214 204.165V204.165ZM139.64 56.7338C143.16 53.5392 146.841 52.9002 151.321 51.9419C151.641 51.9419 151.801 51.6224 151.961 51.4627C152.921 51.4627 153.882 51.4627 154.842 51.6224C156.922 51.7821 159.002 52.5808 161.083 52.4211C152.121 57.3727 144.44 68.2344 134.359 62.1646C136.119 60.4076 137.879 58.4908 139.64 56.7338V56.7338ZM169.564 51.9419C170.204 51.7821 170.204 51.3029 170.044 50.8237C172.444 50.664 174.845 50.9835 177.405 51.6224C178.525 51.7821 179.485 52.2613 180.445 52.5808C177.405 52.7405 174.524 54.0184 171.644 55.4559C165.243 58.97 160.442 62.9633 153.081 61.0465C158.202 57.6922 163.003 53.8586 169.564 51.9419V51.9419ZM185.406 54.1781C186.206 54.1781 187.006 54.1781 187.806 54.3378C189.407 54.6573 190.687 55.4559 192.127 56.2546C183.806 58.8103 174.685 64.2411 168.124 60.5673C173.404 57.8519 177.405 54.817 184.446 54.817C185.086 54.817 185.246 54.4976 185.406 54.1781ZM194.047 57.6922C200.448 55.7754 203.809 58.8103 207.489 63.123C197.728 63.7619 188.767 67.4358 179.325 63.123C180.445 62.8036 181.405 62.4841 182.366 62.1646C186.366 60.5673 190.047 58.8103 194.047 57.6922ZM207.169 73.9847C217.091 74.1444 226.692 70.6304 231.013 81.8115C231.173 81.8115 231.173 81.8115 231.173 81.8115C227.492 81.3323 223.331 81.4921 219.491 81.1726C219.171 80.5337 218.211 80.3739 217.731 81.1726C217.251 81.0129 216.931 81.0129 216.61 81.0129C216.45 80.0545 215.17 79.8947 214.85 80.6934C210.53 79.8947 207.009 78.2974 205.569 73.9847C206.049 73.9847 206.689 73.9847 207.169 73.9847V73.9847ZM239.494 88.8397V88.9994C240.134 90.5967 241.254 92.0343 242.534 93.4719C233.093 90.2772 219.331 90.2772 219.331 83.4088C226.692 84.0478 233.893 83.7283 239.494 88.8397V88.8397ZM241.414 86.9229C243.494 86.1243 245.735 85.3256 247.815 84.5269C254.536 85.8048 259.657 93.7913 262.377 99.8611C254.856 99.5416 247.495 95.5484 242.534 89.9578C242.534 89.7981 242.694 89.7981 242.534 89.7981C242.534 89.4786 242.374 89.3189 242.374 89.1591C243.334 90.2772 244.454 91.3954 245.735 92.194C247.175 92.9927 249.255 93.9511 250.855 93.3121C251.175 93.1524 251.175 92.5135 250.855 92.3538C250.055 91.2356 248.135 91.0759 246.855 90.437C245.415 89.6383 244.294 88.5202 243.174 87.2424C242.694 86.6034 241.894 86.9229 241.574 87.5618C241.414 87.2424 241.254 87.0826 241.254 86.9229C241.254 86.9229 241.254 86.9229 241.414 86.9229V86.9229ZM249.895 76.5404C251.976 74.9431 254.216 73.6652 256.616 73.1861C258.696 72.7069 261.097 73.0263 259.017 75.2626C257.416 76.8599 255.336 78.1377 253.416 79.2558C252.936 79.5753 252.296 79.8947 251.815 80.2142C253.096 79.0961 254.376 78.1377 255.656 76.8599C256.616 76.0612 255.336 74.4639 254.216 75.1028C252.456 76.3807 251.015 77.6585 249.255 78.7766C248.935 78.9364 248.775 79.2558 248.775 79.5753C248.455 79.8948 247.975 80.2142 247.495 80.3739C248.615 79.4156 249.255 77.978 249.895 76.5404V76.5404ZM236.613 105.611C240.614 107.049 244.774 107.848 248.935 109.125C254.856 111.202 255.016 115.994 256.296 121.105C254.856 119.987 253.256 118.869 251.495 118.23C244.774 115.195 236.293 113.758 236.293 105.452C236.293 105.452 236.453 105.452 236.613 105.611V105.611ZM257.416 129.411C254.856 127.974 251.655 127.015 249.255 125.418C249.095 125.258 248.775 125.099 248.455 125.099C246.055 123.501 244.294 121.265 244.294 117.911C247.175 119.029 249.895 119.827 252.456 121.265C256.296 123.182 256.936 125.897 257.416 129.411ZM260.137 134.043C259.657 136.919 259.977 139.794 261.097 142.349C256.296 137.717 247.975 135.321 248.935 128.133C249.415 128.293 249.895 128.613 250.375 128.772C252.936 130.05 255.816 131.009 258.216 132.446C259.016 132.925 259.657 133.405 260.137 134.043V134.043ZM261.737 149.378C260.297 151.774 259.337 154.17 259.017 156.566C256.776 154.01 254.216 151.614 252.456 149.058C252.296 148.898 252.136 148.579 251.976 148.419C251.976 148.26 251.976 148.26 251.976 148.26C250.215 145.384 249.415 142.03 251.175 138.037C251.655 138.356 251.976 138.676 252.456 138.995C255.016 140.912 257.736 142.509 259.977 144.586C261.577 146.183 261.897 147.78 261.737 149.378V149.378ZM269.258 119.987C270.058 119.029 269.898 122.383 270.058 123.342C270.378 126.217 269.738 129.252 269.098 131.967C268.458 134.523 267.658 136.919 266.538 139.155C266.858 136.599 266.378 133.405 265.897 131.328C265.737 130.05 263.657 130.529 263.977 131.807C264.297 133.724 264.297 135.481 264.297 137.398C264.137 139.155 263.337 140.912 263.497 142.509C263.337 142.19 263.177 141.87 263.017 141.391C264.777 138.516 264.297 135.641 262.537 133.245C263.497 128.293 266.378 123.342 269.258 119.987ZM271.018 143.148C270.698 146.502 269.098 149.697 267.018 152.572C266.218 153.69 265.097 154.649 263.977 155.447C265.577 153.85 266.698 152.093 266.698 150.176C266.698 149.378 265.577 149.058 264.937 149.537C264.617 149.697 264.457 150.017 264.137 150.336C265.737 147.301 267.978 144.745 271.018 143.148V143.148ZM103.794 76.0612C103.954 75.7418 104.274 75.4223 104.435 75.1028C104.755 74.9431 105.075 74.7834 105.075 74.3042C106.675 69.1928 109.555 65.0398 113.396 61.2063C117.876 56.7338 122.997 55.4559 128.758 53.3794C120.117 59.7687 114.356 72.5471 103.794 76.0612V76.0612ZM107.635 78.6169C107.475 78.4572 107.315 78.4572 106.995 78.4572C106.515 78.4572 106.035 78.4572 105.555 78.2974C107.635 77.0196 110.035 76.0612 112.436 75.582C110.835 76.7001 109.235 77.6585 107.635 78.6169V78.6169ZM98.8337 79.4156C98.1936 80.3739 98.9937 81.4921 99.7938 81.4921C99.6338 81.6518 99.6338 81.6518 99.4738 81.8115C99.4738 81.9712 99.3138 82.131 99.3138 82.2907C98.5137 82.131 97.7136 82.131 96.7534 82.131C96.7534 82.131 96.5934 82.131 96.5934 82.2907C96.2733 81.9713 95.9533 81.6518 95.6333 81.4921C95.7933 81.1726 95.9533 80.8531 95.7933 80.6934C95.9533 80.5337 96.1133 80.3739 96.2733 80.2142C96.4334 80.5337 96.5934 80.8531 96.7534 81.0129C97.7136 81.9712 99.1538 80.5337 98.3536 79.5753C93.3929 73.6653 100.114 62.6438 105.235 57.0533C104.915 65.3592 104.595 72.5471 98.8337 79.4156ZM109.395 92.0343C110.515 94.2705 110.835 96.8262 110.355 99.2222C109.715 102.417 106.835 103.535 104.435 105.292C103.794 105.611 103.954 106.73 104.755 106.73C105.875 106.57 106.835 106.25 107.795 105.931C108.275 108.007 109.555 109.924 108.435 112.16C107.635 114.077 105.715 115.355 103.794 115.994C98.5137 117.591 95.1532 113.917 94.9932 109.285C96.1133 109.445 97.0735 109.285 97.7136 109.285C101.874 108.966 104.435 106.25 104.595 102.257C104.755 99.2222 102.834 96.9859 100.434 95.5484C101.394 93.6316 101.394 91.0759 100.754 88.8397C100.434 87.5618 99.6338 86.1242 98.8337 84.8464C98.9937 84.8464 99.1538 84.8464 99.3138 84.8464C99.6338 84.6867 99.9539 84.5269 100.434 84.5269C104.274 85.6451 107.475 88.3605 109.395 92.0343V92.0343ZM102.994 143.468C95.9533 138.516 94.6731 126.696 94.8331 118.709C94.9932 117.591 95.1532 116.473 94.9932 115.515C95.3132 115.834 95.6333 116.154 96.1133 116.473C95.9533 116.633 95.7933 116.952 95.9533 117.272C96.5934 119.029 97.0735 120.946 97.5535 122.862C97.8736 124.939 98.0336 127.175 99.1538 129.092C99.4738 129.411 100.274 129.411 100.274 128.932C100.754 126.696 100.274 123.98 99.4738 121.584C103.794 127.814 103.634 136.12 102.994 143.468V143.468ZM92.7528 104.493C93.0729 103.854 93.873 103.056 94.6731 102.736C94.8331 102.736 94.9932 102.736 95.1532 102.736C95.4732 104.653 94.9932 105.771 96.2733 107.049C95.6333 107.049 94.9932 107.049 94.3531 106.889C91.9527 106.57 91.3126 106.57 92.7528 104.493V104.493ZM93.3929 113.278C92.4328 114.876 92.5928 117.112 92.1128 118.869C91.7927 120.626 90.9926 122.064 89.8724 123.342C88.1122 125.418 85.3918 125.737 82.9915 124.939C77.2306 123.182 75.7904 117.272 77.7107 112.48C78.6708 112.32 79.631 112.001 80.4311 111.681C81.8713 113.278 83.9516 114.716 85.8719 114.876C86.512 114.876 86.832 114.237 86.512 113.917C85.5518 112.48 83.7916 111.521 82.3514 110.403C82.5114 109.924 82.1913 109.285 81.5512 109.285C81.5512 109.285 81.3912 109.285 81.2312 109.285C79.3109 107.209 78.5108 104.493 79.3109 101.938C79.471 101.139 78.3508 100.819 78.0308 101.618C76.9106 104.493 77.0706 106.889 78.6708 109.605C78.3508 109.125 77.5507 109.125 77.2306 109.605C77.0706 109.764 77.0706 109.924 76.9106 110.084C76.1105 110.244 75.3104 110.403 74.5102 110.403C72.91 110.563 70.9897 110.403 69.3895 109.605C66.9892 108.327 66.5091 105.611 67.1492 103.215C67.7893 100.34 70.0296 98.1041 72.75 96.8262C73.3901 96.6665 74.0302 96.347 74.6703 96.347C74.9903 96.347 75.3104 96.347 75.6304 96.1873C78.6708 95.8678 82.0313 96.9859 84.7517 98.4235C84.9117 98.5832 85.2318 98.5832 85.3918 98.4235C84.4317 101.299 86.0319 104.334 87.7921 106.41C88.2722 106.889 88.9123 107.049 89.5524 106.889C89.7124 108.167 91.3126 108.806 93.0729 109.125C92.9129 110.563 93.2329 111.841 93.553 112.959C93.553 112.959 93.3929 113.119 93.3929 113.278V113.278ZM68.4294 111.521C69.3895 112.16 70.5097 112.48 71.7899 112.64C70.5097 113.438 69.3895 114.556 68.7494 115.834C68.7494 114.397 68.7494 112.959 68.4294 111.521ZM69.2295 120.786C69.5495 120.466 69.8696 120.147 70.3497 119.987C71.3098 119.508 72.1099 118.709 72.75 118.07C73.5501 117.431 74.1902 116.952 74.8303 116.313C74.6703 119.029 75.4704 121.744 77.3907 123.821C76.7506 123.501 75.9505 123.022 75.3104 122.862C72.43 121.904 69.8696 121.904 67.4692 122.383C67.6293 122.223 67.6293 122.064 67.7893 121.904C67.7893 121.425 67.9493 121.105 67.9493 120.786C68.2694 120.946 68.7494 121.105 69.2295 120.786V120.786ZM82.8314 133.564C84.1116 136.439 83.7916 138.676 82.1913 140.273C78.1908 136.12 70.0296 135.96 64.4288 139.315C64.2688 139.474 64.1088 139.634 63.9487 139.634C62.0285 138.516 59.9482 138.037 57.8679 138.196C57.8679 135.641 58.508 133.085 59.9482 130.849C60.4282 130.849 60.9083 130.689 61.3884 130.529C63.7887 129.571 65.3889 127.495 66.5091 125.099C68.5894 124.3 71.1498 123.98 73.8702 124.619C78.0307 125.737 81.3912 129.89 82.8314 133.564V133.564ZM79.3109 154.329C79.3109 153.371 78.9909 152.572 78.6708 151.933C79.3109 149.697 79.1509 147.461 77.7107 145.704C77.0706 144.905 75.9505 144.107 74.8303 143.468C77.0706 143.627 79.3109 144.107 81.0712 145.225C82.1913 145.864 82.8314 146.662 83.1515 147.461C83.1515 147.78 83.1515 147.94 83.1515 148.1C83.1515 148.419 83.3115 148.419 83.4715 148.579C83.7916 150.975 82.0313 153.371 79.3109 154.329V154.329ZM72.91 147.78C71.4698 147.461 70.1896 147.621 68.9094 147.94C67.6293 144.426 69.7096 143.468 72.75 144.745C74.9903 145.704 76.4305 147.301 76.7506 149.218C75.7904 148.419 74.5102 147.94 72.91 147.78ZM70.0296 149.857C73.2301 149.218 75.3104 150.496 76.2705 152.413C75.7904 153.371 74.9903 154.329 74.1902 154.968C72.1099 154.968 69.8696 154.649 67.9493 154.01C67.1492 152.413 67.9493 150.496 70.0296 149.857V149.857ZM71.7899 161.996C71.7899 161.837 71.6298 161.677 71.4698 161.517C70.9897 160.559 69.7096 161.357 69.8696 162.156C69.0695 162.156 68.2694 162.156 67.4692 161.837C66.3491 161.517 65.549 161.038 64.9089 160.399C64.9089 160.239 64.7489 160.08 64.5888 159.92C63.4687 158.323 63.1486 156.086 63.3087 154.01C64.1088 154.649 65.0689 155.128 66.029 155.607C66.6691 156.566 67.4692 157.364 68.4294 158.003C70.9898 159.76 73.7101 158.961 75.6304 157.045C75.7904 157.045 75.7904 157.045 75.9505 157.045C76.1105 157.045 76.4305 157.045 76.5905 156.885C76.1105 159.281 74.5102 161.357 71.7899 161.996V161.996ZM75.4704 168.545C69.7096 173.018 63.3087 174.775 56.1076 170.941C50.5068 167.906 48.1065 162.476 49.3867 157.204C50.6669 159.281 52.1071 161.038 53.8673 162.476C56.9077 164.712 61.2284 164.872 63.9487 162.316C65.549 163.913 67.9493 164.872 71.1498 164.392C72.2699 166.149 73.7101 167.587 75.4704 168.545V168.545ZM65.549 222.854C65.869 225.569 66.1891 228.125 66.5091 230.681C66.6691 232.438 66.5091 234.195 66.5091 235.952C62.0285 225.569 52.1071 216.944 56.1076 204.165C58.508 210.714 62.0285 216.944 65.549 222.854ZM66.029 251.605C65.0689 249.689 63.9487 247.772 62.6686 246.015C57.5478 238.348 52.9072 232.118 56.1076 222.854C58.988 228.924 62.3485 234.354 64.9089 240.264C64.9089 240.424 64.9089 240.424 64.9089 240.424C66.029 244.258 66.1891 247.932 66.029 251.605ZM65.709 268.697C64.7489 266.62 63.6287 264.544 62.3485 262.467C57.7079 254.96 54.6674 249.05 56.2677 240.903C57.8679 243.459 59.9482 246.015 61.5484 248.57C62.6686 250.168 63.4687 251.765 64.1088 253.362C63.6287 253.362 63.1486 254.001 63.4687 254.64C65.709 259.432 65.869 263.905 65.709 268.697V268.697ZM57.5478 277.482C57.7079 274.127 57.0678 270.773 57.2278 267.419C57.3878 264.863 57.7079 262.307 57.8679 259.752C58.988 261.509 60.1082 263.266 61.2284 265.182C63.6287 269.016 64.4288 272.85 65.389 277.003C62.8286 277.162 60.2682 277.322 57.5478 277.482V277.482ZM55.9476 182.602C57.0678 184.678 58.0279 186.595 59.1481 188.671C63.4687 196.338 63.7887 202.728 62.8286 211.034C58.508 202.089 53.8673 193.783 55.9476 182.602V182.602ZM53.8673 171.74C56.5877 173.497 59.7882 174.775 63.1486 175.094C62.8286 175.254 62.5085 175.573 62.6686 176.053C63.1486 179.407 63.4687 182.602 63.4687 185.956C63.4687 187.713 63.1486 189.47 62.9886 191.227C60.2682 184.678 56.1076 178.449 53.8673 171.74V171.74ZM59.1481 146.822C59.3081 146.982 59.4681 146.982 59.7882 146.982C59.6281 148.26 59.9482 149.378 60.2682 150.496C60.5883 151.135 60.9083 151.614 61.2284 152.093C60.7483 155.128 61.2284 158.163 62.5085 160.559C59.6281 162.156 57.3878 162.476 54.5074 159.92C52.7472 158.323 51.467 156.406 50.6669 154.17C51.1469 153.211 51.787 152.413 52.5871 151.614C53.3872 150.655 52.1071 149.378 51.1469 150.336C50.6669 150.815 50.3468 151.294 49.8667 151.774C49.8667 151.454 49.7067 151.135 49.7067 150.815C48.4265 145.384 51.947 141.551 56.1076 140.592C56.5877 142.829 57.5478 144.905 59.1481 146.822V146.822ZM60.1082 144.745C58.988 143.308 58.508 141.87 58.1879 140.273C59.4681 140.273 60.9083 140.592 62.1885 141.231C61.2284 142.349 60.4282 143.468 60.1082 144.745V144.745ZM65.549 144.107C63.9487 145.544 62.8286 147.301 62.0285 149.218C61.8685 148.579 61.5484 147.78 61.5484 147.141C61.3884 145.065 62.1885 143.308 63.4687 142.03C64.2688 142.669 64.9089 143.308 65.549 144.107ZM66.9892 148.898C66.1891 149.378 65.709 150.176 65.389 151.294C65.2289 151.774 65.2289 152.253 65.2289 152.732C64.5888 152.413 64.1088 151.933 63.6287 151.454C63.6287 151.135 63.7887 150.975 63.7887 150.655C64.2688 149.058 65.2289 147.621 66.1891 146.662C66.3491 147.141 66.5091 147.78 66.6691 148.419C66.8292 148.579 66.8292 148.739 66.9892 148.898V148.898ZM65.2289 140.752C67.4692 139.315 70.3497 138.676 72.75 138.516C76.2705 138.196 79.1509 139.315 80.9112 141.391C80.4311 141.711 79.951 141.87 79.3109 142.19C76.5905 141.391 73.5501 141.391 71.1498 141.711C69.7096 141.87 68.4294 142.349 67.3092 142.988C66.6691 142.19 66.029 141.391 65.2289 140.752ZM47.7864 139.474C47.9465 139.155 48.1065 138.995 48.2665 138.676C48.4265 138.037 47.6264 137.558 47.1464 137.877C45.7061 138.676 44.586 139.954 42.8257 140.433C41.0655 140.912 39.3052 140.433 37.705 139.794C34.5046 138.196 32.5843 134.842 32.5843 131.488C32.5843 130.21 30.664 130.37 30.504 131.488C30.504 132.127 30.504 132.766 30.664 133.405C30.664 133.405 30.664 133.405 30.504 133.405C30.504 133.245 30.504 133.085 30.344 132.925C30.344 132.766 30.344 132.446 30.344 132.286C30.344 131.488 29.5438 131.168 29.0638 131.328C23.9431 131.488 20.1025 130.689 18.6623 125.418C17.8622 122.703 18.5023 119.827 20.2625 119.029C21.3827 119.668 22.6629 119.827 24.1031 119.987C24.2631 121.744 25.2232 123.182 26.9835 123.98C27.6236 124.14 28.1036 123.501 27.9436 123.022C27.6236 122.064 26.8235 121.265 26.3434 120.307C25.8633 119.029 26.1834 117.911 26.6634 116.793C27.1435 115.674 25.5433 114.716 24.9032 115.834C24.7432 116.313 24.4231 116.793 24.4231 117.272C22.9829 116.633 21.5427 116.313 20.4225 116.633C14.5017 112.16 21.8628 99.5416 30.344 107.528C30.0239 108.167 29.7039 108.966 29.7039 109.605C29.2238 113.917 32.5843 117.112 36.1048 119.189C40.9055 122.064 48.2665 123.182 53.3872 120.946C51.787 123.182 50.0268 124.939 46.6663 125.737C41.5456 127.175 37.0649 123.182 34.6646 119.348C34.0245 118.23 32.2642 119.189 32.9043 120.147C35.7847 124.939 40.1054 128.453 46.0262 128.133C48.1065 127.974 50.1868 127.175 51.947 125.897C51.947 130.689 48.1065 133.085 42.9858 132.766C40.7454 132.606 38.5051 131.967 36.5848 130.849C34.6646 129.731 34.8246 128.453 34.6646 126.696C34.5046 125.897 33.7044 125.578 33.2244 126.057C31.3041 127.654 32.5843 130.37 34.0245 131.807C36.2648 133.884 39.4653 134.523 42.3457 134.842C48.4265 135.481 52.7471 132.606 53.5473 127.814C54.6674 129.092 56.1076 130.21 57.5478 130.689C56.4277 133.085 55.7876 135.641 55.7876 138.356C53.2272 138.835 50.8269 140.273 49.2266 142.349C49.2266 142.19 49.3867 141.87 49.3867 141.551C49.5467 140.752 49.0666 140.273 48.4265 140.113C48.4265 139.794 48.1065 139.634 47.7864 139.474V139.474ZM30.9841 160.399C32.4243 155.447 34.8246 151.135 38.3451 147.78C37.865 148.579 39.3052 149.857 40.4254 149.058C42.3457 147.461 44.2659 145.864 46.1862 144.426C43.9459 151.614 38.8252 161.038 30.9841 160.399ZM16.262 158.482C16.742 151.294 19.9425 144.426 24.9032 138.995C22.5028 143.148 20.2625 147.461 18.1822 151.774C17.5421 153.051 19.6224 154.17 20.2625 152.892C22.5028 148.898 24.7432 145.065 27.1435 141.391C25.3833 147.78 21.3827 153.371 16.262 158.482ZM28.2637 102.097C28.4237 102.097 28.4237 102.097 28.4237 102.097C28.9038 102.736 29.5438 103.375 30.504 103.695C31.1441 104.014 31.9442 103.535 31.4641 102.736C30.344 100.34 29.0638 98.743 30.504 95.8678C31.7842 93.4719 34.1845 91.7148 36.7449 90.437C38.9852 89.4786 42.0256 88.9994 44.1059 90.7564C46.5063 92.8329 46.1862 96.9859 45.7061 100.181C45.3861 100.34 45.0661 100.34 44.746 100.5C43.3058 100.34 41.8656 100.181 40.4254 100.34C37.2249 100.66 33.5444 102.896 31.4641 105.611C30.1839 104.653 28.9038 103.854 27.6236 103.215C28.1036 103.056 28.4237 102.577 28.2637 102.097V102.097ZM42.9858 61.6854C43.4658 59.9284 42.9858 62.0049 43.6259 63.7619C44.746 66.4774 45.3861 69.1928 46.0262 71.9082C47.1464 77.0196 47.1464 82.131 46.1862 87.2424C41.0655 79.4156 40.9055 70.7901 42.9858 61.6854V61.6854ZM47.6264 92.6732C47.6264 92.6732 47.7864 92.6732 47.9465 92.6732C50.1868 91.2356 51.3069 89.1591 54.3474 89.3189C57.2278 89.3189 59.6281 91.7148 61.2284 93.7913C65.0689 98.9027 64.1088 104.972 58.828 108.327C57.3878 104.174 53.5473 100.66 48.7466 100.021C48.2665 100.021 47.7864 100.021 47.4664 100.021C47.9465 97.6249 48.2665 95.0692 47.6264 92.6732V92.6732ZM54.8274 81.0129C54.6674 80.6934 54.5074 80.3739 54.5074 80.2142C59.6281 80.5337 63.4687 83.5686 66.6691 87.2424C62.6686 85.1659 58.668 83.2491 54.8274 81.0129V81.0129ZM57.3878 118.709C60.2682 116.473 61.0683 113.119 59.7882 109.924C62.0285 108.646 63.4687 107.049 64.5888 105.132C64.5888 105.931 64.5888 106.57 64.9089 107.209C64.7489 107.209 64.4288 107.209 64.2688 107.209C62.9886 107.848 63.4687 109.285 63.6287 110.244C63.6287 110.563 64.1088 110.723 64.4288 110.563C64.9089 110.403 65.3889 110.084 65.549 109.605V109.445C65.869 110.084 65.869 110.723 66.029 111.362C66.8292 114.397 66.3491 117.591 65.709 120.626C65.389 121.584 65.0689 122.543 64.5888 123.501C62.3485 124.619 60.2682 126.536 58.668 128.772C56.9077 128.453 55.1475 126.696 54.0273 125.258C53.8673 125.258 53.7073 125.099 53.5473 125.099C53.5473 124.939 53.5473 124.779 53.5473 124.619C55.4675 123.022 56.9077 120.946 57.3878 118.709V118.709ZM37.385 111.521C38.1851 117.431 45.8662 123.182 51.3069 117.751C56.4277 112.64 47.7864 106.57 42.5057 106.889C41.8656 106.889 41.2255 107.368 41.2255 108.007C41.3855 109.285 41.5456 110.723 42.6657 111.521C43.6259 112.001 44.586 110.883 43.7859 110.084C43.6259 109.924 43.6259 109.605 43.6259 109.125C46.3462 109.285 48.7466 110.883 50.1868 113.119C51.947 115.834 47.7864 117.431 45.7061 117.591C43.3058 117.591 41.7056 115.994 40.7454 114.237C38.6651 111.042 39.4653 107.209 41.8656 104.493C42.6657 103.535 43.6259 102.896 44.746 102.577C45.0661 102.577 45.3861 102.736 45.5461 102.736C45.7061 103.056 46.1862 103.056 46.5063 102.896C48.5866 103.535 50.6669 104.334 52.4271 105.292C54.0273 106.25 55.6276 107.688 56.7477 109.125C56.9077 109.285 56.9077 109.445 56.9077 109.605C56.5877 109.924 56.7477 110.403 57.0678 110.723C57.3878 113.278 56.7477 115.994 54.6674 117.911C51.627 120.626 46.6663 120.307 42.9858 119.508C39.3052 118.709 35.4647 116.952 33.2244 114.077C30.1839 110.244 33.0643 106.41 36.5848 104.014C37.865 103.056 39.3052 102.577 40.9055 102.417C38.3451 104.653 36.9049 108.007 37.385 111.521V111.521ZM71.6298 95.0692C69.0695 96.1873 66.9892 98.1041 65.709 100.5C65.709 97.9443 64.9089 95.2289 63.1486 92.6732C62.8286 92.194 62.5085 91.7148 62.0285 91.3954C65.0689 92.9927 68.2694 94.1108 71.6298 95.0692ZM87.4721 95.7081C87.6321 95.3886 87.4721 94.7497 86.992 94.59C85.2318 93.9511 83.1515 92.8329 82.6714 90.9162C82.3514 89.9578 82.9915 88.8397 83.7916 88.2007C84.7517 87.5618 86.0319 87.5618 86.992 88.3605C88.9123 89.7981 89.0723 92.6732 89.2323 94.7497V94.9094C88.5923 95.0692 88.1122 95.3886 87.4721 95.7081V95.7081ZM94.033 100.5C92.7528 100.819 91.6327 101.778 90.8326 103.056C90.6725 103.056 90.5125 103.215 90.3525 103.215C90.0325 102.736 89.5524 102.257 89.2323 101.458C89.0723 100.819 88.2722 100.5 87.6321 100.819C87.4721 99.2222 88.1122 97.6249 90.3525 96.8262C92.2728 96.0276 94.5131 96.0276 96.5934 96.5067C96.1133 96.8262 95.7933 97.3054 95.4732 97.6249C94.9932 98.2638 95.4732 99.3819 96.2733 99.0624C97.5535 98.743 98.3536 98.2638 99.1538 97.4651C99.6338 97.7846 100.114 98.1041 100.434 98.4235C102.034 99.7014 102.354 101.618 102.034 103.535C101.714 105.452 100.274 106.41 98.6737 106.73C98.6737 106.73 98.6737 106.73 98.6737 106.57C98.5137 104.014 97.7136 99.5416 94.033 100.5V100.5ZM89.7124 80.2142C93.0729 81.6518 95.7933 84.3672 97.5535 87.4021C99.3138 90.2772 99.1538 92.5135 97.8736 94.59C95.9533 93.9511 93.873 93.7913 92.1128 94.1108C91.7927 94.1108 91.6327 94.2705 91.3126 94.2705C91.1526 91.5551 90.3525 88.3605 88.1122 86.7632C86.512 85.4853 84.4317 85.4853 82.8314 86.4437C81.0712 87.5618 80.2711 89.4786 80.5911 91.2356C81.0712 93.9511 83.9516 95.5484 86.3519 96.347C86.512 96.5068 86.512 96.5067 86.672 96.5067C86.512 96.6665 86.3519 96.9859 86.0319 97.1457C86.0319 96.9859 85.8719 96.8262 85.7118 96.8262C82.5114 94.9094 78.8309 93.6316 75.1503 94.1108C69.8696 85.4853 80.5911 76.3807 89.7124 80.2142V80.2142ZM74.6703 79.0961C73.7101 74.7834 75.1503 66.9566 80.4311 65.6787C80.111 68.3941 79.631 71.1096 78.3508 73.825C77.5507 75.9015 76.1105 77.4988 74.6703 79.0961ZM85.8719 58.8103C87.9522 61.0465 89.5524 63.9217 90.8326 66.9566C90.0325 66.6371 89.0723 66.9566 89.2323 67.7552C89.2323 67.9149 89.2323 67.9149 89.2323 68.0747C89.5524 70.3109 90.3525 72.3874 91.4727 74.3042C92.1127 75.582 92.5928 77.0196 93.3929 78.2974C88.1122 73.1861 84.5917 65.9982 85.8719 58.8103V58.8103ZM78.1908 173.018C78.3508 172.858 78.3508 172.698 78.3508 172.539C84.1116 177.49 89.0723 184.678 84.9117 191.547C79.471 187.713 77.7107 181.004 77.3907 174.455C77.7107 173.976 78.0307 173.497 78.1908 173.018ZM92.9129 178.289C90.1925 178.449 87.6321 177.331 85.5518 175.733C84.4317 174.775 83.6315 173.816 82.9915 172.698C87.3121 172.379 91.1526 174.615 92.9129 178.289ZM71.1498 188.671C71.3098 187.553 71.4698 186.435 71.6298 185.317C71.9499 185.157 72.2699 184.998 72.43 184.838C73.2301 183.72 73.8702 182.442 74.5102 181.324C73.8702 184.039 72.91 186.595 71.1498 188.671ZM4.42027 133.884C8.1008 133.085 11.9413 133.245 15.7819 134.043C17.0621 134.203 18.5023 134.682 19.7825 135.002C14.6617 136.12 9.06093 135.801 4.42027 133.884V133.884ZM12.7415 88.9994C15.3018 90.7564 18.0222 92.194 20.5826 94.1108C20.2625 94.2705 20.2625 94.7497 20.2625 95.0692C20.7426 96.347 21.3827 97.6249 22.1828 98.9027C17.7022 96.5067 13.7016 93.4719 12.7415 88.9994V88.9994ZM27.6236 75.9015C32.1042 78.1377 35.4647 81.8115 39.1452 84.8464C34.5046 82.9296 29.5438 80.3739 27.6236 75.9015V75.9015ZM68.2694 67.5955C68.4294 70.7901 68.7494 73.825 69.0695 76.8599C69.3895 78.7766 69.5495 80.6934 69.7096 82.6102C66.1891 78.2974 65.549 72.3874 68.2694 67.5955ZM238.854 58.1714C238.534 58.1714 238.054 58.3311 237.573 58.3311C237.733 58.1714 237.733 57.8519 237.573 57.6922C233.573 51.7821 233.573 43.4761 236.293 36.9272C237.093 39.9621 238.374 42.9969 239.334 46.0318C240.774 50.664 240.454 54.3378 238.854 58.1714V58.1714ZM230.052 62.0049C228.292 61.5257 226.532 61.8452 225.092 63.123C224.772 63.6022 224.452 64.0814 224.132 64.5606C222.691 63.9217 220.771 62.8036 220.931 61.0465C221.251 59.2895 223.011 58.1714 224.452 57.3727C225.892 56.5741 227.652 56.2546 229.252 56.8935C230.052 57.8519 230.852 58.97 231.653 60.2479C231.813 61.0465 231.813 61.8452 231.973 62.6438C231.173 62.3244 230.532 62.0049 230.052 62.0049V62.0049ZM211.81 47.6291C209.89 42.5178 209.409 36.448 212.29 31.6561C213.09 37.0869 212.45 42.358 211.81 47.6291ZM204.929 48.2681C204.769 47.9486 204.449 47.6291 204.129 47.3097C203.489 46.1916 201.888 47.1499 202.528 48.1083C203.329 49.3862 204.129 50.664 204.929 51.9419C199.168 49.2264 193.887 44.9137 193.087 39.0037C196.768 40.601 200.608 42.1983 203.649 44.754C204.929 45.8721 205.889 47.1499 206.369 48.4278C206.049 47.9486 205.409 47.9486 204.929 48.2681V48.2681ZM278.379 177.011C279.339 177.171 280.14 176.532 279.979 175.573C278.539 168.226 273.259 160.239 265.737 157.524C266.698 156.566 267.658 155.447 268.458 154.649C271.498 150.655 273.579 146.183 273.419 141.231C273.419 140.592 272.618 139.794 271.818 140.113C270.378 140.592 269.098 141.391 267.658 142.509C271.818 135.002 273.899 125.897 271.018 118.07C270.858 117.591 270.538 117.272 270.058 117.272C265.737 117.431 262.697 125.737 261.417 128.932C261.097 129.731 260.937 130.529 260.617 131.328C260.137 131.009 259.657 130.689 259.177 130.37C260.457 126.856 259.177 123.98 256.936 121.744C257.256 121.744 257.576 121.584 257.576 121.265C258.856 115.515 256.456 109.605 250.535 107.368C244.454 104.972 224.932 102.896 231.013 93.3121C231.173 93.1524 231.173 92.9927 231.173 92.8329C234.213 93.3121 237.253 93.9511 240.294 94.9094C246.055 96.8262 247.815 100.021 248.935 105.452C249.095 106.25 250.375 106.091 250.535 105.452C251.335 102.736 251.175 100.66 250.375 99.0624C254.856 101.139 259.977 102.417 264.297 102.097C264.937 102.097 265.737 101.458 265.417 100.819C262.857 94.59 257.576 86.1243 250.855 83.0894C255.496 80.8531 259.817 78.1377 263.017 73.825C263.337 73.5055 263.177 72.8666 262.857 72.5471C259.017 69.672 254.536 70.6304 250.535 73.1861C250.855 70.1512 250.375 66.9566 249.735 64.7203C248.295 60.7271 245.255 58.4908 241.894 58.0116C244.614 50.5043 239.974 41.2399 237.733 33.5728C237.413 32.6144 235.973 32.7742 235.653 33.5728C232.453 41.7191 230.052 50.9835 235.813 58.4908C235.973 58.6506 236.133 58.8103 236.133 58.8103C235.653 58.97 235.173 59.1297 234.693 59.4492C233.733 59.9284 234.693 61.5257 235.653 60.8868C236.453 60.5673 237.253 60.4076 237.894 60.2479C237.413 61.2063 236.773 62.1646 235.973 63.2828C235.973 63.2828 235.813 63.2828 235.653 63.4425C235.173 63.6022 234.853 64.0814 235.013 64.5606C234.693 64.2411 234.373 63.9217 233.893 63.7619C234.693 62.1646 234.213 60.0881 233.733 58.6506C233.413 57.6922 232.933 56.8935 232.133 56.0949C229.252 50.5043 219.491 47.7889 214.05 50.3446C215.65 43.3164 215.81 35.3299 213.73 28.7809C213.57 28.142 212.61 27.6628 211.97 28.3017C206.689 34.8507 207.169 43.7956 211.17 50.9835C211.33 51.1432 211.33 51.3029 211.49 51.3029C211.49 51.6224 211.49 52.1016 211.49 52.4211C211.17 52.9002 210.85 53.3794 210.69 54.0184C210.53 54.0184 210.53 53.8586 210.53 53.8586C210.37 44.4345 200.608 39.4829 192.127 36.1285C191.327 35.9688 190.527 36.6077 190.527 37.2466C190.207 46.1916 199.328 53.06 207.969 55.4559C207.969 56.2546 208.129 56.8935 208.289 57.6922C208.289 58.6506 209.89 58.4908 210.05 57.6922C210.21 57.213 210.21 56.8935 210.21 56.4143C210.21 56.7338 210.21 57.0533 210.21 57.3727C210.37 58.6506 212.45 58.6506 212.29 57.3727C212.29 56.8935 212.45 56.5741 212.45 56.0949C213.09 55.9351 213.25 55.1365 212.77 54.6573C214.05 51.6224 217.891 50.9835 221.731 51.7821C223.811 52.2613 225.572 53.2197 226.852 54.3378C225.732 54.4976 224.452 54.817 223.491 55.2962C221.091 56.4143 218.851 58.4908 218.691 60.8868C218.211 63.9217 221.091 65.6787 223.811 66.4774C223.651 67.5955 223.812 68.5539 223.972 69.5122C224.292 70.9498 226.372 70.3109 226.212 68.8733C225.732 65.9982 226.532 63.2828 230.052 64.2411C230.372 64.4009 231.013 64.5606 231.493 64.8801C230.052 65.9982 225.732 70.3109 229.732 71.2693C230.372 71.429 231.013 71.429 231.653 71.2693C231.653 72.3874 231.653 73.3458 231.973 74.3042C232.293 75.7418 234.533 75.1028 234.213 73.6652C234.053 72.7069 234.213 71.5888 234.213 70.4706C235.013 69.9914 235.653 69.3525 236.133 68.5539C236.773 67.4358 236.613 66.3176 235.813 65.3592C235.973 65.3592 236.133 65.3592 236.293 65.3592C240.134 64.2411 242.694 65.9982 242.374 69.8317C242.374 71.429 241.574 72.8666 240.614 74.1444C239.494 75.7418 237.413 76.3807 236.133 77.6585C235.973 78.1377 235.973 78.7766 236.453 78.7766C241.574 79.735 244.935 72.7069 244.935 68.8733C244.935 65.0398 242.054 62.8036 238.694 62.8036C239.654 62.0049 240.294 61.0465 240.934 60.0881C244.294 60.4076 246.695 62.9633 247.815 66.9566C248.455 69.3525 248.295 71.9082 247.815 74.4639C247.655 74.7834 247.495 75.1028 247.495 75.4223C244.774 77.8183 242.374 80.6934 241.094 83.2491C240.454 83.5686 239.814 83.888 239.174 84.3672C239.014 84.3672 239.014 84.5269 238.854 84.5269C236.933 83.0894 234.693 82.4504 231.973 81.9713C232.133 81.9713 232.133 81.8115 232.133 81.6518C232.613 75.1028 227.972 71.9082 221.571 71.2693C212.61 70.3109 201.728 74.6236 195.167 67.276C195.327 67.276 195.327 67.276 195.487 67.276C205.409 65.8384 212.93 63.7619 221.891 69.8317C222.371 70.1512 223.171 69.3525 222.851 68.8733C219.971 63.9217 214.69 62.9633 209.249 63.123C209.249 62.9633 209.249 62.8036 209.249 62.8036C206.209 54.6573 200.768 54.0184 194.527 55.4559C192.287 52.7405 188.446 51.9419 184.766 51.9419C182.526 50.3446 179.325 49.7056 176.765 49.0667C172.924 48.2681 169.084 48.4278 165.403 49.5459C164.763 49.7056 164.603 50.3446 164.763 50.8237C163.803 51.1432 162.843 51.6224 161.883 51.9419C162.043 51.7821 162.043 51.6224 161.723 51.4627C158.362 48.7473 152.441 49.0667 148.281 50.1848C136.279 50.5043 131.318 67.276 118.837 68.0747C119.157 67.7552 119.477 67.4358 119.797 66.9566C122.197 64.2411 124.277 61.2062 126.838 58.6506C130.838 54.4976 135.319 53.06 140.44 51.1432C141.08 50.8238 141.08 49.8654 140.28 49.8654C136.119 49.5459 132.599 50.8237 129.398 52.9002C129.718 52.4211 129.398 51.7821 128.758 51.7821C122.997 50.9835 116.916 55.2962 112.916 58.6506C110.675 60.4076 108.595 62.6438 106.995 65.0398C107.315 61.6854 107.315 58.3311 107.315 54.6573C107.315 53.6989 106.195 53.3794 105.555 54.0184C101.554 57.5324 96.1133 64.5606 94.6731 71.2693C93.0729 65.519 90.6725 59.6089 86.0319 55.9351C85.3918 55.4559 84.4317 55.6157 84.1116 56.4143C81.8713 64.2411 84.5917 72.0679 90.0325 78.1377C89.8724 77.978 89.7124 77.978 89.7124 77.978C85.5518 76.5404 81.0712 77.3391 77.5507 79.4156C81.3912 75.582 82.6714 69.1928 82.6714 64.4009C82.8314 63.7619 82.1913 63.123 81.5512 63.2828C73.5501 63.6022 71.1498 73.6653 72.59 79.8947C72.75 80.3739 73.07 80.5337 73.5501 80.5337C73.07 81.3323 74.0302 82.131 74.8303 81.6518C74.8303 81.6518 74.9903 81.6518 74.9903 81.4921C74.0302 82.4504 73.2301 83.5686 72.59 84.6867C72.59 77.978 70.6697 70.9498 70.3497 64.4009C70.3497 63.4425 69.2295 62.8036 68.4294 63.6022C62.3485 69.9914 62.9886 80.2142 70.0296 85.8048C70.0296 86.4437 70.1896 87.0826 70.1896 87.7216C65.869 82.131 60.4282 77.3391 52.5871 77.6585C51.787 77.8182 51.1469 78.4572 51.467 79.2558C51.467 79.5753 51.627 79.8947 51.787 80.2142C51.3069 80.5337 51.1469 81.3323 51.787 81.8115C52.1071 82.131 52.5871 82.4504 53.0672 82.7699C54.0273 84.6867 55.4675 86.284 56.9077 87.7216C56.2677 87.4021 55.6276 87.2424 54.8274 87.2424C52.5871 86.9229 49.8667 87.7216 48.2665 89.3189C50.5068 78.9364 48.5866 68.7136 44.1059 58.97C43.9459 58.6506 43.4658 58.3311 43.1458 58.4908C42.9858 58.4908 42.6657 58.4908 42.5057 58.4908C42.0256 58.4908 41.5456 58.8103 41.3855 59.1298C39.1452 67.7552 38.5051 76.0612 41.7056 83.7283C40.1053 82.131 38.1851 80.5337 36.4248 79.0961C33.3844 76.5404 30.0239 74.3042 26.0233 73.0263C25.2232 72.7069 24.5831 73.5055 24.7432 74.3042C25.8633 81.4921 33.5444 85.3256 39.9453 87.5618C40.1054 87.5618 40.1054 87.5618 40.1054 87.5618C38.8252 87.5618 37.705 87.8813 36.5848 88.2007C33.0643 89.4786 30.0239 91.8746 28.4237 95.0692C27.9436 95.8678 27.6236 96.9859 27.6236 97.9443C23.9431 92.5135 17.3821 89.9578 12.1014 85.6451C11.3013 85.0061 10.1811 85.4853 10.1811 86.4437C9.70102 94.9094 18.1822 99.7014 25.2232 102.736C21.8628 102.257 18.6623 104.014 16.582 108.007C14.6617 112.001 15.6219 115.515 18.1822 117.751C16.742 119.029 15.9419 121.105 15.9419 123.821C16.1019 127.814 18.5023 131.168 21.8628 132.766C15.3018 130.529 6.82062 130.21 0.899772 132.446C-0.0603643 132.766 -0.38041 134.043 0.579727 134.682C7.46071 138.676 17.2221 138.995 24.5831 135.801C24.7432 135.801 24.9032 135.801 25.0632 135.801C17.8622 142.349 13.3815 151.774 13.7016 161.357C13.7016 162.316 14.9818 162.795 15.7819 162.156C23.783 154.808 29.5438 146.982 30.344 136.759C30.664 136.28 30.824 135.96 31.1441 135.481C32.1042 138.356 34.3445 140.592 37.2249 142.03C38.1851 142.509 39.4653 142.829 40.5854 142.829C34.3445 146.982 30.1839 153.531 28.2637 161.038C28.1036 161.677 28.4237 162.316 29.0638 162.476C37.865 164.392 43.7859 156.725 46.9863 149.058C47.1464 150.017 47.3064 150.975 47.4664 152.093C47.1464 152.093 46.8263 152.253 46.6663 152.572C43.6259 159.121 42.1856 165.83 42.6657 173.018C42.8257 174.296 44.746 174.775 45.0661 173.337C45.8662 170.622 46.8263 167.587 47.7864 164.552C48.7466 166.788 50.1868 168.705 52.1071 170.302C51.787 170.462 51.627 170.782 51.627 171.261C52.4271 174.455 53.5473 177.331 54.8274 180.206C54.6674 180.365 54.6674 180.365 54.6674 180.525C52.2671 188.192 53.2272 195.7 55.6276 202.887C55.3075 202.887 54.9875 203.047 54.8274 203.367C52.2671 209.596 52.7472 214.867 55.1475 220.777C54.9875 220.777 54.8274 220.937 54.6674 221.097C51.947 227.167 52.1071 232.438 54.9875 238.348C52.5871 244.577 52.9072 250.168 55.9476 256.397C55.4675 263.106 53.2272 271.252 55.9476 277.641C47.7864 278.28 39.6253 278.919 31.7842 277.641C30.664 277.322 30.1839 278.919 31.3041 279.239C50.3468 284.51 70.0296 276.843 89.3924 281.954C90.3525 282.274 90.9926 280.836 90.0325 280.357C82.8314 277.322 75.1503 276.683 67.3092 276.843C67.3092 276.044 67.3092 275.086 67.3092 274.287C68.9095 269.974 68.9094 265.023 67.7893 260.55C68.1093 259.113 67.9493 257.675 67.7893 256.397C68.5894 253.362 68.7494 250.168 68.2694 246.973C68.4294 246.973 68.5894 246.813 68.5894 246.494C68.7494 244.258 68.4294 242.021 67.7893 239.945C69.7096 235.153 68.9095 229.722 67.6293 224.611C67.7893 224.611 67.7893 224.291 67.7893 224.132C66.8292 219.979 65.2289 216.145 63.6287 212.631C63.7887 212.471 63.9487 212.471 64.1088 212.312C66.9892 205.922 66.1891 200.012 64.2688 194.262C66.8292 188.671 65.869 181.484 64.4288 175.573C64.2688 175.414 64.2688 175.414 64.1088 175.254C67.9493 175.414 71.7899 174.455 74.9903 172.059C74.9903 172.379 74.9903 172.698 74.9903 173.178C70.6697 178.449 68.2694 184.998 68.7494 191.866C68.9095 192.824 70.0296 193.304 70.8297 192.665C73.8702 189.79 75.6304 186.275 76.4305 182.602C77.5507 187.234 79.951 191.547 84.5917 194.102C85.2318 194.581 85.8719 194.262 86.1919 193.783C89.7124 189.151 89.3924 183.879 86.992 179.247C89.3924 180.365 92.2728 180.845 94.9932 180.525C95.6333 180.365 95.9533 179.567 95.7933 179.088C94.5131 174.935 90.6725 171.42 86.3519 170.462C92.4328 168.865 95.7933 162.795 94.033 156.885C93.713 156.086 92.4328 156.246 92.4328 157.204C91.9527 162.635 90.8326 167.906 84.2716 168.705C83.3115 168.865 82.5114 168.865 81.5512 168.705C81.3912 168.066 80.7511 168.066 80.4311 168.386C79.791 168.386 79.1509 168.226 78.6708 167.906C79.1509 167.108 78.0308 166.469 77.3907 166.948C77.3907 167.108 77.2306 167.108 77.2306 167.267C75.6304 166.469 74.3502 165.351 73.2301 164.073C76.9106 162.955 78.9909 159.76 79.3109 156.566C83.6315 155.447 86.512 152.253 85.3918 147.461C85.0718 146.662 84.7517 146.023 84.4317 145.384C84.2716 144.426 84.1116 143.308 83.6315 142.509C84.4317 141.711 85.0718 140.912 85.3918 139.794C87.7921 141.231 89.8724 143.468 91.3126 145.864C92.2728 147.141 92.9129 148.739 92.9129 150.336C92.9129 151.294 92.2728 151.933 91.6327 152.413C91.3126 151.294 90.8326 150.017 90.3525 149.058C90.0325 148.1 88.2722 148.898 88.5923 149.857C89.0723 151.135 89.3924 152.413 89.5524 153.69C89.3924 153.69 89.2323 153.85 89.0723 154.01C88.7523 154.329 88.9123 154.808 89.3924 154.968C89.5524 154.968 89.5524 154.968 89.5524 154.968C89.5524 156.246 89.3924 157.684 89.0723 159.121C88.9123 159.441 89.3924 159.92 89.8724 159.6C91.6327 158.482 92.1128 156.725 91.9527 154.808C95.9533 154.329 97.7135 150.336 97.2335 146.662C96.5934 142.349 92.5928 138.196 88.5923 136.28C87.6321 135.96 86.672 137.238 87.6321 137.717C90.8326 139.315 93.2329 142.19 94.5131 145.384C95.1532 146.822 95.3132 148.1 94.9932 149.058C94.9932 148.419 94.8331 147.78 94.6731 147.301C93.2329 143.468 89.7124 139.954 85.7118 138.196C85.8719 137.238 86.0319 136.28 85.8719 135.321C85.3918 132.127 83.3115 128.772 80.7511 126.376C81.2312 126.536 81.5513 126.856 82.0313 127.015C85.0718 128.133 88.4322 127.495 90.9926 125.578C91.6327 125.099 92.2728 124.3 92.7528 123.501C93.0729 132.286 95.4732 142.509 103.474 146.343C104.274 146.822 105.235 146.343 105.235 145.384C106.035 136.28 106.515 125.578 99.7938 118.39C101.234 118.55 102.674 118.55 104.435 118.07C107.155 117.431 109.555 115.515 110.675 112.959C111.796 110.563 111.476 106.889 109.235 104.972C111.315 103.215 112.436 100.66 112.756 97.9443C113.876 98.9027 114.836 100.021 114.836 101.618C114.996 103.695 112.276 104.972 110.835 106.091C110.195 106.57 110.835 107.368 111.476 107.209C114.356 106.73 116.916 104.493 117.076 101.618C117.076 99.2222 114.836 97.3054 112.756 96.1873C112.756 95.2289 112.596 94.4303 112.436 93.6316C111.155 88.9994 107.635 85.1659 103.154 83.4088C108.275 81.1726 112.916 78.2974 117.236 74.7834C117.876 74.1444 117.396 72.8666 116.436 72.8666C115.476 73.0263 114.676 73.1861 113.876 73.1861C114.996 72.2277 115.956 71.2693 117.076 70.1512C117.876 70.3109 118.517 70.3109 119.157 70.3109C119.157 70.4706 118.997 70.6304 119.157 70.7901C128.118 102.417 142.36 133.405 163.643 159.121C179.165 177.81 204.929 197.616 231.333 198.415C232.133 202.568 235.493 206.082 239.654 207.2C224.612 226.048 209.249 246.494 203.969 269.815C203.809 270.933 205.249 271.252 205.569 270.294C213.73 248.57 225.572 230.681 238.854 212.312C234.053 224.291 229.572 236.91 227.172 249.05C226.852 250.168 228.612 250.647 228.932 249.529C232.933 234.993 241.894 219.979 244.134 204.964C244.454 204.644 244.614 204.325 244.774 204.006C244.935 203.846 244.935 203.686 244.935 203.526C245.735 203.367 246.375 203.047 246.855 202.568C245.735 205.603 245.255 208.638 247.015 211.673C247.495 212.631 248.135 213.43 248.775 214.228C251.015 220.298 247.175 226.208 249.735 231.958C245.735 238.188 240.454 245.376 246.375 251.925C245.095 254.161 244.614 256.397 247.655 257.675C247.975 257.835 248.295 257.835 248.615 257.995C246.855 263.106 244.774 273.169 249.255 277.482C233.413 275.884 217.891 272.211 201.888 273.169C179.645 274.287 157.722 285.149 135.799 276.204C134.519 275.725 133.559 277.322 134.679 277.801C152.441 285.628 173.084 280.357 191.327 277.003C218.051 272.211 243.334 284.35 269.578 280.037C270.698 279.878 270.378 278.121 269.258 278.121C263.657 278.6 258.056 278.28 252.456 277.801C250.535 274.766 249.255 272.53 248.935 268.856C248.775 265.342 249.575 261.828 250.535 258.633C252.456 259.113 253.896 259.592 255.656 261.828C259.337 266.78 255.976 271.412 254.056 276.044C253.736 276.843 254.856 277.322 255.336 276.843C259.657 272.211 261.097 266.301 257.736 260.71C256.616 258.953 255.016 257.356 252.936 256.717C249.895 255.758 247.335 255.758 248.135 253.043C249.895 253.842 252.296 253.522 253.896 253.522C255.656 253.522 257.256 253.362 259.017 253.682C262.057 254.001 261.737 256.876 261.417 259.432C261.257 258.633 260.937 257.995 260.777 257.356C260.297 256.397 258.696 256.717 259.017 257.835C259.977 260.55 260.297 263.425 260.137 266.301C259.977 269.335 258.376 271.891 257.736 274.766C257.576 275.405 258.376 275.884 259.017 275.405C262.697 272.211 263.017 266.62 262.057 261.828C262.377 261.828 262.537 261.668 262.697 261.509C265.097 257.196 264.457 251.605 258.536 251.126C255.496 250.966 251.976 251.765 249.095 250.807C249.255 250.168 248.295 249.689 247.655 250.168C242.694 246.813 248.135 238.507 251.335 233.715C251.815 233.875 252.296 234.195 252.616 234.514C258.536 237.709 256.936 242.98 255.496 248.411C255.176 249.209 256.456 249.689 256.936 249.05C259.337 245.376 261.097 239.146 258.056 235.313C258.216 235.313 258.216 235.313 258.216 235.313C259.817 233.556 260.137 231.16 259.977 228.924C260.617 227.167 260.617 225.569 259.977 223.972C264.457 219.18 266.538 212.152 261.897 206.721C261.257 206.082 259.657 205.124 258.856 204.804C252.936 201.45 253.416 196.658 254.376 191.387C255.016 188.352 254.856 185.956 254.056 183.72C259.177 188.671 258.856 194.422 260.617 200.971C260.777 201.769 262.057 201.61 262.057 200.811C262.217 195.7 262.057 192.345 260.937 189.47C261.257 189.63 261.417 189.949 261.577 190.109C263.337 199.214 267.178 208.957 275.179 214.228C275.819 214.708 276.619 214.388 276.939 213.909C282.38 204.485 274.059 193.144 264.937 187.713C266.057 186.914 267.018 185.956 267.818 185.477C269.578 183.879 271.338 182.442 273.098 180.845C273.739 180.206 273.259 178.768 272.138 178.928C269.578 178.928 266.698 179.567 264.137 180.365C265.577 176.053 265.737 171.74 264.617 167.427C267.818 172.219 272.618 175.893 278.379 177.011V177.011Z" fill="#7D91A9"/>
</svg>
