<svg width="315" height="315" viewBox="0 0 315 315" fill="none" xmlns="http://www.w3.org/2000/svg">
<path fill-rule="evenodd" clip-rule="evenodd" d="M160.699 230.619C160.475 229.88 160.252 229.264 160.029 228.525C160.14 228.525 160.14 228.402 160.14 228.279C162.598 221.26 168.071 218.674 176.56 220.767C184.156 232.343 165.279 244.534 160.699 230.619ZM300.324 205.743C298.09 205.743 298.09 209.561 300.324 209.561C302.559 209.561 302.559 205.743 300.324 205.743ZM290.83 205.99C288.931 205.99 288.931 209.315 290.83 209.315C292.841 209.315 292.841 205.99 290.83 205.99ZM287.479 194.537C285.245 194.537 285.245 198.478 287.479 198.478C289.713 198.478 289.713 194.537 287.479 194.537ZM24.7593 204.143C22.4136 204.143 22.4136 208.206 24.7593 208.206C26.9933 208.206 26.9933 204.143 24.7593 204.143ZM231.294 60.6802C233.192 60.6802 233.192 57.4784 231.294 57.4784C229.395 57.4784 229.395 60.6802 231.294 60.6802ZM231.964 77.3046C233.974 77.3046 233.974 73.7334 231.964 73.7334C229.841 73.7334 229.841 77.3046 231.964 77.3046ZM238.666 87.6486C241.57 87.6486 241.57 82.846 238.666 82.846C235.873 82.846 235.873 87.6486 238.666 87.6486ZM32.8017 138.876C34.4772 138.876 34.4772 136.044 32.8017 136.044C31.2379 136.044 31.2379 138.876 32.8017 138.876ZM38.9453 150.329C40.8442 150.329 40.8442 147.127 38.9453 147.127C37.0463 147.127 37.0463 150.329 38.9453 150.329ZM114.12 48.9815C116.242 48.9815 116.242 45.4103 114.12 45.4103C111.997 45.4103 111.997 48.9815 114.12 48.9815ZM122.944 43.1937C124.396 43.1937 124.396 40.6077 122.944 40.6077C121.38 40.6077 121.38 43.1937 122.944 43.1937ZM123.614 158.333C125.29 158.333 125.29 155.501 123.614 155.501C121.827 155.501 121.827 158.333 123.614 158.333ZM141.821 158.456C143.609 158.456 143.609 155.378 141.821 155.378C140.034 155.378 140.034 158.456 141.821 158.456ZM147.295 158.333C144.502 158.333 144.502 163.013 147.295 163.013C150.087 163.013 150.087 158.333 147.295 158.333ZM177.566 212.886V213.502C177.566 216.58 181.922 216.58 181.922 213.502V212.886C181.922 209.807 177.566 209.807 177.566 212.886ZM160.14 186.164C162.039 186.164 162.039 182.962 160.14 182.962C158.241 182.962 158.241 186.164 160.14 186.164ZM191.305 194.045C189.294 194.045 189.294 197.493 191.305 197.493C193.315 197.493 193.315 194.045 191.305 194.045ZM166.284 258.08C164.162 258.08 164.162 261.774 166.284 261.774C168.406 261.774 168.406 258.08 166.284 258.08ZM165.614 248.844C163.045 248.844 163.045 253.154 165.614 253.154C168.071 253.154 168.071 248.844 165.614 248.844ZM134.449 224.708C133.444 224.708 133.444 226.432 134.449 226.432C135.455 226.432 135.455 224.708 134.449 224.708ZM142.603 217.073C140.369 217.073 140.369 220.644 142.603 220.644C144.726 220.644 144.726 217.073 142.603 217.073ZM139.923 226.185C138.582 226.678 137.912 228.402 138.582 229.757C139.476 231.357 141.598 231.357 142.38 229.757C143.385 228.033 141.821 225.693 139.923 226.185ZM120.933 146.881C118.699 146.881 118.699 150.575 120.933 150.575C123.056 150.575 123.056 146.881 120.933 146.881ZM46.4292 243.795C44.0835 243.795 44.0835 247.736 46.4292 247.736C48.6632 247.736 48.6632 243.795 46.4292 243.795ZM40.9559 250.814C39.057 250.814 39.057 254.139 40.9559 254.139C42.8548 254.139 42.8548 250.814 40.9559 250.814ZM49.11 197.493C47.6579 197.493 47.6579 199.956 49.11 199.956C50.5621 199.956 50.5621 197.493 49.11 197.493ZM79.6042 201.433C77.4819 201.433 77.4819 205.005 79.6042 205.005C81.7266 205.005 81.7266 201.433 79.6042 201.433ZM233.974 199.956C231.964 199.956 231.964 203.404 233.974 203.404C235.985 203.404 235.985 199.956 233.974 199.956ZM233.304 211.408C230.623 211.408 230.623 215.964 233.304 215.964C235.985 215.964 235.985 211.408 233.304 211.408ZM242.129 207.098C244.809 207.098 244.809 202.295 242.129 202.295C239.336 202.295 239.336 207.098 242.129 207.098ZM258.325 151.807C260.224 151.807 260.224 148.605 258.325 148.605C256.426 148.605 256.426 151.807 258.325 151.807ZM250.953 166.83C252.963 166.83 252.963 163.382 250.953 163.382C248.831 163.382 248.831 166.83 250.953 166.83ZM242.799 154.146C240.453 154.146 240.453 158.21 242.799 158.21C245.144 158.21 245.144 154.146 242.799 154.146ZM247.49 149.959C244.586 149.959 244.586 155.008 247.49 155.008C250.506 155.008 250.506 149.959 247.49 149.959ZM187.954 66.9605C190.188 66.9605 190.188 63.143 187.954 63.143C185.72 63.143 185.72 66.9605 187.954 66.9605ZM114.79 65.9753C116.689 65.9753 116.689 62.6505 114.79 62.6505C112.891 62.6505 112.891 65.9753 114.79 65.9753ZM123.614 75.8268C126.63 75.8268 126.63 70.7779 123.614 70.7779C120.598 70.7779 120.598 75.8268 123.614 75.8268ZM237.325 252.908C235.315 252.908 235.315 256.479 237.325 256.479C239.448 256.479 239.448 252.908 237.325 252.908ZM225.15 246.011C222.804 246.011 222.804 249.952 225.15 249.952C227.496 249.952 227.496 246.011 225.15 246.011ZM219.118 252.661C216.661 252.661 216.661 256.725 219.118 256.725C221.464 256.725 221.464 252.661 219.118 252.661ZM219.006 243.302C219.006 243.179 219.118 243.179 219.118 243.179C219.453 242.563 219.453 241.455 219.118 240.963C219.118 240.839 219.006 240.839 219.006 240.716C217.778 238.869 214.762 239.362 214.762 242.071C214.762 244.657 217.778 245.149 219.006 243.302ZM237.996 206.113C238.889 206.113 238.889 204.758 237.996 204.758C237.214 204.758 237.214 206.113 237.996 206.113ZM235.315 159.565C237.549 159.565 237.549 155.747 235.315 155.747C233.081 155.747 233.081 159.565 235.315 159.565ZM240.788 162.643C237.772 162.766 237.772 167.446 240.788 167.692C241.57 167.692 242.129 167.569 242.799 167.199C244.251 166.337 244.251 163.875 242.799 163.013C242.129 162.643 241.57 162.52 240.788 162.643V162.643ZM219.788 107.352C222.022 107.352 222.022 103.534 219.788 103.534C217.554 103.534 217.554 107.352 219.788 107.352ZM172.986 128.04C171.534 128.04 171.534 130.626 172.986 130.626C174.55 130.626 174.55 128.04 172.986 128.04V128.04ZM167.177 136.66C169.635 138.261 171.645 135.921 170.305 133.212C168.406 129.641 163.826 134.566 167.177 136.66ZM60.6152 146.388C62.179 146.388 62.179 143.556 60.6152 143.556C58.9396 143.556 58.9396 146.388 60.6152 146.388ZM68.7693 246.997C69.3278 246.997 69.3278 246.011 68.7693 246.011C68.0991 246.011 68.0991 246.997 68.7693 246.997ZM53.1312 259.065C51.2323 259.065 51.2323 262.39 53.1312 262.39C55.1418 262.39 55.1418 259.065 53.1312 259.065ZM68.7693 257.094C66.2002 257.094 66.2002 261.281 68.7693 261.281C71.2267 261.281 71.2267 257.094 68.7693 257.094ZM70.1097 139.123C67.5406 139.123 67.5406 143.433 70.1097 143.433C72.6788 143.433 72.6788 139.123 70.1097 139.123ZM81.6149 141.093C78.8223 141.093 78.8223 145.772 81.6149 145.772C84.2957 145.772 84.2957 141.093 81.6149 141.093ZM175.555 95.653C175.555 96.8844 177.231 96.8844 177.231 95.653C177.677 86.7866 180.917 79.5211 183.039 71.2705C183.262 70.5317 182.369 70.1622 182.034 70.7779C177.454 77.674 175.555 87.2792 175.555 95.653ZM144.391 120.282C145.508 110.43 143.497 99.8399 138.359 91.5892C138.024 90.9735 136.907 91.3429 137.13 92.205C139.923 101.687 143.162 110.061 143.385 120.282C143.497 121.021 144.279 121.021 144.391 120.282V120.282ZM209.065 119.789C207.055 121.636 206.273 125.331 208.618 127.301C210.741 129.025 213.757 127.424 215.209 125.577C218.113 122.006 218.113 115.356 213.645 113.263C210.182 111.662 205.602 112.893 202.922 115.849C199.124 120.035 202.14 125.454 205.491 128.532C206.496 129.394 207.836 128.04 206.831 127.055C204.597 124.838 201.916 121.267 204.039 117.942C205.602 115.602 208.842 114.74 211.299 114.987C214.203 115.233 215.544 117.819 215.097 120.897C214.65 123.237 213.31 125.7 210.852 125.7C208.06 125.823 209.847 122.006 210.294 120.528C210.517 119.789 209.624 119.297 209.065 119.789V119.789ZM179.8 154.516C179.465 155.255 180.805 155.87 181.14 155.131C186.055 143.31 194.097 134.566 201.47 124.715C202.14 123.73 201.023 122.498 200.129 123.36C191.416 131.488 183.821 142.694 179.8 154.516ZM96.3593 166.707C98.8167 169.293 101.162 171.879 103.508 174.588C104.067 175.327 104.96 174.342 104.402 173.603C102.279 170.648 100.157 167.815 97.8114 165.106C95.6891 162.766 93.4551 159.934 90.7743 158.579C90.2158 158.21 89.4339 158.826 89.8807 159.565C91.4445 162.274 94.237 164.49 96.3593 166.707V166.707ZM81.95 244.78C80.1628 250.322 85.7478 255.617 90.4392 255.617C91.4445 255.617 91.4445 253.893 90.4392 253.77C86.9765 253.523 83.2904 249.829 83.8489 245.765C84.2957 242.317 89.8807 240.716 92.1147 242.933C93.5668 244.411 93.6785 247.243 93.0083 248.967C91.8913 251.553 90.3275 247.736 89.5456 246.75C89.0988 246.258 88.3169 246.627 88.4286 247.243C88.652 250.568 92.003 254.508 94.4604 250.814C96.3593 248.105 95.6891 243.302 93.4551 241.086C89.9924 237.884 83.2904 240.224 81.95 244.78V244.78ZM214.538 251.676C209.959 250.937 204.374 254.385 200.688 256.971C196.443 259.804 192.98 263.991 191.752 269.409C191.416 270.64 193.204 271.256 193.539 269.901C194.991 264.729 198.565 261.158 202.698 258.326C206.496 255.863 210.964 255.494 214.762 253.154C215.209 252.908 215.209 251.799 214.538 251.676V251.676ZM97.3646 250.198C96.5827 249.952 95.9125 251.307 96.8061 251.676C104.625 255.863 114.231 255.247 119.705 263.99C120.152 264.729 121.157 264.114 120.71 263.375C115.907 254.508 106.077 251.799 97.3646 250.198ZM123.503 241.825C124.061 242.933 125.625 241.948 125.066 240.716C119.593 230.126 110.434 220.274 100.157 215.349C99.4869 215.102 99.0401 215.964 99.5986 216.457C108.758 223.969 117.247 230.988 123.503 241.825ZM228.948 170.771C226.714 171.51 227.161 168.061 226.267 166.83C226.044 166.584 225.597 166.584 225.373 166.83C224.145 168.185 224.703 170.894 225.82 172.125C226.714 173.234 228.166 173.48 229.506 173.234C232.075 172.495 234.309 169.17 232.299 166.707C229.283 163.013 223.698 162.643 220.459 165.968C218.895 167.446 218.56 169.662 218.783 171.756C218.895 172.741 219.342 174.096 220.012 175.204C206.273 185.055 192.645 203.773 187.73 220.89C187.395 221.875 188.959 222.614 189.406 221.629C196.89 202.911 208.842 190.843 221.241 176.558C221.687 176.805 222.246 176.805 222.916 176.435C223.251 176.312 223.475 175.82 223.475 175.45C223.363 174.342 222.358 173.726 221.911 172.864C221.799 172.618 221.576 172.495 221.464 172.372C220.794 170.524 220.794 168.554 222.693 167.076C225.15 165.352 228.389 166.337 230.512 168.308C231.629 169.293 229.73 170.524 228.948 170.771ZM239.895 124.222C240.23 124.099 240.341 123.853 240.341 123.483C242.129 122.745 243.916 121.883 245.48 120.774C245.368 121.021 245.256 121.267 245.256 121.513C245.033 122.129 245.256 122.498 245.591 122.745C239.895 125.084 234.421 128.779 229.395 132.104C228.389 132.842 229.395 134.566 230.4 133.951C237.102 129.518 244.474 126.685 251.288 122.498C252.07 122.006 251.511 120.774 250.729 121.021C250.394 121.144 250.059 121.144 249.836 121.267C252.852 119.789 255.979 119.173 259.442 119.173C260.783 119.297 262.011 119.42 263.24 119.789C262.346 120.405 261.453 121.021 260.559 121.636C260.559 121.513 260.447 121.513 260.336 121.513C258.548 122.129 256.873 122.991 255.086 123.73C255.086 123.73 254.974 123.73 254.862 123.73C246.038 125.7 237.437 131.365 228.948 134.936C227.831 135.428 228.278 137.522 229.506 137.029C232.075 135.921 234.756 134.936 237.549 133.828C236.99 134.197 236.432 134.443 235.873 134.813C233.974 135.921 232.075 136.906 230.065 138.014C228.948 138.753 229.953 140.477 231.07 139.862C238.442 136.044 245.703 131.857 252.74 127.301C252.74 127.301 252.74 127.301 252.628 127.301C248.607 130.38 244.251 132.842 240.453 136.167C239.894 136.537 240.118 137.645 240.9 137.399C242.464 136.906 243.916 136.167 245.368 135.428C243.916 136.414 242.464 137.522 241.123 138.876C235.873 139.862 230.512 140.6 225.597 141.462C225.485 141.462 225.485 141.586 225.373 141.586C226.602 138.261 227.272 134.69 227.943 131.118C231.964 129.025 235.873 126.562 239.895 124.222V124.222ZM229.06 123.853C231.294 122.375 233.304 120.405 235.315 118.558C238.554 115.479 241.682 112.401 244.698 109.076C245.48 108.214 244.363 106.982 243.581 107.721C240.788 110.677 237.884 113.386 234.868 116.095C233.192 117.696 231.294 119.173 229.618 120.774C229.953 118.804 230.4 116.834 230.847 115.11C230.847 114.987 230.847 114.987 230.847 114.987C231.182 114.863 231.517 114.617 231.74 114.371C231.405 114.987 231.07 115.602 230.735 116.218C230.512 116.834 230.958 117.573 231.517 117.203C233.863 115.602 235.762 113.016 237.772 111.046C240.118 108.706 242.464 106.366 244.809 103.904C245.033 103.534 245.033 103.288 245.033 103.042C245.256 102.795 245.591 102.672 245.926 102.426C246.708 101.81 246.038 100.332 245.144 100.948C242.017 102.795 239.113 104.889 236.432 107.352C235.091 108.46 233.751 109.445 232.411 110.677C234.533 105.258 237.996 99.8399 243.357 99.2242C252.293 97.9927 248.831 110.8 247.714 114.494C247.155 115.972 246.597 117.449 246.038 118.927C242.799 119.42 239.336 120.774 236.097 122.498C236.208 122.375 236.32 122.252 236.544 122.129C240.341 118.681 244.027 115.233 247.49 111.415C248.384 110.43 247.043 108.953 246.15 109.815C243.022 113.263 239.671 116.341 236.208 119.42C233.863 121.513 231.07 123.483 228.724 125.823C228.836 125.207 228.948 124.592 229.06 123.853V123.853ZM264.469 120.159C265.251 120.528 265.921 121.021 266.591 121.39C264.469 123.237 262.458 124.838 260.336 126.685C258.213 128.532 255.421 130.503 254.304 133.335C253.969 134.074 254.639 135.059 255.421 134.566C257.543 132.966 259.219 130.749 261.229 129.025C263.463 127.055 265.697 125.207 267.931 123.237C268.602 124.592 268.266 126.193 266.814 128.04C266.926 127.055 266.144 126.193 265.251 126.808C262.346 129.148 258.995 131.118 256.65 134.074C256.538 134.197 256.538 134.32 256.538 134.443C253.299 135.798 249.948 136.783 246.485 137.645C248.16 136.537 249.612 135.182 251.176 133.951C254.527 131.242 257.767 128.409 261.006 125.454C261.564 124.961 261.229 124.099 260.671 123.853C261.788 122.868 263.017 121.883 264.134 121.021C264.469 120.774 264.469 120.528 264.469 120.159V120.159ZM223.028 143.433C223.028 144.295 224.145 144.664 224.48 143.925C224.592 143.679 224.703 143.31 224.815 143.063C225.038 143.556 225.485 144.048 226.155 143.925C237.102 141.955 248.719 140.724 258.995 135.798C263.24 133.704 271.506 130.256 271.282 123.73C270.947 113.878 254.416 116.464 248.049 119.789C250.171 114.494 253.299 107.598 250.506 102.549C247.602 97.2539 243.804 95.5298 238.666 98.3621C233.416 101.441 230.623 108.46 228.724 114.494C228.724 114.617 228.613 114.617 228.613 114.74C228.501 114.863 228.501 115.11 228.501 115.233C228.389 115.602 228.278 116.095 228.166 116.464C225.82 124.592 223.028 134.936 223.028 143.433V143.433ZM59.2747 96.8844C61.9556 102.056 64.8598 107.967 68.4342 112.524C68.6576 112.893 69.3278 112.524 69.2161 112.031C67.4289 106.243 63.296 101.194 60.6152 96.0224C60.0567 95.0373 58.8279 95.8993 59.2747 96.8844V96.8844ZM42.9665 123.36C44.1952 124.838 45.3122 126.316 46.5409 127.794C47.5462 129.025 48.6632 130.995 50.1153 131.857C49.8919 131.734 49.6685 131.734 49.4451 131.734C46.5409 131.365 43.7484 128.902 42.7431 125.823C42.408 124.961 42.6314 124.099 42.9665 123.36V123.36ZM44.7537 121.144C44.8654 121.39 44.8654 121.636 45.0888 121.759C46.876 123.853 48.6632 125.946 50.5621 128.04C51.7908 129.271 53.2429 131.118 54.9184 131.98C53.8014 131.98 52.6844 131.98 51.5674 131.98C51.6791 131.734 51.7908 131.611 51.6791 131.365C51.344 129.518 49.5568 128.04 48.4398 126.685C47.0994 124.961 45.6473 123.36 44.1952 121.636C44.4186 121.513 44.642 121.267 44.7537 121.144V121.144ZM47.5462 119.173C47.6579 119.173 47.7696 119.05 47.7696 119.05C49.3334 121.267 50.8972 123.36 52.461 125.577C53.9131 127.547 55.7003 130.256 57.9343 131.611C57.4875 131.611 56.929 131.734 56.4822 131.857C56.5939 131.611 56.5939 131.365 56.4822 131.118C55.5886 129.148 53.578 127.793 52.1259 126.316C50.1153 124.345 48.2164 122.375 46.3175 120.405C46.3175 120.282 46.2058 120.159 46.0941 120.159C46.6526 119.789 47.2111 119.42 47.5462 119.173V119.173ZM51.6791 117.08C51.6791 117.203 51.6791 117.449 51.6791 117.573C52.6844 120.159 53.8014 122.745 55.1418 125.207C55.2535 125.331 55.3652 125.454 55.4769 125.577C54.9184 125.084 54.3599 124.469 53.9131 123.976C52.461 122.006 50.8972 120.159 49.3334 118.188C50.1153 117.819 50.8972 117.449 51.6791 117.08V117.08ZM53.8014 116.218C55.3652 119.05 56.8173 122.006 58.2694 124.838C58.8279 125.946 59.3864 127.178 60.0567 128.409C59.0513 126.931 57.8226 125.577 56.929 124.099C55.4769 121.759 54.2482 119.42 53.2429 116.834C53.1312 116.711 53.0195 116.711 52.9078 116.587C53.2429 116.464 53.4663 116.341 53.8014 116.218V116.218ZM56.929 114.863C58.046 117.696 59.3864 120.405 60.9503 122.991C62.2907 125.331 63.6311 127.917 65.6417 129.641C64.9715 129.887 64.1896 130.133 63.5194 130.256C62.6258 128.04 61.1737 125.823 60.0567 123.73C58.4928 121.021 57.0407 118.188 55.4769 115.479C56.0354 115.356 56.3705 115.11 56.929 114.863V114.863ZM54.4716 101.194C54.4716 101.318 54.5833 101.441 54.5833 101.564C57.7109 105.874 60.8386 110.184 63.9662 114.617C64.9715 116.095 65.9768 117.696 66.9821 119.297C66.4236 118.558 65.8651 117.819 65.3066 117.08C63.296 114.248 61.2854 111.292 59.163 108.583C58.4928 107.721 57.3758 108.953 58.046 109.691C58.6045 110.43 59.163 111.292 59.7215 112.154C59.0513 111.662 57.9343 112.524 58.4928 113.386C61.6205 118.065 64.9715 124.838 69.7746 127.67C70.3331 127.917 71.0033 127.301 70.6682 126.685C70.3331 126.193 69.8863 125.7 69.4395 125.207C69.7746 125.577 70.1097 125.823 70.4448 126.069C70.8916 126.316 71.3384 125.823 71.2267 125.331C71.6735 125.823 72.0086 126.316 72.3437 126.808C72.9022 127.301 73.5724 126.562 73.349 125.946C72.0086 122.621 69.998 119.666 67.8757 116.711C68.4342 117.326 68.9927 117.942 69.6629 118.558C70.2214 119.05 71.0033 118.435 70.6682 117.696C68.5459 113.386 65.3066 109.568 62.7375 105.504C59.8333 100.948 57.1524 96.2687 54.4716 91.5892C54.3599 91.2198 54.1365 91.0967 53.9131 91.0967C55.3652 88.8801 59.7216 93.3133 60.7269 94.6678C66.9821 103.78 71.0033 116.218 74.1309 127.055C71.5618 127.793 68.9927 128.656 66.5353 129.394C66.5353 129.271 66.5353 129.271 66.5353 129.148C65.7534 126.439 63.8545 124.222 62.5141 121.883C60.8386 119.297 59.3864 116.587 58.1577 113.755C58.1577 113.632 58.1577 113.509 58.1577 113.386C58.2694 113.016 58.2694 112.647 58.1577 112.277C56.3705 108.829 55.3652 105.012 54.4716 101.194V101.194ZM54.2482 100.332C53.6897 97.8696 53.3546 95.4067 53.4663 92.9438C55.812 97.6233 58.3811 102.795 61.2854 107.598C59.3864 105.135 57.5992 102.672 55.812 100.332C55.1418 99.4704 54.2482 100.332 54.4716 101.194C54.3599 100.948 54.2482 100.579 54.2482 100.332V100.332ZM59.3864 133.951C64.1896 133.212 71.6735 132.35 75.6947 128.902C76.2532 128.779 76.8117 128.286 76.5883 127.424C74.1309 118.927 70.7799 110.553 67.2055 102.549C64.7481 96.8844 61.6205 89.6189 55.4769 88.1412C46.9877 86.1709 53.9131 108.09 56.0354 112.77C55.3652 113.016 54.8067 113.139 54.1365 113.386C53.6897 113.386 53.3546 113.509 53.1312 113.755C51.344 114.371 49.5568 115.233 47.7696 116.218C47.7696 116.095 47.6579 116.095 47.6579 115.972C46.9877 115.11 45.9824 116.218 46.4292 117.08C41.291 120.405 37.9399 125.331 43.6367 131.242C47.7696 135.552 54.2482 134.69 59.3864 133.951V133.951ZM140.369 60.9264C141.375 58.5867 141.375 55.8775 141.71 53.2915C141.933 50.2129 142.045 47.2575 142.045 44.1789C142.045 42.9475 140.369 42.9475 140.369 44.1789C140.258 46.8881 140.034 49.4741 139.811 52.0601C139.476 54.8924 138.806 57.971 139.252 60.8033C139.364 61.2959 140.146 61.419 140.369 60.9264V60.9264ZM137.13 42.4549C136.013 47.0112 134.896 52.6758 135.455 57.7247C135.455 57.6016 135.455 57.6016 135.455 57.6016C131.657 50.7055 131.992 39.13 141.821 41.3466C142.492 41.4697 143.162 41.716 143.832 41.9623C143.497 41.9623 143.162 42.2086 143.162 42.7012C142.715 47.0112 142.268 51.3212 141.71 55.6313C141.263 58.7099 140.481 61.7884 140.146 64.867C139.029 63.3893 138.024 61.7884 137.018 60.1876C137.465 58.0941 137.465 55.8775 137.465 53.661C137.577 50.0898 137.8 46.5186 138.47 42.9475C138.694 41.8392 137.353 41.4697 137.13 42.4549V42.4549ZM151.986 47.8732C150.087 53.661 147.965 59.3256 146.178 65.1133C145.843 66.2216 144.837 68.4382 145.508 69.6696C146.066 70.7779 147.071 69.7928 147.295 69.0539C147.295 68.9308 147.295 68.8076 147.295 68.6845C147.518 68.0688 147.742 67.4531 147.853 66.9605C148.412 64.7439 149.082 62.6505 149.752 60.557C150.869 56.7396 151.986 53.0452 153.103 49.2278C153.438 49.8435 153.885 50.3361 154.22 50.9518C152.992 55.6313 151.539 60.3107 150.087 64.9902C149.305 67.3299 147.742 70.4085 146.96 73.2408C145.619 71.7631 144.279 70.1622 142.938 68.5614C144.055 65.729 144.837 62.8967 145.619 60.0644C145.731 60.0644 145.731 60.0644 145.731 59.9413C146.401 57.2321 147.183 54.523 147.965 51.8138C148.3 50.8287 146.96 50.4592 146.625 51.4444C145.061 55.6313 143.832 60.0644 142.38 64.2513C142.045 64.9902 141.71 65.8522 141.375 66.5911C144.279 59.4487 144.167 50.2129 144.726 42.7012C144.726 42.4549 144.614 42.3317 144.502 42.2086C147.295 43.44 149.864 45.4103 151.986 47.8732V47.8732ZM155.561 53.2915C155.896 54.0304 156.119 54.6461 156.343 55.2618C154.22 61.6653 151.093 69.6696 150.646 77.0583C150.087 76.5657 149.529 75.95 148.97 75.3343C150.311 72.9945 150.981 69.3002 151.763 66.9605C153.215 62.5273 154.444 57.971 155.561 53.2915V53.2915ZM157.236 81.8609C158.018 80.5063 158.8 79.1517 159.47 77.674C159.694 77.674 159.917 77.674 160.029 77.4277C164.385 68.9308 165.949 58.7099 169.188 49.7204C169.635 48.4889 167.848 47.9963 167.401 49.1046C167.289 49.5972 167.066 49.9666 166.954 50.4592C167.401 48.2426 167.848 46.026 168.406 43.9326C170.417 41.5929 172.874 38.6374 173.433 35.3125C173.656 35.1894 173.991 35.0663 174.215 34.9431C180.358 33.096 180.023 41.2234 179.465 45.4103C178.124 54.523 173.544 62.7736 168.406 70.4085C169.3 67.9456 170.193 65.3596 170.975 62.6505C171.199 62.6505 171.422 62.6505 171.534 62.4042C173.991 58.3404 175.778 53.5378 177.789 49.1046C178.236 48.1195 176.895 47.2575 176.449 48.2426C175.332 50.7055 173.991 53.1684 172.874 55.6313C174.438 49.5972 175.778 43.5632 177.231 37.6523C177.454 36.544 175.89 36.1745 175.667 37.1597C171.757 51.8138 167.959 66.0985 161.816 79.6443C160.587 81.3683 159.358 82.9692 158.241 84.6932C157.46 83.9543 156.789 83.2155 156.007 82.5997C156.119 82.3535 156.231 81.984 156.343 81.7377C156.454 82.1072 157.013 82.2303 157.236 81.8609V81.8609ZM159.023 53.4147C160.14 47.5038 163.156 42.9475 167.177 39.13C168.63 37.7754 170.305 36.6671 171.981 35.8051C170.305 38.1448 168.853 40.6077 166.954 42.7012C166.842 42.9475 166.731 43.1937 166.731 43.3169C164.385 52.1832 161.816 61.0496 159.358 69.9159C160.364 63.5125 160.811 56.9858 161.481 50.9518C161.592 50.0898 160.252 49.8435 160.14 50.7055C159.917 52.1832 159.694 53.5378 159.47 55.0155C159.247 54.523 158.688 54.3998 158.241 54.7693V54.6461C158.13 54.523 158.13 54.2767 158.018 54.1535C158.465 54.1535 158.912 53.9072 159.023 53.4147V53.4147ZM153.215 79.7674C153.103 79.6443 152.992 79.5211 152.768 79.398C153.55 76.1963 153.773 72.8714 154.444 69.7928C154.667 69.0539 154.89 68.3151 155.114 67.5762C154.22 71.6399 153.55 75.7037 153.215 79.7674V79.7674ZM140.481 69.3002C140.369 69.5465 140.258 69.7928 140.258 70.0391C139.923 71.0242 141.263 71.7631 141.821 71.1474C144.502 74.5954 147.518 78.0434 150.646 81.122C150.646 81.6146 150.646 81.984 150.757 82.4766C150.869 83.2155 151.763 82.9692 151.986 82.4766V82.3535C152.321 82.7229 152.656 82.9692 152.992 83.3386C152.992 84.2006 152.88 85.0626 152.88 85.9246C152.88 86.4172 153.55 86.6635 153.773 86.2941C153.997 85.6783 154.109 85.0626 154.332 84.57C155.226 85.3089 156.007 85.9246 156.901 86.5403C156.789 86.6635 156.678 86.7866 156.678 86.9098C156.007 87.8949 157.348 89.0032 158.13 88.2644C158.241 88.0181 158.353 87.8949 158.577 87.7718C159.247 88.0181 159.917 87.1561 159.805 86.4172C167.066 78.536 173.098 67.6993 177.677 57.8478C180.135 52.4295 185.05 40.2383 180.358 34.6968C172.316 25.0916 158.8 43.5632 157.348 52.3064C157.013 51.6907 156.678 50.9518 156.343 50.3361C156.454 49.7204 156.007 49.2278 155.561 49.2278C149.305 39.8689 135.343 32.3571 130.986 45.9029C128.641 53.0452 134.673 61.1727 138.359 66.4679C139.029 67.4531 139.699 68.3151 140.481 69.3002V69.3002ZM263.687 222.491C264.245 221.875 263.687 220.89 262.905 221.013C260.783 221.506 258.548 223.599 258.548 226.062C258.437 228.156 260.336 229.387 261.788 230.003C265.474 231.481 271.059 230.126 271.617 225.077C272.623 217.935 265.809 213.132 260.112 216.088C257.431 217.442 255.309 219.905 254.527 223.107C253.634 226.801 255.533 230.126 258.102 232.343C258.437 232.712 258.884 232.958 259.219 233.205C260.224 234.067 261.229 232.219 260.224 231.357C257.99 229.633 256.091 227.171 256.538 224.092C256.873 221.752 258.437 219.782 260.224 218.674C264.58 215.718 269.719 218.797 269.607 224.461C269.495 228.033 265.362 228.402 263.017 227.786C262.235 227.663 261.006 227.171 260.783 226.062C260.447 224.831 263.017 223.23 263.687 222.491V222.491ZM252.628 211.531C251.288 212.393 251.4 214.364 251.4 215.841C251.4 217.073 253.075 217.073 253.075 215.841C253.075 214.61 253.187 213.502 253.522 212.393C253.634 211.778 253.075 211.285 252.628 211.531ZM247.714 226.432C247.49 226.308 247.155 226.432 247.043 226.555C246.038 228.033 247.49 229.88 248.495 230.865C249.836 232.219 251.623 232.958 253.299 233.451C254.639 233.82 255.197 231.604 253.857 231.234C252.517 230.865 251.065 230.249 249.948 229.264C249.054 228.402 248.719 226.801 247.714 226.432ZM257.431 238.007C255.644 238.5 253.969 238.869 252.07 238.746C250.171 238.746 248.831 237.145 247.043 236.899C246.597 236.776 246.038 237.145 246.261 237.761C246.708 239.731 248.831 240.593 250.506 240.963C252.963 241.578 255.644 240.963 257.99 240.101C259.107 239.608 258.66 237.515 257.431 238.007ZM265.921 236.899C264.58 238.5 263.128 239.854 261.341 240.839C259.777 241.825 257.878 241.578 256.203 242.194C255.644 242.317 255.644 243.056 255.979 243.302C259.889 246.135 264.915 241.332 267.038 238.253C267.708 237.268 266.591 235.914 265.921 236.899V236.899ZM272.399 231.111C272.958 233.205 272.734 235.052 271.841 237.022C271.059 238.746 269.607 239.977 268.602 241.701C268.266 242.194 268.825 243.056 269.383 242.687C273.628 240.839 275.415 235.175 274.075 230.619C273.74 229.387 272.176 229.88 272.399 231.111V231.111ZM275.862 223.107C276.756 224.708 277.314 226.308 277.761 228.033C277.984 229.51 277.761 231.111 278.208 232.466C278.319 232.835 278.766 232.958 278.99 232.712C281.447 230.003 279.101 224.461 277.426 222.122C276.756 221.013 275.192 221.998 275.862 223.107ZM277.091 214.979C276.085 214.364 275.192 216.088 276.197 216.826C277.873 218.058 279.213 219.659 280.218 221.629C281.112 223.353 281.335 225.2 282.341 226.678C282.676 227.047 283.123 226.801 283.234 226.432C284.463 222.122 280.218 217.073 277.091 214.979V214.979ZM278.655 210.546C279.101 210.669 279.437 210.054 279.213 209.561C276.979 205.743 270.836 206.729 267.596 208.083C266.368 208.576 266.814 210.792 268.155 210.3C269.83 209.561 271.506 209.315 273.293 209.315C275.192 209.438 276.756 210.546 278.655 210.546V210.546ZM259.442 208.945C259.107 210.054 260.671 210.792 261.229 209.684C262.011 207.96 263.017 206.482 264.469 205.374C265.921 204.389 267.708 204.143 269.383 203.773C269.83 203.773 269.942 202.911 269.495 202.665C265.362 200.448 260.783 204.635 259.442 208.945V208.945ZM50.8972 202.419C50.8972 202.049 50.5621 201.803 50.227 202.049C47.3228 203.527 47.8813 208.576 48.9983 211.162C49.4451 212.393 51.0089 211.285 50.5621 210.177C50.0036 208.576 49.8919 207.098 50.227 205.497C50.4504 204.512 50.8972 203.527 50.8972 202.419V202.419ZM46.9877 216.58C46.2058 215.226 45.4239 213.748 44.9771 212.147C44.4186 210.423 44.8654 208.453 44.1952 206.729C44.0835 206.359 43.525 206.113 43.3016 206.482C40.8442 209.561 43.7484 215.226 45.5356 217.935C45.8707 218.304 46.2058 218.427 46.5409 218.304C45.759 223.23 50.5621 226.924 54.2482 228.033C55.3652 228.402 55.812 226.555 54.8067 226.062C51.6791 224.954 47.8813 222.122 48.7749 218.058C49.3334 215.349 51.7908 213.625 54.1365 213.748C55.9237 213.871 57.5992 215.102 58.6045 216.703C59.7216 218.55 58.3811 220.151 56.929 221.013C56.3705 219.782 56.4822 218.304 55.5886 217.073C55.3652 216.58 54.695 216.826 54.695 217.442C54.4716 219.536 54.4716 221.752 55.812 223.476C56.1471 223.846 56.7056 223.846 57.0407 223.599C59.7215 222.368 61.9556 219.782 60.8386 216.334C59.8333 213.378 56.8173 211.778 54.1365 211.408C51.0089 210.916 48.2164 213.502 46.9877 216.58V216.58ZM44.3069 222.368C42.8548 222.245 41.4027 221.875 40.2857 220.644C39.2804 219.412 39.6155 217.442 38.6101 216.211C38.3867 216.088 38.0516 216.088 37.9399 216.211C36.5995 217.688 37.7165 220.644 38.7218 221.998C40.0623 223.846 42.2963 224.338 44.3069 224.338C45.5356 224.338 45.5356 222.368 44.3069 222.368ZM49.7802 231.357C48.5515 231.357 47.4345 231.234 46.2058 231.111C45.0888 230.865 44.1952 230.249 43.1899 230.126C42.6314 230.003 41.9612 230.619 42.408 231.234C43.9718 233.574 47.4345 233.328 49.7802 233.205C50.8972 233.205 50.8972 231.481 49.7802 231.357V231.357ZM59.8333 232.343C59.6098 234.559 58.7162 236.406 56.929 237.515C55.2535 238.623 53.3546 237.761 51.6791 238.377C51.2323 238.623 51.1206 239.115 51.344 239.485C53.0195 241.455 56.4822 240.47 58.3811 239.362C60.6152 237.884 61.5088 235.052 61.3971 232.343C61.3971 231.234 59.945 231.234 59.8333 232.343V232.343ZM64.413 223.969C63.4077 223.23 62.5141 224.954 63.5194 225.693C68.4342 229.633 68.2108 235.667 65.7534 241.086C65.53 241.455 65.9768 241.825 66.3119 241.578C71.7852 236.529 69.998 227.909 64.413 223.969ZM65.8651 213.748C67.0938 212.763 68.4342 212.147 69.998 212.024C71.5618 211.778 72.6788 212.886 74.1309 212.886C74.6894 212.886 74.9128 212.27 74.6894 211.778C74.0192 210.054 72.1203 209.684 70.5565 209.684C68.5459 209.561 66.4236 210.669 64.8598 212.024C63.9662 212.763 64.8598 214.487 65.8651 213.748ZM64.1896 209.93C64.3013 208.083 64.8598 206.359 66.0885 205.005C67.0938 203.896 68.5459 203.896 69.7746 203.157C70.2214 202.911 70.3331 202.049 69.7746 201.803C67.9874 200.818 65.8651 202.049 64.6364 203.404C62.9609 205.128 62.4024 207.591 62.5141 209.93C62.5141 211.162 64.0779 211.162 64.1896 209.93V209.93ZM63.1843 198.847C63.296 198.478 62.9609 198.109 62.6258 198.109C60.7269 197.862 59.0513 200.448 58.3811 202.172C57.4875 204.266 57.5992 206.605 58.3811 208.699C58.8279 209.807 60.5035 209.438 60.1684 208.206C59.6098 206.359 59.6098 204.635 60.3918 202.911C61.062 201.31 62.7375 200.571 63.1843 198.847V198.847ZM71.2267 219.412C69.3278 217.812 66.9821 216.826 64.8598 216.457C63.7428 216.211 63.296 218.058 64.413 218.304C66.3119 218.797 67.8757 219.659 69.4395 220.767C71.115 222.122 72.1203 223.969 73.5724 225.446C74.1309 225.939 75.1362 225.446 74.9128 224.584C74.5777 223.353 73.9075 222.245 73.0139 221.136C100.939 221.752 121.939 240.593 128.082 271.379C128.306 272.857 130.093 272.241 129.981 270.887C125.96 241.701 99.2635 213.132 71.2267 219.412ZM247.155 224.461C248.272 225.816 249.724 226.801 251.288 227.417C252.517 227.909 252.963 225.816 251.846 225.323C251.065 224.954 250.394 224.584 249.724 223.969C250.283 223.969 250.283 222.86 249.724 222.737C249.277 222.614 248.831 222.614 248.384 222.491C248.272 222.368 248.049 222.122 247.937 221.875C247.043 220.274 247.043 218.181 246.82 216.457C246.708 215.841 245.815 215.718 245.591 216.211C244.698 218.427 244.921 220.521 245.815 222.368C219.342 220.644 186.948 242.44 182.257 271.625C182.034 272.98 183.933 273.596 184.156 272.241C190.076 239.115 220.682 228.771 247.155 224.461V224.461ZM72.0086 173.234C72.9022 172.002 73.5724 170.524 74.0192 168.924C74.8011 170.032 75.4713 171.14 76.0298 172.372C76.7 173.48 78.2638 172.495 77.7053 171.386C76.8117 169.662 75.8064 168.062 74.6894 166.461C74.9128 165.352 75.1362 164.244 75.2479 163.136C75.8064 162.889 76.4766 162.766 77.1468 162.643C78.3755 162.397 78.0404 160.55 77.1468 160.18C76.5883 159.934 76.0298 159.811 75.4713 159.565C75.4713 158.087 75.3596 156.732 75.2479 155.378C75.1362 154.023 73.5724 153.777 73.1256 155.131C72.6788 156.24 72.3437 157.348 71.8969 158.456C69.998 157.964 68.2108 157.594 66.3119 157.348C65.1949 157.102 64.5247 158.703 65.53 159.441C66.9821 160.427 68.2108 161.658 69.4395 163.013C67.2055 164.49 65.3066 166.461 63.7428 168.924C62.9609 170.155 64.3013 171.14 65.1949 170.648C67.8757 169.416 69.7746 167.446 71.2267 164.983C71.5618 165.475 71.8969 165.845 72.232 166.337C71.6735 168.431 70.8916 170.401 70.6682 172.618C70.5565 173.357 71.5618 173.726 72.0086 173.234ZM77.9287 167.199C88.652 174.096 98.4816 180.868 107.306 190.72C115.237 199.34 121.939 209.315 129.199 218.674C129.758 219.536 130.763 218.304 130.205 217.565C116.242 197.739 100.827 174.219 78.3755 165.968C77.7053 165.599 77.2585 166.83 77.9287 167.199V167.199ZM53.8014 173.11C52.9078 173.11 52.6844 174.711 53.578 174.958C94.0136 186.779 137.8 218.304 135.455 270.394C135.343 271.872 137.353 271.872 137.465 270.394C140.593 221.506 95.5774 178.406 53.8014 173.11V173.11ZM108.758 131.118C109.763 131.734 110.992 130.503 110.322 129.394C109.54 128.04 108.646 126.685 107.864 125.331C108.311 124.345 108.646 123.237 109.093 122.129C109.54 121.021 107.976 120.035 107.194 120.897C106.859 121.513 106.412 121.883 105.966 122.375C104.96 120.651 103.843 118.927 102.615 117.326C101.944 116.464 100.716 117.326 100.939 118.435C101.609 120.774 102.279 123.114 102.838 125.454C101.944 126.069 101.051 126.685 100.157 127.178C99.0401 127.547 97.8114 128.163 96.5827 128.902C95.5774 129.641 96.2476 131.734 97.4763 131.242C97.588 131.242 97.6997 131.118 97.6997 131.118C98.8167 130.626 99.9337 130.133 100.939 129.518C101.833 129.271 102.726 129.148 103.508 129.148C102.95 130.503 102.391 131.857 101.833 133.212C101.274 134.443 102.726 135.305 103.396 134.32C103.732 133.828 104.067 133.212 104.402 132.719C104.737 133.951 106.524 133.335 106.301 131.98C106.189 131.242 106.077 130.503 105.966 129.764V129.641C106.971 130.01 107.864 130.503 108.758 131.118V131.118ZM172.427 105.504C172.986 106.736 173.544 107.967 174.103 109.199C173.544 109.691 172.874 110.307 172.316 110.8C172.316 108.953 172.427 107.228 172.427 105.504ZM166.284 124.099C167.736 122.375 169.188 120.774 170.64 119.05C170.64 119.05 170.64 119.05 170.64 119.173C170.975 120.651 172.874 119.912 172.651 118.558C172.539 117.942 172.539 117.449 172.427 116.834C172.986 116.218 173.433 115.725 173.88 115.11C175.22 115.233 176.56 115.602 177.901 116.218C178.794 116.587 180.023 115.602 179.465 114.494C178.683 113.139 178.012 111.785 177.231 110.43C178.012 109.322 178.794 108.091 179.353 106.736C180.023 105.628 178.459 104.15 177.677 105.258C177.007 105.997 176.449 106.736 175.778 107.475C174.55 105.012 173.433 102.549 172.539 99.8399C172.204 98.7316 170.752 98.9779 170.752 100.209C170.528 104.15 170.082 108.214 169.97 112.277C169.635 112.401 169.188 112.647 168.741 112.77C167.177 113.016 165.502 113.386 163.938 113.878C162.709 114.248 162.933 116.464 164.273 116.341C166.06 116.218 167.736 115.849 169.3 115.233C169.523 115.11 169.858 115.11 170.082 115.11C170.082 115.233 170.193 115.479 170.193 115.602C168.183 117.819 166.284 120.159 164.72 122.745C164.05 123.853 165.502 125.084 166.284 124.099V124.099ZM279.66 168.431C279.66 167.446 279.66 166.584 279.772 165.599C280.777 165.352 281.894 165.106 283.011 164.86C281.894 166.091 280.777 167.199 279.66 168.431V168.431ZM275.862 171.756C275.75 171.633 275.639 171.51 275.415 171.263C276.085 170.648 276.644 169.786 276.867 168.8C276.867 168.8 276.979 168.8 276.979 168.677C276.979 168.677 276.979 168.554 277.091 168.431C277.426 166.953 275.75 166.461 274.968 167.446C274.857 167.569 274.857 167.692 274.745 167.815C274.522 167.815 274.298 167.815 274.075 168.062C274.298 167.692 274.522 167.199 274.745 166.83C275.639 166.584 276.532 166.461 277.426 166.214C277.314 167.569 277.314 169.047 277.426 170.401C276.867 170.894 276.421 171.386 275.862 171.756ZM270.389 176.312C270.054 176.558 269.719 176.682 269.495 176.928C270.277 175.327 271.059 173.603 271.953 172.002C271.953 172.248 272.064 172.372 272.176 172.495C271.506 173.726 270.947 174.958 270.389 176.312ZM285.803 161.658C283.905 162.027 281.894 162.52 279.995 163.013C280.218 161.042 280.665 159.195 281.112 157.225C281.447 156.117 279.995 155.008 279.213 155.993C277.091 158.703 275.192 161.658 273.405 164.613C272.288 164.86 271.171 165.106 269.942 165.352C267.038 162.889 263.575 160.919 259.33 160.18C257.878 159.934 257.32 162.274 258.772 162.52C261.9 163.136 264.58 164.367 266.926 166.091C265.251 166.337 263.463 166.707 261.788 166.953C260.447 167.199 260.336 169.416 261.788 169.293C264.357 169.047 266.926 168.554 269.383 168.062C269.83 168.431 270.277 168.924 270.724 169.293C268.825 172.864 267.038 176.435 265.474 180.13C265.027 181.238 266.032 182.716 267.038 181.854C269.942 179.76 272.734 177.544 275.527 175.204C277.202 177.544 278.766 179.883 280.442 182.223C280.442 182.223 280.553 182.346 280.553 182.469C281.447 183.578 282.899 182.1 282.341 180.868C280.889 177.913 280.107 174.834 279.772 171.633C282.341 169.17 284.798 166.707 286.92 163.751C287.702 162.766 287.032 161.412 285.803 161.658V161.658ZM34.4772 166.584C35.3708 166.707 36.2644 166.83 37.2697 166.953C37.158 167.076 37.158 167.323 37.158 167.692C37.4931 168.8 37.7165 170.032 37.7165 171.14C36.7112 169.662 35.5942 168.062 34.4772 166.584ZM44.0835 167.569C45.3122 167.692 46.6526 167.692 47.993 167.815C47.8813 167.815 47.8813 167.938 47.7696 168.062C46.4292 168.8 45.2005 169.786 43.9718 170.771C43.9718 169.786 43.9718 168.924 43.9718 167.938C43.9718 167.815 43.9718 167.692 44.0835 167.569ZM48.3281 185.917C48.6632 186.656 49.11 187.395 49.4451 188.134C50.1153 189.242 52.0142 188.503 51.4557 187.149C51.4557 187.149 51.4557 187.026 51.344 186.902C49.7802 182.592 47.7696 178.898 45.2005 175.204C44.9771 174.958 44.7537 174.711 44.5303 174.342C46.2058 172.987 47.8813 171.386 49.3334 169.786C50.227 169.293 51.1206 168.8 52.1259 168.431C53.3546 168.061 52.7961 165.845 51.5674 166.214C51.4557 166.214 51.4557 166.214 51.4557 166.214C51.344 165.722 51.0089 165.352 50.4504 165.352C48.3281 165.352 46.0941 165.229 43.9718 165.106C43.8601 163.259 43.7484 161.535 43.3016 159.565C43.1899 159.441 43.0782 159.318 42.9665 159.195C42.8548 158.579 42.7431 157.964 42.6314 157.348C42.408 156.363 40.8442 156.24 40.6208 157.348C40.3974 159.565 39.9506 162.151 39.6155 164.737C37.158 164.49 34.7006 164.244 32.1315 163.998C31.1262 163.875 30.9028 165.229 31.4613 165.968C33.4719 168.8 35.3708 171.756 37.4931 174.588C37.158 176.066 36.5995 177.42 35.7059 178.775C34.4772 179.76 33.2485 180.992 32.0198 182.223C31.1262 183.085 32.3549 184.809 33.3602 184.07C34.924 183.085 36.2644 181.854 37.2697 180.499C38.275 179.637 39.1687 178.775 40.174 178.036C42.6314 180.992 45.3122 183.701 48.3281 185.917V185.917ZM85.0776 89.4958C85.5244 92.6975 88.2052 94.4215 90.886 95.1604C91.8913 95.4067 92.3381 93.5595 91.3328 93.3133C89.6573 92.8207 87.8701 91.7124 87.1999 89.8652C86.5297 88.0181 87.6467 86.6635 89.0988 86.0478C90.7743 85.432 93.5668 85.0626 94.7955 86.9098C95.8008 88.6338 93.5668 89.8652 92.6732 90.7272C92.1147 91.0967 92.5615 91.9587 93.12 91.9587C95.6891 92.205 97.588 89.1264 96.8061 86.5403C95.9125 83.0923 92.003 83.0923 89.3222 83.708C86.8648 84.2006 84.6308 86.5403 85.0776 89.4958V89.4958ZM188.847 75.2111C187.842 77.1814 188.847 79.7674 189.741 81.4914C190.858 83.4617 192.645 84.6932 194.432 85.4321C195.438 85.8015 196.108 84.0775 195.103 83.5849C193.65 82.846 192.422 81.8609 191.416 80.3832C190.523 78.7823 190.635 76.812 189.741 75.2111C189.518 74.8417 189.071 74.8417 188.847 75.2111ZM194.321 92.9438C195.438 92.6975 194.991 90.7272 193.762 90.9735C192.422 91.2198 191.081 90.9735 190.076 89.8652C189.182 89.0032 188.959 87.5255 188.401 86.4172C188.177 85.8015 187.507 86.0478 187.284 86.5403C186.613 88.3875 187.619 90.4809 188.847 91.7124C190.299 93.1901 192.422 93.3132 194.321 92.9438V92.9438ZM207.501 95.4067C206.719 97.8696 205.491 99.8399 203.927 101.687C202.698 103.165 200.576 104.15 199.682 105.874C199.459 106.243 199.682 106.613 200.129 106.736C202.251 106.859 204.374 104.396 205.714 102.672C207.278 100.825 208.283 98.3621 208.953 95.8993C209.289 94.791 207.836 94.4215 207.501 95.4067V95.4067ZM208.618 106.49C208.395 106.859 208.507 107.475 208.953 107.352C215.209 106.736 217.778 98.1159 215.879 92.4512C215.432 91.3429 213.868 91.7124 214.203 92.9438C214.874 95.653 214.874 98.1159 213.757 100.702C212.528 103.165 210.182 104.396 208.618 106.49V106.49ZM221.352 96.515C221.464 97.0076 222.022 97.1307 222.246 96.7613C224.145 92.4512 221.687 87.5255 219.006 84.57C218.225 83.708 217.108 85.0626 217.778 85.9246C219.007 87.4024 219.9 89.0032 220.57 90.8504C221.129 92.6975 221.017 94.6678 221.352 96.515ZM217.666 80.1369C219.788 80.26 221.576 80.9989 223.139 82.3535C224.815 83.8312 225.597 85.9246 226.602 87.8949C226.937 88.3875 227.943 88.2644 227.831 87.5255C227.607 81.7377 222.581 78.2897 217.666 78.4129C216.661 78.4129 216.661 80.1369 217.666 80.1369V80.1369ZM213.645 76.1963C215.209 74.7185 216.884 73.6102 219.006 73.6102C221.129 73.4871 222.469 75.3343 224.368 76.0731C224.703 76.1963 225.038 75.7037 224.927 75.3343C224.368 72.8714 221.799 71.3937 219.565 71.2705C216.773 71.1474 214.315 72.7482 212.304 74.8417C211.523 75.7037 212.751 77.0583 213.645 76.1963V76.1963ZM207.055 75.8268C207.725 72.8714 208.842 70.1622 210.406 67.6993C212.081 65.1133 214.65 64.3745 216.773 62.5273C216.996 62.281 216.884 61.6653 216.549 61.5422C213.645 60.9264 210.852 63.5125 209.177 65.8522C207.166 68.4382 206.049 71.8862 205.379 75.3343C205.156 76.4426 206.719 76.9351 207.055 75.8268ZM204.932 81.2452C202.698 82.846 203.145 87.4024 203.815 89.9884C203.815 90.2347 204.039 90.4809 204.15 90.7272C200.129 88.2644 199.236 81.2452 204.932 81.2452ZM205.491 84.4469C205.714 83.2155 206.943 82.846 207.836 82.2303C208.618 82.9692 209.177 83.9543 209.289 85.0626C209.512 87.4023 207.501 88.2644 205.714 88.3875C205.379 87.1561 205.156 85.8015 205.491 84.4469V84.4469ZM203.927 93.067C204.932 93.5595 205.714 91.4661 204.709 90.9735C204.485 90.8504 204.374 90.7272 204.15 90.7272C204.374 90.8504 204.597 90.9735 204.821 90.9735C208.06 90.8504 211.299 89.3727 211.523 85.4321C211.634 82.1072 208.842 79.5211 206.161 78.9054C205.267 78.6591 204.374 78.7823 203.592 78.9054C203.592 78.6591 203.704 78.536 203.592 78.2897C203.145 75.4574 203.257 72.502 203.815 69.6696C204.485 66.5911 206.273 64.3745 207.39 61.6653C207.613 61.0496 207.166 60.4339 206.608 60.8033C201.246 64.005 200.688 72.9945 202.028 78.7823C202.028 79.0286 202.14 79.1517 202.251 79.2749C200.464 80.0137 198.9 81.6146 198.565 84.0775C198.007 88.1412 200.688 91.5892 203.927 93.067V93.067ZM88.5403 73.7334C88.2052 72.1325 88.0935 70.5317 88.0935 68.8076C88.0935 67.3299 88.3169 65.729 88.0935 64.2513C88.0935 63.7587 87.535 63.7587 87.3116 64.1282C85.6361 66.8373 86.1946 71.2705 86.8648 74.226C87.0882 75.4574 88.7637 74.9648 88.5403 73.7334ZM85.7478 80.26C84.2957 77.674 83.5138 74.9648 82.9553 72.0094C82.5085 69.4234 83.067 66.8373 82.7319 64.2513C82.7319 63.6356 82.0617 63.7587 81.8383 64.005C78.7106 68.6845 81.7266 77.0583 84.2957 81.2452C84.8542 82.2303 86.3063 81.3683 85.7478 80.26ZM80.051 85.4321C81.0564 85.8015 81.5032 84.0775 80.4979 83.5849C76.3649 81.8609 75.6947 78.0434 74.8011 73.8565C74.6894 73.1177 73.6841 73.1177 73.5724 73.8565C72.6788 79.0286 75.583 83.708 80.051 85.4321V85.4321ZM83.4021 91.9587C84.4074 91.4661 83.5138 89.9884 82.5085 90.3578C81.3915 90.9735 80.2745 91.2198 78.934 91.2198C77.817 91.0967 76.8117 90.2347 75.583 89.9884C75.2479 89.9884 75.0245 90.2347 75.0245 90.6041C75.9181 94.5447 81.0564 93.3132 83.4021 91.9587V91.9587ZM85.7478 102.672C87.3116 102.056 88.4286 100.825 89.2105 99.2242C89.769 97.9927 88.2052 97.0076 87.535 98.1159C86.8648 99.4704 85.9712 100.332 84.5191 100.825C83.5138 101.318 82.2851 101.194 81.2798 101.933C80.9446 102.18 80.9446 102.672 81.2798 102.918C82.6202 103.904 84.5191 103.288 85.7478 102.672V102.672ZM94.237 114.125C99.0401 109.938 98.8167 103.042 96.5827 97.377C96.2476 96.3918 94.5721 97.1307 94.9072 98.239C96.8061 103.657 96.1359 108.46 93.2317 113.263C92.7849 114.001 93.6785 114.494 94.237 114.125V114.125ZM99.822 90.6041C99.0401 89.7421 97.9231 90.9735 98.5933 91.8355C99.7103 93.067 100.827 94.4215 101.833 95.7761C102.503 96.8844 103.173 98.9779 104.513 99.3473C104.849 99.3473 105.072 99.2241 105.184 98.8547C105.63 97.5001 104.29 95.8993 103.62 94.9141C102.391 93.3133 101.051 91.9587 99.822 90.6041ZM109.317 90.4809C110.992 91.4661 112.221 93.067 113.785 94.0521C114.231 94.4215 115.013 93.929 114.79 93.1901C113.338 89.1264 108.535 87.2792 104.849 86.5403C103.843 86.4172 103.396 88.0181 104.402 88.3875C106.189 88.8801 107.753 89.4958 109.317 90.4809V90.4809ZM101.051 85.3089C102.95 83.708 105.072 82.5997 107.529 81.984C110.21 81.3683 112.221 82.7229 114.567 84.2006C114.902 84.4469 115.46 84.0775 115.237 83.5849C113.114 76.0731 103.508 80.5063 99.9337 83.8312C99.1518 84.57 100.157 86.0478 101.051 85.3089V85.3089ZM98.4816 77.3046C97.9231 78.4129 99.3752 79.2749 99.9337 78.2897C101.051 76.1963 102.279 74.3491 104.067 72.8714C104.96 72.1325 105.966 71.6399 107.194 71.6399C107.976 71.5168 108.646 71.7631 109.54 71.5168C109.763 71.3937 109.875 71.1474 109.763 70.7779C108.646 68.4382 105.742 69.3002 103.955 70.2854C101.498 71.5168 99.7103 74.5954 98.4816 77.3046ZM95.354 82.2303C95.4657 78.536 96.2476 74.9648 97.8114 71.6399C98.4816 69.9159 99.4869 68.5614 100.604 67.2068C101.498 66.2216 102.503 65.8522 103.061 64.6208C103.285 64.2513 102.95 63.7587 102.615 63.7587C99.7103 63.3893 97.1412 68.0688 96.0242 70.4085C94.237 73.9797 93.5668 78.1666 93.5668 82.2303C93.5668 83.5849 95.354 83.5849 95.354 82.2303V82.2303ZM118.699 98.9779C119.481 98.4853 120.152 97.8696 120.933 97.2539C121.604 96.7613 122.274 96.515 122.944 96.2687C123.056 96.6381 123.056 96.8844 123.056 97.2539C122.274 98.7316 121.604 100.332 120.933 101.81C120.598 101.441 120.375 100.948 120.152 100.579C119.593 99.7167 118.588 100.456 118.923 101.318C119.37 102.18 119.705 103.042 120.152 103.904C120.152 104.15 120.263 104.396 120.375 104.642C125.96 116.711 132.55 127.917 135.343 141.339C135.455 142.078 136.348 141.709 136.236 141.093C134.338 127.917 128.529 115.11 121.939 103.78C122.721 102.672 123.391 101.564 124.061 100.456C124.62 100.456 125.29 99.963 125.178 99.101C125.178 98.9779 125.178 98.8547 125.178 98.6084C125.513 97.8696 125.96 97.1307 126.407 96.3918C127.189 96.6381 128.082 97.2539 128.976 97.9927C129.646 98.7316 131.098 98.1159 130.763 96.8844C130.205 95.1604 129.423 93.6827 128.641 92.0818C129.088 91.2198 129.534 90.3578 129.981 89.6189C130.54 88.5106 129.423 87.2792 128.417 87.8949C127.971 88.2644 127.412 88.6338 126.965 89.0032C126.072 87.5255 125.29 86.1709 124.396 84.6932C123.949 83.8312 122.609 84.2006 122.609 85.1858C122.721 87.6486 122.721 89.9884 122.832 92.4512C121.715 93.4364 120.598 94.4215 119.481 95.2835C118.811 95.7761 118.029 96.3918 117.359 97.1307C116.465 97.9927 117.694 99.7167 118.699 98.9779V98.9779ZM137.912 168.062C136.795 144.541 121.269 115.233 104.29 100.948C103.62 100.332 102.838 101.564 103.396 102.303C118.253 121.267 134.002 141.955 136.348 168.062C136.46 169.17 137.912 169.17 137.912 168.062V168.062ZM191.863 97.9927C191.305 98.239 191.305 98.8547 191.64 99.2242C192.198 99.7167 192.869 99.8399 193.539 99.963C179.8 121.144 170.752 148.605 165.167 173.234C165.055 173.726 165.725 173.972 165.949 173.48C171.087 159.072 175.555 144.418 181.252 130.256C185.496 119.666 190.858 109.938 195.996 99.963C196.443 99.963 196.89 99.8399 197.337 99.7167C199.571 99.2242 201.358 97.5001 202.81 95.653C203.48 94.6678 202.251 93.3132 201.47 94.2984C200.353 95.653 199.012 96.6381 197.448 97.2539C198.007 96.1456 198.565 94.9141 199.236 93.6827C199.459 93.1901 198.789 92.5744 198.454 93.067C197.225 94.5447 196.108 96.1456 195.103 97.7464C193.986 97.7464 192.869 97.6233 191.863 97.9927V97.9927ZM259.889 175.696C260.894 175.327 260.447 173.849 259.554 173.972C216.549 183.331 183.821 223.722 175.667 270.148C175.555 271.256 176.895 271.625 177.119 270.64C188.065 221.26 216.996 191.336 259.889 175.696V175.696ZM159.805 136.414C159.47 135.428 158.13 135.305 157.795 136.414C155.784 144.418 147.965 150.698 143.832 139.738C140.704 131.488 149.194 125.084 155.226 122.991C156.566 122.498 159.023 122.375 160.029 120.897C164.385 114.001 160.029 100.209 157.013 93.6827C156.343 92.3281 154.667 93.4364 155.226 94.791C158.018 101.071 159.023 107.721 159.247 114.617C159.47 121.144 155.337 120.035 152.21 121.759C146.625 124.592 142.603 128.409 141.375 135.305C140.369 141.216 146.401 151.437 152.768 148.358C155.002 147.373 159.582 143.433 158.8 140.724C160.475 146.881 162.709 166.584 151.986 166.214C150.422 166.214 148.747 167.199 147.183 167.692C136.46 170.894 152.21 194.045 155.561 197.123C156.343 197.739 157.46 196.631 156.678 195.892C155.672 194.907 139.587 169.786 148.635 169.786C150.981 169.786 153.997 168.8 156.231 168.185C165.949 165.352 161.481 142.571 159.805 136.414V136.414ZM138.135 208.33C135.566 207.714 133.109 207.098 130.54 206.482C133.891 199.956 137.577 198.232 141.486 201.064C141.04 203.527 139.923 205.99 138.135 208.33ZM122.944 176.066C122.274 178.529 120.71 179.76 118.141 179.76C116.912 178.529 115.572 177.174 114.343 175.943C116.801 172.372 119.705 170.894 122.944 171.756C123.056 173.11 123.167 174.588 122.944 176.066ZM103.285 158.703C102.168 157.471 104.625 156.609 106.971 155.993C107.418 158.826 106.189 159.811 103.285 158.703ZM143.609 201.187C145.396 189.365 134.896 176.066 125.29 171.263C124.62 162.52 116.912 154.393 108.981 153.9C108.423 139.738 95.9125 132.227 84.5191 129.764C83.4021 129.518 82.9553 131.365 84.0723 131.734C91.6679 134.197 100.604 137.522 104.849 145.526C106.189 147.989 106.636 151.068 106.859 154.023C104.737 154.269 102.615 155.131 100.716 156.732C100.157 157.225 100.045 157.841 100.492 158.456C105.184 165.106 108.646 162.397 108.981 155.747C109.875 155.501 110.657 155.501 110.992 155.501C116.465 156.609 120.263 163.136 122.162 168.308C122.386 169.047 122.609 169.786 122.721 170.648C117.694 169.539 111.439 171.14 112.556 178.406C113.338 183.454 121.939 182.592 123.838 178.898C124.731 176.928 125.178 174.958 125.29 172.864C133.221 178.159 143.05 188.75 141.71 199.709C136.348 196.261 129.758 194.537 128.641 201.68C127.635 207.221 131.992 216.703 137.912 211.408C140.816 208.699 142.492 205.743 143.274 202.665C143.609 203.034 143.944 203.281 144.279 203.65C147.406 206.605 148.747 211.531 149.752 215.718C152.992 228.648 150.311 243.672 148.635 256.725C148.523 257.71 149.864 258.08 149.976 257.218C152.433 240.716 155.672 222.368 148.635 206.852C147.965 205.251 145.954 203.034 143.609 201.187V201.187ZM182.704 198.847C182.257 198.601 181.699 198.847 181.81 199.463C182.369 207.591 173.209 201.926 170.864 199.463C170.082 198.724 169.411 197.862 168.965 197C174.215 192.813 180.246 191.582 182.704 198.847V198.847ZM214.874 153.777C214.315 150.329 215.097 147.866 216.549 145.649C218.448 148.974 218.895 152.545 214.874 153.777ZM178.794 221.998C177.566 217.073 171.645 213.255 167.401 216.334C164.273 218.55 161.592 221.752 159.47 225.446C158.577 220.151 158.912 214.487 160.029 209.561C160.811 205.867 164.05 201.187 167.736 197.985C168.965 200.202 170.64 202.049 172.762 203.65C176.895 206.482 182.592 205.99 183.151 200.202C183.262 200.695 183.374 201.31 183.486 201.803C183.486 202.295 184.268 202.172 184.268 201.68C183.709 188.38 175.778 190.597 168.741 196.508C165.502 190.227 169.076 182.346 173.098 177.051C180.47 167.199 180.582 182.1 186.725 184.07C194.991 186.656 198.677 171.263 194.768 162.766C198.565 161.781 201.916 156.486 203.815 151.437C205.044 151.683 206.384 151.807 207.725 151.437C208.283 151.314 208.06 150.329 207.39 150.452C203.48 151.191 200.353 147.989 201.246 143.556C202.028 139.246 206.496 138.138 209.847 139.246C211.523 139.862 213.757 141.709 215.432 143.925C213.198 147.004 212.304 151.191 213.645 154.885C213.868 155.255 214.092 155.501 214.538 155.378C220.459 153.654 220.235 148.605 217.554 144.295C218.448 143.186 219.565 142.078 220.682 140.847C221.017 140.477 220.682 139.862 220.347 140.108C218.895 140.6 217.554 141.586 216.437 142.694C214.203 139.862 211.076 137.522 208.283 137.152C203.704 136.537 199.682 139.862 199.459 145.157C199.236 148.112 200.799 150.083 202.81 151.068C201.916 152.176 201.134 153.407 200.353 154.762C199.459 155.993 198.565 157.225 197.672 158.456C194.656 158.21 192.533 158.21 191.193 158.456C190.523 157.964 189.741 157.594 188.847 157.471C188.177 157.225 187.284 158.087 187.842 158.949C189.518 161.412 191.193 162.52 192.869 162.766C192.98 162.889 193.092 163.013 193.315 163.136C195.438 166.83 194.879 172.248 193.874 176.189C192.31 182.346 186.278 184.316 183.374 178.406C182.592 176.805 182.034 175.081 181.14 173.48C177.119 166.091 169.523 179.268 167.848 182.346C165.055 187.395 165.279 193.06 167.513 197.493C163.603 201.064 160.252 205.62 158.688 208.945C157.236 212.393 156.901 220.521 158.13 227.786C151.093 242.071 151.651 262.636 164.497 271.133C165.39 271.749 166.172 270.271 165.279 269.655C154.555 261.897 154.22 249.213 157.124 236.899C157.683 235.052 158.241 233.205 158.912 231.357C160.922 238.5 164.832 243.549 171.199 239.731C177.566 235.914 180.693 230.003 178.794 221.998V221.998Z" fill="#7D91A9"/>
</svg>
