<svg width="315" height="315" viewBox="0 0 315 315" fill="none" xmlns="http://www.w3.org/2000/svg">
<path fill-rule="evenodd" clip-rule="evenodd" d="M227.51 132.475C227.687 131.768 226.626 131.238 226.095 131.768C219.726 138.134 205.398 132.475 197.26 134.067C190.184 135.482 182.047 143.086 175.502 134.598C173.556 132.122 172.494 132.122 169.133 132.122C168.072 132.122 168.072 133.89 169.133 133.89C173.379 134.067 178.686 139.903 183.639 140.787C189.654 141.848 195.491 136.366 201.329 135.835C207.344 135.482 224.857 140.787 227.51 132.475V132.475ZM107.749 56.2587C108.988 53.6062 110.226 50.7768 112.703 49.3621C113.587 48.8316 112.88 47.5937 111.995 48.1242C108.988 49.5389 107.042 52.5452 106.865 55.9051C106.688 56.4356 107.573 56.6124 107.749 56.2587ZM111.111 53.4293C109.342 55.5514 107.396 58.7345 107.042 61.5638C106.865 62.0944 107.219 62.2712 107.573 62.0944C109.342 60.5028 110.403 58.0271 111.641 56.0819C113.41 53.4293 115.356 51.4841 118.54 50.9536C119.425 50.7768 119.248 49.1853 118.187 49.1853C115.179 49.7158 113.056 50.9536 111.111 53.4293ZM227.864 41.5813C228.748 42.996 229.102 44.5875 229.81 46.0022C230.163 46.5327 230.694 46.179 230.871 45.8254C231.225 41.9349 228.394 38.3982 225.564 36.453C224.857 35.9225 224.149 36.9835 224.68 37.514C226.095 38.575 227.156 39.9897 227.864 41.5813V41.5813ZM242.193 128.231C242.369 128.762 243.254 128.408 243.254 127.878C243.785 123.457 240.954 118.329 238.832 114.438C238.478 113.731 237.416 114.438 237.77 115.145C238.832 117.621 239.539 120.097 240.424 122.573C240.954 124.518 241.308 126.463 242.193 128.231V128.231ZM232.463 112.316C235.47 116.56 236.709 120.981 237.947 125.932C237.947 126.286 238.655 126.286 238.655 125.932C239.893 120.627 237.063 115.322 233.701 111.432C233.171 110.725 232.109 111.609 232.463 112.316V112.316ZM47.427 197.905C48.1346 193.484 47.7808 189.063 48.8422 184.819C49.196 184.112 48.1346 183.935 47.7808 184.466C46.3656 188.886 45.658 193.307 46.3656 197.905C46.5425 198.436 47.427 198.436 47.427 197.905ZM51.1419 197.198C52.0264 193.661 52.3802 189.947 53.2647 186.411C54.3261 183.051 55.7412 179.514 56.9795 176.154C57.3333 175.447 56.095 174.916 55.9181 175.624C52.734 181.99 48.6653 189.947 50.0805 197.198C50.2574 197.728 50.965 197.728 51.1419 197.198V197.198ZM255.46 170.495C258.998 175.093 261.298 179.337 263.244 184.819C263.42 185.35 264.305 185.173 264.305 184.642C264.482 178.807 259.706 173.855 256.168 169.788C255.637 169.258 254.929 169.965 255.46 170.495ZM191.953 144.147C192.838 143.086 193.899 142.201 194.784 141.14C194.784 140.964 194.607 140.787 194.607 140.964C193.545 141.848 192.484 142.732 191.6 143.793C191.246 143.97 191.776 144.5 191.953 144.147ZM193.015 140.61C193.369 140.079 192.661 139.372 192.13 139.726C191.069 140.256 190.361 140.964 189.477 141.671C188.592 142.378 187.531 142.732 186.469 143.086C185.408 143.439 185.762 145.031 186.823 144.677C189.123 143.97 191.953 142.909 193.015 140.61V140.61ZM120.663 131.945C120.84 131.591 120.84 131.238 120.486 131.238C119.071 130.707 117.302 131.768 116.064 132.652C114.295 133.713 113.056 135.305 111.818 137.073C111.287 137.781 112.349 138.488 112.88 137.957C114.118 136.543 115.533 135.305 116.948 134.244C118.187 133.36 119.779 133.006 120.663 131.945ZM266.605 241.23C266.251 243.883 267.489 247.243 263.951 248.304C260.767 249.365 258.821 245.828 258.29 243.352C257.937 242.291 256.698 242.468 256.345 243.175C256.168 242.999 256.168 242.645 255.991 242.291C255.283 241.407 253.868 242.114 254.045 243.175C254.399 244.767 255.283 246.712 254.399 248.481C253.691 249.718 251.568 249.542 250.33 249.365C246.615 248.657 242.9 246.182 240.601 243.175C240.424 242.645 239.893 242.645 239.539 242.645C239.539 242.645 239.539 242.645 239.539 242.468C248.561 242.291 257.583 241.938 266.605 241.23V241.23ZM237.77 240.7C237.416 240.7 237.239 240.877 237.063 241.053C228.925 241.407 220.965 241.407 212.827 241.23C191.776 240.523 170.549 239.992 149.321 239.639C128.624 239.462 107.75 240.169 87.0523 240.346C83.5144 240.346 58.9254 240.169 52.0264 237.517C52.2033 237.34 52.2033 236.986 52.2033 236.809C87.2292 236.809 122.255 235.571 157.281 234.864C174.44 234.51 191.6 234.51 208.759 234.687C227.687 234.864 247.5 233.803 266.428 236.456C266.428 236.632 266.428 236.632 266.428 236.809C268.02 239.462 245.554 240.7 243.785 240.7C241.839 240.877 240.07 240.877 238.301 241.053C238.124 240.877 237.947 240.877 237.77 240.7ZM237.416 245.828C237.063 247.243 236.001 248.304 234.763 248.834C230.871 250.779 228.041 247.243 226.979 244.06C226.802 243.706 226.449 243.352 225.918 243.352C225.918 243.175 225.741 242.999 225.564 242.822C229.279 242.822 233.171 242.645 236.886 242.645C237.063 243.706 237.593 244.767 237.416 245.828V245.828ZM224.149 246.712C223.618 248.127 222.026 249.011 220.788 249.365C216.365 250.603 213.358 247.243 212.297 243.352C212.297 243.175 212.12 242.999 212.12 242.822C216.012 242.822 219.903 242.822 223.795 242.822C223.795 244.236 224.503 245.297 224.149 246.712V246.712ZM206.99 247.596C206.282 248.834 204.867 249.895 203.452 250.072C199.206 250.603 197.614 246.005 197.083 242.822C200.798 242.822 204.513 242.822 208.228 242.822C207.697 244.413 207.874 246.005 206.99 247.596V247.596ZM191.423 248.127C190.361 249.365 188.415 249.542 186.823 249.365C183.108 249.188 179.747 246.182 177.978 243.175C177.801 242.822 177.625 242.645 177.271 242.645C177.271 242.645 177.271 242.468 177.094 242.468C182.578 242.468 187.885 242.645 193.192 242.645C192.484 244.59 192.838 246.535 191.423 248.127V248.127ZM175.679 247.243C175.502 248.657 174.087 249.718 172.671 250.072C169.133 251.31 167.011 248.304 165.772 245.297V245.121C165.772 244.767 165.595 244.59 165.419 244.413C165.242 244.06 165.065 243.706 165.065 243.352C164.711 242.468 163.65 242.468 163.296 242.999C163.296 242.822 163.296 242.468 163.119 242.114C167.188 242.291 171.079 242.291 174.971 242.468C175.148 244.06 176.209 245.474 175.679 247.243V247.243ZM149.675 241.938C153.389 241.938 157.281 242.114 160.996 242.114C160.819 243.175 160.996 244.06 160.642 245.121C160.112 246.535 158.696 247.419 157.281 247.596C153.389 248.481 150.913 245.121 149.675 241.938ZM166.303 277.305C160.288 276.951 154.274 276.774 148.259 276.774C148.259 276.774 148.259 276.774 148.259 276.598C151.444 268.109 152.328 257.146 150.736 247.773C152.328 249.365 154.805 250.249 157.104 250.072C159.227 249.895 160.996 248.834 162.234 247.066C162.765 246.535 163.119 245.474 163.296 244.413C163.296 245.121 163.473 245.651 163.65 246.358C162.411 256.084 160.996 268.64 166.303 277.305V277.305ZM140.83 249.718C136.23 249.895 132.338 246.358 131.454 241.938V241.761C136.407 241.761 141.36 241.761 146.313 241.938V242.114C146.844 246.358 145.783 249.542 140.83 249.718ZM126.855 246.005C126.147 247.596 124.555 248.304 123.14 248.481C118.717 249.011 115.002 245.651 113.41 241.938C118.01 241.938 122.432 241.761 126.855 241.761C127.031 243.175 127.562 244.59 126.855 246.005V246.005ZM105.096 248.657C101.381 249.188 98.197 246.889 96.6049 243.883C96.428 243.529 96.428 242.999 96.2511 242.645C101.558 242.468 106.157 242.291 109.342 242.114C110.403 245.474 108.988 248.304 105.096 248.657V248.657ZM81.5685 242.822C85.814 242.822 90.0596 242.822 93.9514 242.645C93.9514 242.822 93.9514 242.822 93.9514 242.999C93.9514 242.999 93.9514 242.999 93.9514 243.175H94.1283C96.428 251.84 82.2761 252.371 81.5685 242.822V242.822ZM64.5862 242.114C69.1856 242.468 74.1387 242.645 79.2688 242.822C78.3843 250.603 63.5248 251.664 64.5862 242.114ZM60.3406 242.114C60.5175 246.535 56.6257 249.011 52.734 247.066C51.1419 246.358 49.9036 245.121 49.3729 243.529C48.8422 241.938 49.5498 240.346 50.6112 239.108C52.734 240.346 56.2719 241.053 60.5175 241.584C60.5175 241.761 60.3406 241.938 60.3406 242.114ZM60.1637 205.686C60.1637 206.04 60.3406 206.216 60.5175 206.393C81.9223 211.168 105.273 210.461 127.031 208.692C127.385 208.692 127.562 208.339 127.562 207.985C130.216 209.4 133.046 209.93 135.876 208.692C136.761 208.339 136.584 207.277 135.7 207.101C130.923 206.924 127.031 205.332 124.201 201.265C122.609 198.966 122.255 196.49 122.786 194.368C123.67 194.015 124.555 193.307 125.262 192.423C125.793 191.893 125.439 191.362 124.732 191.362C125.086 191.008 125.262 190.832 125.616 190.655C125.616 190.655 125.616 190.832 125.616 191.008C125.262 195.783 127.208 200.204 131.454 202.68C136.938 205.863 142.068 203.033 144.368 198.436C145.075 199.674 146.313 200.381 148.082 200.735C151.974 201.265 155.689 198.436 158.166 195.783C160.819 192.777 162.765 188.71 161.704 184.819C161.35 183.405 160.642 182.167 159.581 181.282C160.465 180.929 161.35 180.752 162.411 180.398C162.234 180.752 162.057 181.106 162.234 181.282C163.65 186.588 167.364 189.947 171.61 192.954C169.133 191.893 166.48 191.539 164.003 192.954C161.527 194.545 160.288 197.551 160.112 200.558C159.935 201.619 160.288 202.857 160.642 204.094C154.981 201.442 146.667 202.149 141.891 203.918C141.006 204.271 140.83 205.155 141.36 205.863C147.021 212.583 157.812 211.345 165.595 211.168C165.772 211.168 165.772 211.168 165.949 211.168C165.595 211.522 165.242 211.698 165.065 212.052C162.411 214.528 160.288 217.888 159.227 221.424C159.05 222.309 159.935 223.37 160.819 223.016C164.888 221.248 167.895 218.241 170.372 214.881C170.018 218.065 169.664 221.071 170.195 224.254L170.372 224.431C165.949 224.784 161.704 224.961 157.458 224.961C148.613 224.784 139.768 224.431 130.923 223.9C130.393 223.723 130.039 223.9 129.685 223.9C128.8 223.9 127.916 223.9 126.855 223.723C128.093 222.839 129.331 221.955 130.569 221.071C130.746 220.894 130.923 220.54 130.923 220.363C138.353 220.363 145.783 220.187 153.212 219.656C154.274 219.656 154.274 218.065 153.212 218.065C122.609 218.241 92.0055 215.058 61.5789 216.473C61.402 216.473 61.402 216.473 61.402 216.473C61.0482 212.936 60.5175 209.223 60.1637 205.686V205.686ZM114.472 191.893C111.464 190.301 109.872 186.941 109.165 183.935C107.396 176.154 112.172 169.258 120.486 169.788C121.017 169.965 121.371 169.611 121.548 169.258C124.024 172.794 127.916 175.977 130.393 177.038C130.039 177.569 129.862 178.099 129.685 178.63C127.208 175.977 123.317 174.032 119.956 174.916C117.125 175.624 115.533 177.923 115.179 180.575C114.825 183.405 116.594 186.057 118.894 187.295C120.663 188.179 122.609 188.533 124.378 188.71C124.555 188.71 124.732 188.71 124.909 188.71C123.317 189.594 122.078 190.655 121.371 192.07C119.071 192.6 116.948 193.131 114.472 191.893V191.893ZM93.4207 154.403C93.9514 154.05 94.659 153.519 95.1897 152.989C95.1897 153.342 95.3666 153.696 95.3666 154.226C95.3666 154.403 95.1897 154.403 95.1897 154.403C95.1897 154.58 95.0128 154.58 95.0128 154.757C94.1283 155.818 92.3593 155.818 91.121 155.641C89.1751 155.111 89.352 153.165 89.8827 151.574C90.4134 151.574 90.7672 151.397 90.9441 150.867C90.9441 150.336 91.121 149.982 91.2979 149.452C91.6517 149.275 92.0055 149.275 92.1824 149.275C92.0055 150.69 91.6517 151.928 91.6517 153.342C91.6517 154.226 92.5362 154.757 93.4207 154.403V154.403ZM111.287 167.312C111.818 164.483 110.757 161.654 106.157 160.239C105.273 159.885 104.565 160.769 104.742 161.654C105.273 164.306 106.334 166.959 108.28 168.55C107.219 170.495 105.096 172.264 103.15 173.325C100.85 174.739 97.6663 175.624 95.1897 174.386C93.5976 173.678 92.5362 172.441 91.6517 170.849C91.6517 170.142 91.6517 169.434 91.6517 168.727C91.6517 168.373 91.4748 168.02 91.2979 167.843V167.666C91.6517 166.959 91.121 166.251 90.4134 166.428C90.2365 165.721 90.2365 165.013 90.0596 164.306C90.0596 163.422 89.1751 163.245 88.6444 163.422C88.6444 163.068 88.2906 162.538 87.7599 162.538C82.8068 162.007 78.915 158.824 78.915 153.696C79.2688 153.696 79.6226 153.696 79.9764 153.519C80.5071 153.342 80.8609 152.281 80.1533 151.928C79.7995 151.751 79.6226 151.751 79.2688 151.574C79.7995 150.159 80.684 148.921 81.9223 148.037C84.0451 146.446 86.5216 147.153 89.1751 146.976C89.8827 146.799 90.2365 145.915 89.5289 145.385C88.8213 144.854 87.9368 144.677 87.0523 144.5C87.2292 143.97 87.2292 143.263 86.5216 143.086C85.814 142.732 85.2833 142.378 84.7527 142.201C85.4602 142.025 86.1678 141.14 85.814 140.433C84.9296 139.195 83.6913 137.957 82.453 137.25C83.1606 135.128 85.6371 133.006 88.4675 131.591C90.7672 130.353 93.5976 129.823 96.0742 130.353C99.966 131.238 99.966 135.835 99.6122 138.842C99.4353 140.256 101.558 140.433 101.912 139.195C103.681 132.299 109.342 140.079 110.403 143.086C111.111 145.561 109.872 148.037 108.28 150.336C108.103 150.336 107.926 150.336 107.926 150.513C107.396 150.513 107.219 151.043 107.396 151.574C106.334 152.812 105.273 154.05 104.388 155.111C104.212 154.226 103.858 153.342 103.327 152.635C104.388 151.574 105.096 150.159 105.45 148.568C105.804 145.208 102.619 142.025 99.9659 140.256C97.4894 138.488 93.9514 136.72 90.5903 137.25C86.8754 137.781 87.7599 142.025 88.9982 144.5C89.5289 145.738 91.2979 144.677 90.7672 143.439C90.0596 141.671 89.352 139.372 91.8286 139.372C94.3052 139.372 96.9587 140.964 99.0815 142.555C100.85 143.793 102.973 145.915 102.973 148.391C102.973 149.452 102.443 150.159 101.912 150.867C101.735 150.69 101.558 150.513 101.558 150.513C100.497 149.629 99.0815 150.867 99.9659 151.928C99.2584 152.281 98.5508 152.458 97.8432 152.812C97.6663 151.928 97.3125 151.043 96.6049 150.159C96.7818 149.098 96.6049 147.86 95.3666 146.799C94.4821 145.915 93.0669 145.561 91.8286 145.915C90.7672 146.269 90.0596 147.153 89.5289 148.037C86.8754 150.159 85.9909 155.287 89.352 157.233C91.4748 158.647 94.8359 158.117 96.7818 156.348C96.9587 156.172 97.1356 155.818 97.3125 155.641C98.7277 155.464 100.32 154.757 101.558 153.873C102.443 155.818 102.266 157.94 100.32 159.708C97.6663 162.007 94.4821 161.477 91.2979 161.123C90.2365 160.946 90.0596 162.538 90.7672 163.068C94.3052 165.367 99.6122 163.599 102.443 161.123C103.504 159.885 104.212 158.647 104.388 157.409C106.688 156.348 108.634 154.403 110.049 152.458C112.88 152.812 116.064 152.989 118.01 155.464C119.602 157.763 118.717 160.769 117.656 162.891C116.418 165.013 114.649 166.782 112.349 167.312C111.995 167.489 111.464 167.489 111.287 167.312V167.312ZM87.4061 184.289C87.4061 180.045 87.4061 175.624 88.4675 171.556C88.8213 171.203 88.9982 171.026 89.1751 170.849C89.352 171.026 89.352 171.203 89.5289 171.38C89.5289 175.801 89.352 180.398 87.4061 184.289ZM86.3447 169.788C84.5758 171.026 82.8068 172.087 80.3302 172.087C77.146 172.264 74.3156 170.142 72.3697 167.843C68.1242 162.891 67.9473 155.464 74.1387 152.281C74.8463 152.812 75.7308 153.342 76.6153 153.519C76.2615 160.062 81.3916 164.306 87.7599 164.66C87.9368 164.66 88.1137 164.66 88.1137 164.483C88.2906 165.367 88.2906 166.074 88.4675 166.959C88.1137 166.959 87.583 166.959 87.4061 167.312C87.0523 168.197 86.5216 168.904 86.3447 169.788V169.788ZM66.5321 144.5C63.7017 142.378 61.0482 140.433 58.5716 138.134C57.6871 137.25 56.2719 138.665 57.1564 139.549C59.4561 141.848 61.7558 143.793 64.2324 145.738C65.2938 146.446 66.1783 147.33 67.0628 148.214C57.3333 145.031 47.0732 137.427 47.2501 126.994C56.095 131.768 63.5248 137.781 68.6549 146.269C67.9473 145.738 67.2397 145.031 66.5321 144.5V144.5ZM49.196 163.422C52.2033 158.47 57.1564 154.934 62.6403 153.342C62.1096 153.696 61.5789 153.873 61.2251 154.226C59.8099 154.757 58.5716 155.287 57.3333 156.172C56.2719 156.879 57.1564 158.647 58.3947 157.94C59.633 157.233 61.0482 156.525 62.4634 155.995C63.7017 155.464 65.1169 154.934 65.8245 153.873C66.1783 153.342 65.8245 152.989 65.4707 152.812C66.3552 152.635 67.2397 152.458 68.1242 152.458C63.7017 158.294 56.4488 162.184 49.196 163.422V163.422ZM64.7631 175.977C64.0555 171.556 65.1169 167.666 66.709 163.776C66.3552 168.02 66.1783 172.087 64.7631 175.977ZM68.8318 130.53C69.5394 133.183 69.8931 136.189 70.2469 139.018C70.2469 140.079 70.2469 141.317 70.2469 142.555C68.1242 139.018 67.5935 134.421 68.8318 130.53V130.53ZM74.6694 143.263C75.5539 141.494 76.7922 139.726 78.7381 139.195C79.2688 139.018 79.6226 139.018 80.1533 139.018C80.3302 141.14 81.9223 143.086 84.9296 144.5C81.3916 144.854 78.2074 147.683 77.146 151.043C76.0846 150.69 75.0232 150.159 74.4925 148.921C73.4311 147.153 73.9618 144.854 74.6694 143.263V143.263ZM120.309 167.489C119.248 167.312 118.01 167.489 116.948 167.489C117.833 166.782 118.717 165.721 119.248 164.837C119.425 165.721 119.956 166.605 120.309 167.489V167.489ZM122.432 161.123C125.616 157.233 130.393 160.416 132.515 163.245C133.577 164.483 134.107 165.721 134.638 167.136C134.284 168.02 134.107 169.081 133.931 169.788C133.754 170.849 134.638 171.38 135.346 171.203C135.346 171.556 135.346 171.733 135.346 172.087C134.461 172.617 133.754 173.148 133.046 173.855C132.515 174.209 131.985 174.739 131.631 175.27C131.454 175.093 131.277 175.093 131.1 174.916C127.385 173.325 118.717 165.721 122.432 161.123V161.123ZM146.667 174.916C147.729 178.63 146.313 181.813 143.483 184.112C141.537 185.88 136.23 188.886 134.992 184.819C135.523 184.996 136.053 184.996 136.407 184.996C137.822 185.173 137.822 183.051 136.407 182.874C135.876 182.874 135.346 182.697 134.815 182.697C134.992 180.398 136.584 178.63 138.884 178.63C138.884 178.63 138.884 178.63 138.884 178.807C137.999 179.868 138.53 181.636 138.884 182.874C139.061 183.405 139.591 183.758 140.122 183.758C142.245 183.581 146.667 182.52 144.898 179.337C143.66 177.038 140.476 175.977 137.822 176.154C134.815 176.508 133.046 178.984 132.515 181.636C131.985 181.282 131.631 180.752 131.631 179.868C131.808 177.923 133.931 176.154 135.346 174.916C138.353 172.441 145.075 169.434 146.667 174.916V174.916ZM140.83 163.776C144.191 163.422 141.714 167.489 140.653 168.55C140.299 168.904 140.299 169.434 140.476 169.788C139.591 169.965 138.707 170.319 137.822 170.672C137.999 169.434 137.645 168.02 137.115 166.782C137.822 165.19 139.061 163.952 140.83 163.776ZM153.212 169.611C154.097 171.026 153.743 172.971 153.036 174.386C152.328 175.977 150.913 177.038 149.675 177.923H149.498C149.675 175.801 149.321 173.678 147.906 171.733C146.667 170.142 145.075 169.434 143.483 169.434C146.49 167.136 150.913 165.544 153.212 169.611V169.611ZM132.338 184.112C132.338 184.289 132.338 184.289 132.338 184.466C132.338 184.466 132.162 184.466 131.985 184.289C130.216 184.112 128.8 184.819 127.739 185.88C127.031 186.057 126.147 186.057 125.439 186.057C123.847 186.234 122.255 186.057 120.84 185.527C118.717 184.642 117.656 182.874 117.656 180.929C117.656 179.337 118.894 177.746 120.486 177.215C123.493 176.508 126.324 178.984 128.624 180.398C128.977 180.575 129.154 180.752 129.331 180.575C129.508 182.52 130.746 183.581 132.338 184.112V184.112ZM155.158 181.459C155.335 181.813 155.866 182.167 156.397 181.99C156.397 182.167 156.574 182.167 156.574 182.167C157.812 182.874 158.873 183.758 159.404 185.35C160.288 188.179 158.519 191.362 156.75 193.484C154.981 195.783 152.505 197.551 149.675 198.259C147.021 198.789 145.783 196.667 145.252 194.368C145.429 193.131 145.252 192.07 144.898 190.832C144.544 189.594 142.422 189.771 142.422 191.185C142.422 192.246 142.599 193.484 142.775 194.722C142.599 198.789 139.591 201.796 134.815 201.265C129.862 200.558 126.324 192.246 128.447 188.356C129.862 188.179 131.1 187.825 132.162 187.118C132.338 187.118 132.515 186.941 132.692 186.764C132.869 186.764 132.869 186.588 132.869 186.411C133.931 188.71 136.407 189.594 139.237 189.063C143.306 188.356 147.198 184.996 148.79 180.929C149.675 180.752 150.382 180.575 151.09 180.221C152.328 180.575 153.743 180.929 155.158 181.459V181.459ZM155.512 178.63C155.866 178.276 156.22 177.746 156.397 177.392C158.166 176.331 159.404 174.739 160.465 172.971C165.419 169.434 172.141 168.197 178.155 168.373C174.44 174.032 167.718 175.801 161.35 177.923C162.057 177.392 162.588 176.862 163.296 176.331C165.065 175.093 167.895 174.386 169.133 172.617C169.487 172.264 169.133 171.733 168.603 171.556C166.303 170.849 163.296 173.325 161.527 174.563C159.581 175.801 157.812 177.392 156.574 179.337C156.22 179.16 155.866 178.984 155.512 178.807C155.512 178.807 155.512 178.807 155.512 178.63ZM156.043 171.733C156.574 171.733 157.104 171.556 156.927 170.849C156.75 166.074 157.989 161.3 161.704 157.94C164.18 163.068 160.112 168.02 157.281 172.794C156.75 173.325 156.043 173.855 155.689 174.386C155.866 173.502 156.043 172.617 156.043 171.733V171.733ZM173.025 191.185C169.664 188.71 166.657 186.057 165.065 182.343C169.664 182.874 171.964 186.941 173.025 191.185ZM174.263 195.96C175.148 196.314 176.386 195.96 176.209 194.899C176.209 194.722 176.209 194.368 176.209 194.192C179.394 191.362 184.347 188.533 188.415 189.24C189.477 189.417 190.007 189.771 190.361 190.478C190.361 191.009 190.538 191.539 190.715 192.246C190.715 192.423 190.715 192.423 190.892 192.6C190.892 192.777 190.892 192.954 190.892 193.307C190.715 193.307 190.715 193.484 190.715 193.484C190.361 194.015 190.361 194.368 190.715 194.722C190.184 197.198 189.3 199.674 187.708 201.619C187 201.442 186.116 202.149 186.293 203.033C185.408 203.741 184.7 204.271 183.816 204.625C181.516 205.509 177.094 205.686 176.032 203.564C177.094 203.741 178.332 203.741 179.394 203.741C180.632 203.741 180.455 201.972 179.394 201.972C178.509 201.972 177.094 201.796 175.856 201.442C175.856 201.442 175.856 201.265 175.856 201.088C176.209 200.204 177.271 198.789 178.686 197.728C178.509 198.082 178.332 198.259 178.332 198.612C177.978 199.32 178.155 200.204 179.04 200.381C181.339 201.265 186.293 202.326 186.823 198.789C187.354 196.137 184.7 194.015 182.401 193.661C178.332 193.307 174.617 196.844 173.556 200.558C173.202 200.204 172.848 199.85 172.848 199.497C172.318 198.259 173.379 196.844 174.263 195.96V195.96ZM177.448 189.947H177.625C176.917 190.301 176.386 190.832 175.679 191.362C175.325 189.947 174.971 188.71 174.263 187.472C174.971 188.356 176.209 189.24 177.448 189.947V189.947ZM182.578 179.868C184.877 179.337 187.354 178.984 189.477 180.045C191.953 181.459 190.538 184.466 190.892 186.588C190.715 186.941 190.538 187.295 190.538 187.649C189.3 186.764 187.531 186.588 185.585 186.941C183.285 187.295 180.986 188.179 178.863 189.24C178.863 188.886 178.863 188.533 178.332 188.179C172.848 184.819 178.863 181.106 182.578 179.868ZM192.838 196.314C194.607 196.49 196.553 196.314 197.614 197.728C198.675 199.32 197.968 201.796 197.26 203.387C196.553 204.979 195.314 206.393 193.722 206.924C192.484 207.277 191.423 206.747 190.538 205.863C190.184 204.979 189.831 204.094 189.3 203.387C190.892 201.442 192.13 198.966 192.838 196.314V196.314ZM207.344 178.453C205.044 184.112 200.975 189.063 195.491 191.539C196.199 190.655 196.907 189.771 197.614 189.063C198.499 188.002 199.56 186.941 200.091 185.703C200.444 184.642 199.029 183.935 198.322 184.642C196.376 186.234 194.607 188.356 193.015 190.478C192.838 190.124 192.661 189.947 192.484 189.594C192.661 183.405 201.329 180.045 207.344 178.453V178.453ZM213.358 197.021C210.174 196.49 207.167 196.137 204.159 195.783C202.744 195.783 200.621 195.253 199.029 195.606C198.145 194.899 197.26 194.545 196.022 194.192C202.213 193.307 210.705 190.478 213.358 197.021V197.021ZM162.765 209.046C156.75 209.223 149.321 209.4 144.544 205.686C151.09 203.918 157.458 204.979 162.765 209.046ZM170.195 211.522C168.072 214.351 165.949 217.004 162.942 218.949C163.826 217.357 165.065 215.766 166.303 214.351C167.541 212.936 168.78 212.229 170.195 211.522ZM188.062 211.168C186.646 212.759 183.993 213.467 181.87 213.82C179.924 213.997 176.386 213.82 174.794 212.406C174.794 211.698 174.794 210.991 174.617 210.107C174.617 209.93 174.617 209.753 174.44 209.576C174.617 209.223 174.794 209.046 174.971 208.692C175.856 207.631 174.44 206.216 173.556 207.277C173.379 207.277 173.379 207.278 173.379 207.454C173.202 207.278 173.202 207.277 173.025 207.277C170.195 206.747 167.718 208.162 165.065 206.57C163.119 205.332 162.588 202.857 162.588 200.735C162.588 198.789 163.473 196.49 165.065 195.253C167.011 193.661 169.664 194.368 171.61 195.429C171.61 195.606 171.433 195.606 171.433 195.783C170.372 197.375 169.841 199.674 171.256 201.442C171.787 202.149 172.494 202.68 173.379 203.033C173.556 204.979 174.617 206.747 177.448 207.454C181.163 208.692 184.7 207.631 187.354 205.332C187.708 206.04 188.062 206.57 188.415 206.924C188.946 208.339 188.946 209.753 188.062 211.168V211.168ZM123.67 223.723C122.432 223.547 121.017 223.546 119.602 223.37C120.486 222.839 121.548 222.309 122.432 221.955C123.493 221.424 124.732 221.071 125.793 220.363C126.501 220.363 127.208 220.363 127.916 220.363C126.324 221.424 125.086 222.485 123.67 223.723ZM117.479 223.37C116.771 223.37 115.887 223.193 115.179 223.193C116.418 222.485 117.656 221.601 118.894 220.894C119.071 220.717 119.425 220.54 119.602 220.363C120.309 220.363 120.84 220.363 121.371 220.363C120.132 221.071 118.894 221.778 117.833 222.485C117.479 222.662 117.302 223.016 117.479 223.37ZM113.941 223.193C112.703 223.016 111.464 223.016 110.226 223.016C111.111 222.485 111.818 221.955 112.703 221.601C113.764 221.071 114.825 220.717 115.887 220.187C116.064 220.187 116.064 220.187 116.241 220.187C115.533 220.717 114.825 221.248 114.118 221.601C113.587 222.132 113.587 222.839 113.941 223.193ZM107.573 222.309C107.396 222.485 107.219 222.662 107.219 222.839C104.919 222.662 102.619 222.662 100.32 222.485C101.558 221.601 102.973 220.717 104.388 220.01C105.273 220.01 106.157 220.01 107.042 220.01C106.511 220.363 105.981 220.717 105.45 221.071C104.388 221.601 105.273 223.193 106.334 222.485C107.219 221.955 108.28 221.424 109.342 221.071C108.634 221.424 108.103 221.955 107.573 222.309V222.309ZM97.4894 222.309C94.659 222.309 91.8286 222.132 88.9982 221.955C90.0596 221.248 91.2979 220.363 92.1824 219.479C95.0128 219.479 98.0201 219.656 100.85 219.833C99.6122 220.54 98.5508 221.424 97.4894 222.309V222.309ZM80.5071 221.778C82.2761 221.248 83.8682 220.54 84.7527 219.126C86.3447 219.126 87.9368 219.302 89.5289 219.302C88.2906 220.187 87.0523 221.071 85.814 221.955C84.0451 221.778 82.2761 221.778 80.5071 221.778V221.778ZM76.6153 219.302C75.377 219.656 73.7849 219.833 72.3697 219.833C72.9004 219.479 73.4311 219.126 73.7849 218.595C75.0232 218.772 76.2615 218.772 77.6767 218.772C77.3229 218.949 76.9691 219.126 76.6153 219.302V219.302ZM64.94 220.717C64.4093 220.894 64.2324 221.248 64.2324 221.601C63.3479 221.601 62.6403 221.601 61.9327 221.601C61.7558 220.54 61.7558 219.479 61.5789 218.418C64.4093 218.418 67.2397 218.418 70.07 218.595C68.478 219.479 66.709 220.187 64.94 220.717ZM193.015 290.568C199.914 291.629 183.639 291.629 182.224 291.629C174.971 291.275 167.718 290.214 160.465 289.684C159.581 289.684 158.519 289.684 157.635 289.507C169.487 288.799 181.339 288.799 193.015 290.568V290.568ZM202.567 221.071C203.982 221.071 205.398 221.071 206.813 221.071C206.105 221.601 205.398 221.955 204.513 222.132C204.336 222.309 204.336 222.309 204.159 222.485C202.921 222.485 201.86 222.309 200.621 222.309C201.329 221.955 202.037 221.601 202.567 221.071ZM214.95 222.309C215.835 221.955 216.896 221.601 217.781 221.071C218.488 221.071 219.196 221.071 219.903 221.071C218.842 221.778 217.957 222.485 217.25 223.193C217.25 223.193 217.25 223.193 217.073 223.37C215.835 223.193 214.419 223.193 213.181 223.016C213.712 222.839 214.243 222.485 214.95 222.309V222.309ZM221.319 222.662C222.38 222.132 223.618 221.778 224.503 221.071C225.033 221.071 225.741 221.071 226.449 221.071C225.21 221.601 223.972 222.485 223.088 223.37V223.546C222.026 223.546 221.142 223.546 220.08 223.546C220.434 223.193 220.965 222.839 221.319 222.662ZM257.583 143.439C257.052 144.324 256.345 145.385 255.991 146.092C254.576 148.568 252.983 151.043 251.391 153.342C248.915 156.879 245.731 159.885 242.193 162.184C242.9 161.477 243.608 160.769 244.138 160.062C245.554 158.47 246.969 157.056 248.384 155.464C249.269 154.58 248.03 153.342 247.146 154.226C245.554 155.641 244.138 157.056 242.546 158.47C241.839 159.178 240.954 159.885 240.247 160.769C241.662 153.165 250.861 147.33 257.583 143.439ZM238.124 164.306C235.824 161.123 232.817 158.47 230.517 155.287C232.286 155.995 233.878 156.879 235.294 158.47C235.294 158.47 235.294 158.47 235.47 158.47C235.647 159.355 235.824 160.062 236.001 160.946C236.178 161.477 236.886 161.654 237.239 161.3C237.416 161.477 237.593 161.83 237.593 162.007C237.77 162.715 237.947 163.422 238.301 164.129C238.301 164.129 238.301 164.129 238.124 164.306V164.306ZM224.326 83.4916C224.68 84.199 225.033 84.9063 225.564 85.6137C226.802 87.382 228.041 89.6809 229.81 90.7419C230.517 91.0956 231.225 90.5651 231.048 89.8578C230.517 87.9126 228.748 86.1442 227.51 84.3758C226.802 83.4916 226.095 82.4306 225.564 81.3696C233.348 85.4368 236.709 93.3945 236.532 102.06C231.402 97.6386 227.333 91.803 224.326 85.6137C224.326 84.9063 224.326 84.199 224.326 83.4916V83.4916ZM221.672 111.609C218.488 105.419 218.842 98.1691 223.088 92.5103C224.857 99.2301 225.033 105.596 221.672 111.609ZM209.643 75.7108C209.466 75.7108 209.289 75.8876 209.289 75.8876C207.874 78.0097 207.874 81.1927 204.867 81.9001C202.921 82.4306 200.798 80.8391 199.56 79.6012C196.553 76.595 194.607 71.113 200.091 70.052C200.268 71.4667 200.621 72.8814 201.683 74.1193C203.275 75.8876 205.928 76.4182 208.228 76.0645C208.759 75.8876 209.113 75.7108 209.643 75.7108V75.7108ZM211.766 66.1616C211.412 65.6311 210.528 65.4543 209.997 65.8079C209.113 66.3384 208.228 66.869 207.874 67.93C207.344 68.991 207.697 69.8752 207.344 70.9362C207.344 71.2899 207.344 71.6436 207.697 71.9972C207.52 71.9972 207.344 71.9972 207.167 71.9972C204.69 72.3509 202.921 70.4057 202.567 67.93C202.567 67.2226 202.744 66.3384 202.921 65.6311C202.921 65.2774 202.921 65.1006 202.744 64.9237C204.867 60.8565 213.004 61.9175 213.712 67.3995C213.889 69.3447 213.004 70.7594 211.766 71.8204C212.12 71.113 212.474 70.4057 212.474 69.3447C212.651 68.2836 212.12 67.2226 211.766 66.1616V66.1616ZM221.495 75.1803C219.903 72.5277 217.604 70.9362 215.127 71.2899C216.188 69.3447 216.365 66.869 215.304 64.3932C211.766 56.9661 198.852 59.4418 200.091 68.1068C199.914 67.93 199.737 67.93 199.383 67.93C196.553 68.4605 194.253 70.2289 194.076 73.4119C193.899 76.2413 195.845 79.2475 197.791 81.1927C199.737 83.3148 202.567 84.9063 205.575 84.199C208.759 83.6685 211.412 79.2475 210.705 76.0645C210.528 75.7108 210.174 75.534 209.82 75.534C210.882 75.1803 211.766 74.8266 212.65 74.1193C212.827 74.1193 212.827 74.2961 213.004 74.1193C213.358 74.1193 213.535 74.1193 213.712 74.1193C215.658 75.7108 217.957 76.595 220.257 76.9487C220.257 77.1255 220.434 77.3023 220.611 77.4792C219.726 77.3023 218.842 77.8328 219.019 78.717C219.903 81.0159 220.788 83.3148 221.672 85.4368C221.319 87.0284 220.611 88.4431 219.55 89.5041C214.773 94.2787 205.928 90.7419 202.744 85.9673C202.037 84.9063 200.444 85.9673 201.152 87.0284C201.683 87.9126 202.39 88.6199 203.098 89.3272C198.145 88.9736 192.838 91.2725 190.715 85.0832C190.538 84.5527 190.538 84.199 190.361 83.6685C190.715 83.6685 190.892 83.6685 191.246 83.4916C191.953 83.3148 191.953 82.2538 191.246 82.0769C190.892 82.0769 190.538 81.9001 190.361 81.9001C190.184 77.4792 192.661 72.8814 195.314 69.6983C196.199 68.8142 194.784 67.3995 193.899 68.2837C190.715 71.8204 188.238 76.595 187.885 81.3696C181.87 79.2475 179.57 74.1193 180.101 66.6921C180.278 62.8017 181.693 58.5576 184.17 55.5514C184.524 55.3746 184.7 55.0209 184.7 54.844C185.939 53.6062 187.177 52.5452 188.592 52.0147C188.946 52.0147 189.3 52.0147 189.477 52.0147C190.007 52.0147 190.184 51.8378 190.361 51.4841C191.423 51.3073 192.484 51.3073 193.545 51.4841C193.722 51.4841 193.722 51.661 193.899 51.661C194.076 51.8378 194.253 51.8378 194.43 51.8378C192.661 54.3135 191.423 57.1429 191.776 60.1492C192.13 63.5091 195.491 66.869 199.206 66.1616C199.914 65.9848 199.914 65.1006 199.383 64.7469C197.083 63.3322 194.43 62.9785 194.076 59.7955C193.899 57.3198 194.961 54.6672 196.553 52.8988C197.614 51.4841 199.737 49.3621 201.683 49.7158C203.098 50.0694 203.806 51.1305 204.336 52.5452C204.159 53.6062 203.982 54.844 203.982 55.9051C203.982 56.6124 204.69 56.9661 205.221 56.6124C205.221 56.9661 205.398 57.1429 205.398 57.3198C205.398 58.5576 207.344 58.5576 207.167 57.3198C207.167 56.9661 207.167 56.6124 207.167 56.2587C208.405 52.3683 209.643 49.1853 212.297 46.179C215.481 42.4655 223.972 40.5203 224.326 47.4169C224.68 51.8378 221.142 57.1429 217.604 60.6797C216.896 61.0333 216.188 61.7407 215.835 62.2712C215.658 62.2712 215.658 62.2712 215.658 62.2712C215.658 62.2712 215.658 62.2712 215.658 62.448C215.658 62.448 215.481 62.448 215.481 62.6249C214.596 63.8627 216.365 64.9237 217.25 64.0396C217.957 63.5091 218.842 62.8017 219.55 61.9175C223.795 59.0881 231.579 58.2039 232.109 64.9237C232.463 68.4605 228.748 72.3509 225.918 73.9424C224.503 74.8266 223.088 75.1803 221.495 75.1803V75.1803ZM186.293 34.8615C188.238 36.9835 190.184 39.1056 191.776 41.4044C193.545 44.057 194.784 47.0632 196.199 49.7158C196.022 49.8926 196.022 50.0694 195.845 50.0694C195.845 50.0694 195.668 50.0694 195.668 49.8926C195.491 49.8926 195.314 49.8926 195.314 49.8926C191.246 46.3559 184.347 40.6971 186.293 34.8615V34.8615ZM200.621 38.7519C200.975 41.2276 199.914 43.3496 198.675 45.4717C198.675 42.996 199.383 40.8739 200.621 38.7519V38.7519ZM206.813 37.514C207.697 40.6971 206.99 43.8802 205.928 47.0632C205.044 43.7033 205.221 40.5203 206.813 37.514ZM154.274 39.4592C153.92 36.6298 153.743 33.8004 153.389 30.9711C153.212 29.91 151.444 30.2637 151.62 31.1479C151.797 33.9773 151.974 36.6298 152.151 39.4592C152.328 41.4044 152.328 43.7033 153.036 45.6485C152.682 46.179 152.505 46.7095 152.328 47.4169C152.505 45.2948 152.151 43.3496 151.974 41.4044C151.444 38.3982 151.267 35.392 150.559 32.3858C150.382 32.2089 150.382 32.0321 150.205 31.8552C150.913 29.2027 151.974 26.5501 154.097 24.0744C154.274 23.8976 154.451 23.7207 154.628 23.5439C154.451 23.7207 154.451 23.8976 154.451 24.2513C154.805 25.6659 154.981 27.2575 154.981 28.6722C154.981 28.3185 154.981 27.788 154.805 27.2575C154.628 26.1965 152.682 26.5501 153.036 27.788C153.566 30.6174 153.743 33.6236 154.097 36.453C154.097 36.9835 154.097 38.7519 154.628 39.4592C154.628 39.8129 154.451 40.3434 154.451 40.6971C154.274 40.3434 154.274 39.8129 154.274 39.4592V39.4592ZM148.259 52.0147C147.906 50.6 147.552 49.0084 147.198 47.5937C146.313 44.5875 145.783 41.4044 145.252 38.2214C145.075 37.3372 143.483 37.514 143.483 38.3982C143.837 40.8739 144.191 43.5265 144.544 46.179C143.837 43.5265 143.306 40.8739 142.599 38.2214C142.245 37.1603 140.83 37.3372 140.653 38.2214C140.476 37.514 140.476 36.8067 140.299 36.0993C140.122 34.8615 138.176 35.2151 138.353 36.2762C138.53 38.3982 138.707 41.2276 138.884 44.057C138.707 43.1728 138.353 42.4655 138.353 41.9349C137.469 38.2214 136.938 34.5078 135.876 30.9711C135.523 29.7332 133.754 30.2637 134.107 31.5016C134.992 35.392 135.523 39.4592 136.23 43.3496C136.407 44.057 136.584 44.9412 136.761 45.8254C136.407 45.4717 135.876 45.118 135.523 44.7643C135.523 44.7643 135.7 44.5875 135.7 44.4107C136.053 42.4655 135.169 40.5203 134.815 38.575C134.461 35.7457 133.931 32.9163 133.046 30.2637C132.869 29.7332 132.515 29.5564 132.162 29.5564C133.754 29.2027 135.876 30.0869 137.822 31.1479C141.36 33.0931 144.721 36.453 146.667 39.9897C146.49 40.1666 146.313 40.5203 146.49 40.8739C147.198 44.4107 147.375 48.4779 148.613 52.0147C148.436 52.0147 148.436 52.0147 148.259 52.0147V52.0147ZM143.306 50.4231C142.599 48.4779 141.891 46.7095 141.537 44.7643C141.183 42.996 141.006 41.2276 140.653 39.6361C141.537 42.4655 142.068 45.6485 142.775 48.4779C142.952 49.1853 143.129 49.7158 143.306 50.4231V50.4231ZM131.631 35.9225C131.1 33.9773 130.923 32.0321 130.746 29.91C130.923 29.91 131.277 29.7332 131.454 29.7332C131.1 29.91 130.923 30.2637 131.1 30.7942C131.808 33.0931 132.162 35.392 132.515 37.8677C132.162 37.1603 131.985 36.453 131.631 35.9225V35.9225ZM114.295 81.0159C114.118 81.1927 114.118 81.3696 113.941 81.5464C113.233 82.2538 112.349 82.9611 111.641 83.8453C111.641 82.7843 111.641 81.9001 111.641 81.0159C112.526 81.0159 113.41 81.0159 114.295 81.0159V81.0159ZM116.771 81.1927C120.132 81.1927 123.493 81.3696 126.855 81.5464C127.739 81.5464 128.977 81.7233 130.039 81.7233C127.916 82.6074 125.97 84.0221 123.847 84.9063C123.67 84.9063 123.493 84.9063 123.317 84.9063C123.317 84.9063 123.317 84.9063 123.493 84.9063C124.555 84.0221 125.793 83.4916 126.678 82.4306C126.855 82.0769 126.501 81.7233 126.324 81.7233C124.024 81.5464 121.725 83.3148 120.132 85.0832C119.425 85.26 118.54 85.4368 117.656 85.4368C118.363 84.9063 119.071 84.3758 119.956 83.6685C120.132 83.4916 119.779 83.3148 119.602 83.3148C118.01 84.199 116.594 85.0832 115.179 85.9673C113.941 86.1442 112.88 86.4979 111.641 86.8515C111.641 86.4979 111.641 86.321 111.641 85.9673C111.818 85.9673 112.172 85.9673 112.349 85.6137C113.233 84.7295 114.295 83.6685 115.179 82.7843C115.71 82.2538 116.418 81.7233 116.771 81.1927V81.1927ZM131.1 81.7233C133.931 81.7233 136.584 81.7233 139.237 80.8391C139.945 82.2538 141.006 83.6685 142.068 84.9063C138.707 84.9063 135.346 84.7295 131.985 84.7295C131.985 84.3758 131.808 84.199 131.277 84.199C130.923 84.199 130.746 84.3758 130.569 84.7295C129.862 84.7295 129.154 84.7295 128.447 84.7295C129.331 84.0221 130.393 83.4916 131.1 82.6074C131.277 82.2538 131.277 81.9001 131.1 81.7233V81.7233ZM137.645 68.1068C148.436 69.8752 154.805 79.7781 158.343 89.5041C154.981 85.4368 150.913 81.9001 146.313 79.0707C145.252 78.5402 144.368 80.1317 145.429 80.6622C150.205 84.0221 154.097 87.9126 157.635 92.5103C146.844 88.0894 138.707 80.6622 137.645 68.1068ZM161.527 67.5763C162.234 71.8204 162.588 76.2413 162.411 80.6622C161.881 80.3086 160.996 80.4854 160.996 81.3696C160.996 82.4306 160.996 83.4916 160.819 84.3758C159.404 78.8939 159.404 72.8814 161.527 67.5763V67.5763ZM162.942 95.3397C164.18 96.0471 165.595 96.5776 166.657 96.9312C167.718 97.1081 168.249 96.0471 167.895 95.5165C168.426 95.3397 168.956 94.6324 168.603 93.925C166.834 90.3883 168.78 87.9126 171.787 86.6747C173.202 86.4979 174.617 86.6747 176.032 87.382C179.394 89.3272 177.801 93.2177 178.509 96.2239C178.686 96.2239 178.686 96.2239 178.686 96.2239C177.801 96.2239 176.917 96.2239 176.209 96.4007C173.025 96.5776 169.664 97.6386 167.188 99.7606C166.126 100.645 165.595 101.706 165.419 102.944C163.473 103.651 161.35 104.535 159.227 105.596C157.812 105.95 156.574 105.95 155.158 105.596C149.144 104.182 153.566 98.5228 156.22 97.6386C159.227 96.4007 161.527 98.3459 162.234 101.352C162.588 102.767 164.711 102.06 164.357 100.822C163.826 98.5228 162.588 96.9312 160.996 96.0471C161.173 96.2239 161.35 96.2239 161.704 96.2239C162.234 96.4007 162.765 95.8702 162.942 95.3397V95.3397ZM163.119 92.5103C163.473 92.3335 163.65 91.9798 163.65 91.6261C164.003 90.742 164.357 90.0346 164.534 89.1504C165.242 88.6199 166.126 88.0894 167.011 87.7357C165.772 89.6809 165.595 92.1566 166.834 94.8092C165.595 94.4555 163.473 93.925 162.942 92.6872L163.119 92.5103ZM181.693 99.407C183.816 101.175 180.101 104.712 179.394 106.657V106.834C179.217 106.834 179.04 106.834 179.04 106.834C177.271 108.249 176.563 110.371 173.91 110.017C173.202 109.84 172.494 109.487 171.964 109.133C172.494 108.602 172.671 107.895 171.787 107.541C171.433 107.188 171.079 107.011 170.725 106.834C170.902 106.657 170.902 106.48 171.079 106.127C171.256 104.005 172.671 101.706 174.971 102.767C175.325 102.944 175.679 103.121 175.679 103.297C175.856 103.651 175.856 103.651 175.856 103.651C175.325 104.712 173.556 104.712 172.671 105.596C172.494 105.95 172.671 106.657 173.025 106.834C174.794 107.718 177.448 106.127 178.155 104.535C178.686 102.944 177.625 101.706 176.563 100.998C175.148 100.114 173.202 99.9375 171.787 100.645C170.725 101.175 170.018 102.06 169.664 103.121C169.31 102.944 169.133 102.944 168.78 102.944C168.603 102.59 168.426 102.236 168.072 102.06C169.31 100.114 172.494 99.2301 174.617 98.8764C176.74 98.5228 179.924 98.1691 181.693 99.407V99.407ZM154.451 95.3397C148.967 97.2849 140.653 97.6386 135.876 94.2787C139.414 93.3945 142.775 93.7482 146.49 94.2787C149.144 94.6324 151.797 95.5165 154.451 95.3397ZM111.464 104.182C111.995 99.0533 111.995 93.925 111.818 88.6199C112.172 88.6199 112.526 88.6199 112.88 88.4431C113.056 88.6199 113.233 88.6199 113.41 88.4431C113.587 88.4431 113.587 88.2662 113.764 88.2662C115.533 87.9125 117.302 87.7357 118.894 87.5589C119.248 88.0894 119.956 88.2662 120.486 87.5589C128.093 87.2052 135.7 88.2662 143.129 86.4979C143.306 86.4979 143.306 86.4979 143.306 86.4979C145.252 88.6199 147.552 90.5651 150.028 91.9798C144.368 90.9188 137.999 90.7419 133.223 92.5103C132.338 92.864 131.985 93.925 132.692 94.6324C136.584 99.2301 144.544 99.9375 151.09 98.6996C150.736 99.2301 150.382 99.9375 150.205 100.822C149.675 103.297 150.736 105.243 152.505 106.48C142.422 106.127 125.793 103.297 111.464 104.182V104.182ZM197.083 119.566C197.614 120.627 198.852 120.981 200.091 121.158C200.268 121.158 200.444 121.158 200.444 121.158C201.683 121.335 201.86 119.92 201.329 119.213C204.159 120.274 206.459 122.042 208.051 124.695C203.098 124.871 199.029 122.396 195.668 118.859C196.199 119.036 196.553 119.39 197.083 119.566V119.566ZM161.35 141.671C158.519 136.189 161.704 130.353 165.242 125.756C164.888 131.238 164.534 136.896 161.35 141.671ZM95.5435 83.3148C99.9659 85.9673 102.619 90.7419 104.919 95.5165C104.742 95.3397 104.565 95.3397 104.565 95.1629C103.504 94.1018 101.912 95.6934 102.973 96.7544C103.681 97.6386 104.388 98.6996 105.096 99.7606C99.6122 96.4007 96.6049 89.6809 95.5435 83.3148V83.3148ZM96.0742 102.236C97.3125 102.413 98.5508 102.413 99.9659 102.59C101.381 102.944 102.796 103.474 104.212 104.182C101.204 104.182 98.3739 103.651 96.0742 102.236V102.236ZM169.841 44.7643C172.494 44.057 174.971 44.2338 177.271 44.7643C176.563 45.118 176.563 46.179 177.271 46.8864C178.332 47.4169 179.217 48.1242 180.278 48.8316C176.563 47.9474 173.025 46.7095 169.841 44.7643V44.7643ZM268.904 236.632C269.966 236.632 270.496 234.687 269.081 234.51C265.366 233.98 261.475 233.626 257.583 233.273C257.583 233.273 257.583 233.273 257.583 233.096C254.576 215.589 265.543 185.527 251.391 171.38C248.384 168.197 245.023 166.605 241.308 165.544C245.731 163.245 249.269 159.885 252.453 155.995C255.283 152.281 260.413 145.738 260.59 140.964C260.59 140.256 259.529 139.726 258.821 140.079C253.337 143.086 248.03 146.799 243.431 151.043C241.662 152.812 239.362 155.464 238.301 158.117C238.124 157.94 237.947 157.763 237.77 157.586C237.947 148.568 237.239 138.842 236.001 130C234.94 122.219 232.286 114.261 225.033 110.371C227.333 105.066 228.218 98.1691 225.741 93.0408C228.748 97.8154 232.463 102.236 236.886 105.773C237.77 106.304 238.655 105.419 238.832 104.712C239.716 96.5776 237.593 88.7967 232.286 83.3148C233.701 83.4916 235.117 83.4916 236.532 83.3148C237.416 83.138 237.593 81.9001 237.063 81.1927C234.586 78.3634 231.225 76.4182 227.51 75.7108C231.756 73.5888 234.94 69.3447 234.409 63.8627C233.878 57.4966 228.041 56.6124 222.734 58.2039C226.449 52.722 229.102 45.8254 224.149 41.7581C219.373 37.8677 213.181 41.0508 209.113 45.8254C209.82 41.7581 209.643 37.6909 208.051 34.331C207.52 33.4468 206.459 33.6236 206.105 34.331C202.744 38.575 202.39 43.7033 204.159 48.4779C203.629 48.1242 203.275 47.9474 202.567 47.5937C202.037 47.4169 201.506 47.4169 200.975 47.4169C203.098 43.8802 203.629 39.1056 202.213 35.7457C201.86 35.0383 200.798 35.0383 200.444 35.392C197.968 38.0445 196.553 40.6971 196.376 43.8802C193.899 39.2824 190.007 35.2151 186.823 31.8552C186.293 31.3247 185.231 31.3247 184.877 32.0321C181.163 38.575 186.116 44.5875 190.892 49.1853C190.538 49.1853 190.007 49.1853 189.654 49.1853C183.108 42.996 175.502 39.8129 166.657 43.1728C165.595 43.5265 165.419 44.7643 166.303 45.2948C171.433 49.0084 177.448 51.3073 183.639 51.8378C183.108 52.3683 182.755 52.8988 182.224 53.4293C173.025 53.9599 163.65 53.2525 154.451 52.5452C155.335 48.8316 155.866 44.7643 156.22 43.1728C157.635 36.8067 160.819 26.727 157.635 20.5377C157.458 20.0072 156.75 19.8303 156.22 20.184C150.205 24.4281 147.198 29.5564 147.906 36.9835C147.906 37.1603 147.906 37.1603 147.906 37.3372C143.837 31.5016 133.046 21.9524 128.093 29.2027C124.909 33.8004 128.093 40.3434 131.454 43.8802C134.284 46.8864 137.822 49.1853 141.183 51.4841C140.299 51.4841 139.414 51.4841 138.353 51.4841C131.631 51.1305 121.371 51.4841 116.064 56.7892C105.273 67.7531 109.872 85.7905 109.518 100.291C105.981 92.6872 102.796 83.6685 94.4821 80.3086C93.9514 79.9549 93.0669 80.6622 93.0669 81.3696C93.7745 88.2662 96.428 96.4007 102.089 100.645C99.0815 99.7606 95.5435 99.7606 92.7131 99.7606C92.0055 99.7606 91.121 100.822 91.6517 101.706C93.5976 104.005 96.2511 105.419 99.0815 106.127C88.8213 108.956 81.9223 115.676 83.3375 129.469C83.3375 130.177 84.5758 130.53 84.7527 129.646C90.0596 92.864 129.685 112.316 154.451 108.602C150.382 111.609 147.375 115.499 148.613 120.627C151.267 130.884 160.112 126.463 165.772 120.981C165.772 121.158 165.595 121.335 165.595 121.688C162.411 123.103 160.465 127.347 159.227 130.353C157.281 134.774 157.104 140.61 160.112 144.5C160.465 145.208 161.527 145.561 162.057 144.854C166.657 139.195 167.011 132.829 167.541 126.286C168.072 127.17 168.956 128.055 170.195 128.762C171.079 129.469 172.318 128.055 171.433 127.17C167.718 123.987 167.541 120.451 169.487 116.206C170.018 114.792 168.249 113.731 167.364 114.969C167.364 115.145 167.188 115.322 167.011 115.499C167.011 115.676 166.834 115.853 166.834 116.03C165.242 118.505 163.119 120.627 160.819 122.396C159.05 123.81 156.927 124.871 154.628 124.341C151.444 123.81 150.382 119.213 150.913 116.737C151.62 113.2 154.981 110.371 158.873 108.249C161.35 107.895 164.003 106.834 166.126 105.596C166.48 105.95 166.657 106.304 167.011 106.657C167.364 107.011 167.895 107.365 168.249 107.718C168.603 108.779 169.31 109.663 170.018 110.548C169.841 110.725 169.664 110.901 169.664 111.255C169.31 116.914 171.787 122.749 175.679 126.817C176.74 127.878 178.332 128.939 180.101 129.469C182.931 133.006 186.646 135.128 190.184 131.945C193.192 129.116 194.253 124.518 193.192 120.627C193.192 120.451 193.369 120.274 193.545 119.92C197.614 124.871 203.629 128.055 210.174 126.994C210.882 126.817 211.412 125.933 211.058 125.402C208.405 119.036 202.213 115.499 195.491 115.853C197.26 114.438 198.499 112.316 199.206 110.194C205.044 110.371 210.528 110.017 216.188 111.609C217.604 111.962 218.134 110.017 216.719 109.487C211.589 107.365 205.398 107.541 199.737 107.895C200.975 100.291 197.083 91.6261 189.3 93.7482C188.592 94.1019 188.769 94.986 189.3 95.1629C191.6 96.0471 193.722 96.2239 195.668 98.1691C197.437 99.9375 197.968 102.767 197.968 105.243C198.145 106.304 197.968 107.188 197.791 108.249C197.26 108.426 197.083 108.956 197.26 109.487C197.083 110.194 196.73 110.901 196.376 111.432C196.553 109.31 196.376 107.011 195.491 104.889C193.722 101.175 188.946 100.114 185.585 101.883C184.877 102.236 185.231 103.297 185.939 103.297C188.946 103.297 192.307 103.121 193.545 106.48C194.43 108.956 194.076 111.962 193.192 114.615C192.307 115.145 191.423 115.499 190.361 115.853C188.062 113.023 184.877 110.548 181.339 111.432C180.986 111.609 180.809 112.139 181.339 112.316C183.639 113.731 185.762 114.792 187.531 116.383C187 116.914 187.177 117.798 188.062 117.975C188.415 117.975 188.769 117.975 189.123 117.975C189.3 118.329 189.654 118.682 189.831 119.036C190.184 119.39 190.361 119.92 190.538 120.274C189.654 121.335 188.769 122.219 187.708 122.926C184.347 124.871 181.693 121.335 180.278 118.682C179.57 117.621 177.978 118.682 178.509 119.743C180.278 123.103 183.285 126.817 187.531 125.402C188.946 125.048 190.184 124.164 191.069 123.103C191.423 125.932 190.538 128.762 188.238 130.353C186.646 131.414 185.054 131.061 183.462 129.823C185.231 129.646 187 128.762 187.885 126.817C188.062 126.286 187.708 125.756 187.177 125.932C185.054 126.463 183.639 127.878 181.339 127.524C181.163 127.347 181.163 127.347 180.986 127.347C178.686 124.518 176.917 120.627 176.563 119.036C176.209 117.975 174.794 118.505 174.971 119.39C175.148 120.804 176.032 122.749 177.094 124.871C176.74 124.518 176.563 124.341 176.209 123.987C173.556 120.804 171.61 115.853 171.61 111.609C171.964 111.786 172.494 112.139 172.848 112.139C175.679 113.023 180.809 111.078 180.101 107.541C180.278 107.541 180.278 107.541 180.455 107.365C183.108 106.127 185.939 101.529 183.993 98.6996C183.108 97.2849 181.516 96.7544 179.924 96.4007H180.101C182.047 93.0408 180.455 87.9126 177.448 85.7905C179.394 86.1442 181.163 87.0284 182.578 88.2662C184.877 90.5651 184.7 93.925 185.231 96.9312C185.408 97.6386 186.469 97.4617 186.646 96.9312C188.769 89.3272 182.224 83.138 174.971 83.6685C173.733 83.6685 172.494 84.0221 171.256 84.5527C170.018 84.5527 168.603 84.9063 167.364 85.4368C167.364 85.4368 167.188 85.4368 167.011 85.4368C167.895 84.5527 168.78 83.4916 169.487 82.7843C171.61 80.4854 173.025 78.0097 173.91 75.1803C174.263 74.1193 173.025 73.2351 172.141 73.7656C169.664 75.1803 167.718 77.3023 166.303 79.6012C165.772 80.1317 165.419 80.8391 165.065 81.7233C165.065 81.3696 165.065 81.0159 165.065 80.8391C165.065 75.0035 164.534 69.1678 162.942 63.6859C162.765 62.6249 161.35 62.448 160.996 63.3322C157.635 69.3447 156.927 76.4181 158.166 82.9611C153.743 74.1193 146.844 66.6921 136.407 65.6311C135.876 65.6311 135.346 66.3384 135.346 66.869C135.346 71.2899 136.584 75.534 138.353 79.2475C134.638 79.0707 130.569 79.6012 126.855 79.4244C121.725 79.4244 116.594 79.0707 111.641 78.8939C111.641 74.8266 111.818 70.5825 112.88 66.5153C115.356 55.3746 128.27 52.722 142.775 52.8988C142.952 53.0757 142.952 53.0757 143.129 52.8988C145.429 54.4904 147.552 56.2587 149.321 58.2039C149.675 58.5576 150.205 58.7345 150.559 58.5576C150.736 58.7345 151.09 58.9113 151.267 58.7345C152.682 58.0271 153.566 55.9051 154.274 53.4293C164.357 54.3135 174.087 55.7282 180.632 55.7282C174.971 65.8079 177.448 84.0221 188.062 84.0221C188.238 84.9063 188.415 85.6137 188.592 86.321C189.831 90.0346 194.076 92.3335 197.968 92.5103C198.852 95.6934 200.621 97.8154 203.629 99.0533C206.105 99.9375 210.705 99.9375 212.65 97.8154C212.827 97.4618 212.827 96.9312 212.297 96.7544C209.997 96.2239 207.874 97.4618 205.398 97.1081C202.744 96.5776 200.975 94.8092 200.091 92.3335C201.506 91.9798 202.744 91.4493 203.806 90.5651C203.982 90.5651 203.982 90.3883 203.982 90.3883C209.643 94.986 218.665 95.5165 223.264 88.9736C223.264 88.7967 223.264 88.7967 223.264 88.7967C223.264 88.9736 223.441 88.9736 223.441 89.1504C223.264 89.1504 223.264 89.3272 223.088 89.3272C221.672 90.7419 220.611 92.1566 219.726 93.5713C219.373 93.5713 218.842 93.5713 218.488 93.925C218.488 94.1018 218.488 94.1018 218.488 94.1018C217.957 93.925 217.427 93.925 217.073 94.2787C214.773 96.5776 212.297 98.6996 210.528 101.352C210.174 101.706 210.528 102.236 210.882 102.59C210.351 103.651 209.82 104.712 209.466 105.773C209.113 106.834 210.351 107.895 211.235 107.188C214.066 105.243 215.835 102.59 217.427 99.7606C216.542 104.712 217.604 110.194 220.434 114.792C220.965 115.499 222.026 115.499 222.557 114.792C223.264 113.908 223.618 113.023 224.149 112.139C238.478 121.512 232.994 139.903 234.763 154.757C232.817 153.342 230.694 152.458 228.394 152.281C227.333 152.104 226.626 152.989 226.979 154.05C228.218 156.702 230.34 159.001 232.286 161.123C233.171 162.361 234.232 163.422 235.294 164.306C232.286 163.952 228.925 163.952 225.741 163.952C211.589 164.306 196.73 162.891 182.755 165.544C181.516 165.898 182.047 167.666 183.285 167.489C195.138 165.721 206.813 167.312 218.665 166.782C232.463 166.074 247.676 164.837 253.337 180.221C256.521 188.356 256.345 197.375 255.637 206.393C255.46 206.216 255.283 206.216 255.106 206.216C236.709 208.162 218.842 205.155 200.444 205.686C199.383 205.686 199.383 207.278 200.444 207.454C218.488 208.162 237.416 211.698 255.283 208.162C255.46 208.162 255.46 208.162 255.637 207.985C254.929 216.65 254.045 225.138 255.283 233.273C243.608 232.565 231.932 232.919 220.257 232.742C201.152 232.212 182.047 232.212 163.119 232.565C129.508 232.919 96.0742 233.803 62.6403 234.334C62.6403 234.157 62.6403 234.157 62.6403 234.157C62.6403 230.62 62.4634 227.083 62.1096 223.546C73.608 223.723 85.1065 224.254 96.7818 224.784C96.9587 224.961 97.3125 224.961 97.4894 224.784C105.804 225.138 114.118 225.492 122.432 225.845C122.786 226.376 123.493 226.73 124.024 226.199C124.201 226.022 124.201 226.022 124.201 226.022C125.086 226.022 125.97 226.022 126.855 226.022C127.031 226.376 127.385 226.376 127.739 226.376C128.093 226.376 128.624 226.199 128.977 226.199C138.53 226.553 147.906 226.906 157.458 226.906C170.195 227.083 182.755 225.315 195.491 224.784C195.845 224.961 196.199 225.138 196.553 224.784C196.73 224.784 196.73 224.784 196.73 224.784C199.737 224.608 202.921 224.608 205.928 224.608C220.965 224.961 235.117 227.437 250.153 224.784C251.214 224.608 251.038 223.016 249.976 223.016C241.662 224.077 233.525 224.077 225.387 223.723C225.918 223.37 226.272 223.016 226.802 222.839C227.687 222.309 228.571 222.132 229.102 221.424C229.279 221.248 229.279 221.071 229.279 220.894C236.178 220.894 243.077 220.717 249.976 220.717C251.391 220.717 251.391 218.418 249.976 218.418C226.979 218.241 203.806 218.595 180.809 218.772C179.747 218.772 179.924 220.363 180.809 220.363C186.646 220.717 192.661 220.894 198.499 221.071C197.968 221.424 197.26 221.955 196.73 222.309C188.592 222.485 180.632 223.546 172.494 224.254C173.91 221.248 174.44 218.065 174.617 214.881C176.74 215.943 179.57 216.296 181.87 216.119C185.054 215.943 188.415 214.705 190.361 212.052C191.069 211.168 191.246 210.107 191.246 209.223C191.953 209.4 192.484 209.576 193.369 209.576C196.199 209.4 198.322 206.924 199.383 204.625C200.444 202.68 200.798 200.381 200.268 198.259C201.683 198.259 202.921 198.259 204.159 198.259C207.697 198.612 211.235 199.143 214.773 199.674C215.658 199.85 216.365 199.143 216.188 198.259C214.773 190.655 208.051 189.771 201.506 190.832C205.751 187.295 208.759 182.343 210.351 177.038C210.705 176.154 209.82 175.27 208.936 175.447C204.336 176.508 197.614 178.807 193.545 182.697C193.192 180.929 192.307 179.16 191.069 178.276C188.415 176.331 184.7 176.862 181.693 177.746C178.863 178.63 175.679 180.398 174.087 183.051C173.556 184.289 173.556 185.35 173.733 186.234C171.787 182.697 168.78 179.868 164.357 179.868C171.256 177.569 178.155 174.209 181.163 167.843C181.516 166.959 180.986 166.074 180.101 166.074C174.44 165.721 167.895 166.428 162.411 169.081C162.765 168.373 163.119 167.489 163.473 166.782C164.888 163.245 165.242 159.001 162.942 155.818C162.588 155.287 161.881 154.934 161.35 155.287C157.104 158.47 155.158 162.891 154.981 167.843C152.859 163.952 148.436 164.306 144.721 165.898C145.075 164.129 144.544 162.361 142.245 161.654C139.591 160.769 137.469 162.184 136.053 164.306C135.346 163.068 134.638 162.007 133.931 161.123C130.923 157.233 126.324 155.995 122.078 158.47C121.725 158.647 121.548 158.824 121.194 159.001C121.194 154.05 116.771 150.159 111.287 149.982C112.88 146.269 113.056 141.848 110.58 138.134C108.28 134.774 104.388 133.183 101.912 134.951C100.674 128.055 93.7745 126.463 86.6985 130C83.3375 131.591 81.0378 134.067 80.3302 136.72C79.7995 136.543 79.2688 136.543 78.5612 136.72C76.0846 137.073 74.1387 139.372 72.9004 141.494C72.7235 140.079 72.7235 138.842 72.5466 137.604C72.1928 133.713 71.3083 130.177 69.7163 126.64C69.3625 125.933 68.1242 125.933 67.7704 126.64C66.0014 130.177 65.4707 134.598 66.3552 138.488C61.0482 132.299 53.9723 127.701 46.7194 123.987C46.0118 123.634 45.1273 124.164 45.1273 125.048C43.7121 136.72 54.3261 146.976 65.4707 150.336C57.1564 151.574 49.3729 156.702 45.8349 164.483C45.4811 165.19 46.0118 166.428 46.8963 166.251C53.2647 165.544 59.9868 162.891 65.2938 158.647C61.7558 165.013 61.0482 174.032 63.171 179.868C63.5248 180.929 64.94 181.106 65.4707 180.221C67.2397 177.215 67.9473 174.032 68.3011 170.849C69.1856 175.801 69.5394 180.929 71.3083 185.703C71.6621 186.764 73.2542 186.941 73.608 185.703C74.6694 181.282 75.2001 173.678 70.6007 171.026C70.4238 170.319 70.4238 169.788 70.2469 169.081C73.9618 173.678 80.1533 175.447 85.2833 173.502C84.3989 178.276 84.9296 183.758 84.9296 188.356C84.9296 189.417 86.3447 189.947 87.0523 189.24C90.7672 184.996 91.6517 180.045 91.6517 174.916C92.3593 175.447 93.0669 176.154 93.9514 176.508C97.4894 178.276 101.735 177.038 104.919 175.27C107.219 173.855 109.165 171.91 110.403 169.611C110.757 169.611 111.111 169.788 111.464 169.788C107.573 172.794 105.804 178.099 106.688 183.935C107.573 190.301 114.295 196.667 120.486 195.253C120.132 199.674 122.609 204.448 126.324 207.277C104.388 205.863 82.6299 207.985 60.6944 205.155C60.3406 205.155 60.1637 205.332 60.1637 205.686C59.2792 196.49 59.2792 187.472 62.4634 178.453C62.8172 177.392 61.0482 176.685 60.6944 177.569C52.5571 194.722 59.2792 216.119 60.3406 234.157V234.334C56.6257 234.334 52.9109 234.334 49.196 234.51C48.6653 234.51 48.4884 234.687 48.3115 234.864L48.1346 235.041V235.218H47.9577C47.7808 236.279 48.1346 237.163 48.8422 238.047C47.6039 239.462 46.7194 241.23 47.0732 243.352C47.427 245.828 49.196 247.773 51.3188 249.011C53.6185 250.249 56.2719 250.426 58.5716 249.365C60.8713 248.481 61.7558 246.005 62.2865 243.706C61.9327 252.371 75.9077 253.432 80.1533 246.535C83.3375 253.962 94.4821 253.609 96.428 247.243C98.7277 249.895 102.089 251.487 105.981 250.956C110.049 250.249 112.349 247.243 111.995 243.706C113.941 248.127 118.717 251.664 123.847 250.603C127.739 249.895 130.923 245.474 129.508 241.761H129.685C129.685 241.938 129.685 241.938 129.685 242.114C130.393 248.127 135.346 252.194 141.36 252.017C144.721 252.017 147.375 250.072 148.436 247.596C149.144 257.146 148.436 266.341 146.313 276.067C146.313 276.421 146.313 276.598 146.49 276.774C144.898 276.951 143.306 276.951 141.891 277.128C131.985 277.835 127.031 279.957 122.432 287.561C119.956 288.092 117.479 288.622 115.002 288.976C114.472 289.153 114.295 289.684 114.118 290.214C113.941 291.806 114.295 292.513 115.356 293.751C115.887 294.281 117.125 293.928 116.948 293.043C116.948 292.336 117.125 291.629 117.833 291.098C117.656 291.806 118.01 292.69 118.894 292.867C119.602 292.867 120.309 292.867 120.84 293.043C121.017 293.397 121.371 293.574 121.901 293.574C122.609 293.397 123.493 293.397 124.201 293.22C137.645 293.751 151.09 291.275 164.534 292.336C176.209 293.22 187.708 295.165 199.383 292.69C200.444 292.513 200.444 291.098 199.56 290.568C192.661 285.793 181.163 287.385 173.202 287.385C156.22 287.561 139.945 288.976 123.14 290.921C123.14 290.745 122.963 290.391 122.786 290.214C123.14 289.684 123.317 289.33 123.67 288.976C132.869 287.031 148.436 287.561 151.444 288.092C152.505 288.269 153.036 286.677 151.974 286.324C143.129 284.025 134.107 285.263 125.086 287.031C134.284 276.774 151.974 277.659 167.541 279.073L167.718 279.25C168.072 279.781 168.78 279.604 169.133 279.25C174.617 279.781 179.57 280.134 183.816 280.311C186.293 281.195 188.415 282.256 190.538 284.025C192.13 285.439 193.722 287.738 195.668 288.622C196.553 288.976 197.26 288.269 196.907 287.561C195.845 285.263 192.838 283.141 190.892 281.549C189.3 280.134 187.354 278.896 185.231 278.543C185.054 278.366 184.7 278.189 184.524 278.189C179.394 278.012 174.263 277.659 169.133 277.482C163.826 268.994 165.065 259.268 165.595 249.718C167.364 251.84 170.195 253.255 173.379 252.371C175.325 252.017 177.094 250.426 177.801 248.481C177.978 247.95 178.155 247.596 178.155 247.066C180.632 249.895 184.17 251.664 188.062 251.84C192.484 251.84 196.553 247.066 194.784 242.645C194.784 242.645 194.961 242.645 195.138 242.645C195.138 242.822 195.138 242.822 195.138 242.822C195.314 247.596 197.968 252.725 203.452 252.371C207.697 252.194 211.235 247.066 210.174 242.822C210.351 242.822 210.705 242.822 210.882 242.822C210.528 242.999 210.351 243.352 210.351 243.883C211.235 249.365 215.835 253.078 221.319 251.664C223.264 251.133 225.21 249.895 226.095 247.95C228.041 250.956 231.579 252.548 235.294 251.133C237.416 250.426 238.832 248.834 239.539 246.889C239.716 246.535 239.716 246.005 239.893 245.474C242.546 249.188 247.323 251.664 251.922 251.84C255.46 252.017 257.052 249.542 257.052 246.889C258.467 249.542 261.121 251.487 264.482 250.603C268.374 249.718 270.496 244.236 268.197 241.053C268.374 241.053 268.551 241.053 268.904 241.053C269.612 241.053 270.143 240.346 269.966 239.639C269.435 237.87 269.435 237.87 268.904 236.632V236.632ZM228.394 133.536C229.81 132.652 231.225 131.238 232.286 130C233.171 129.292 231.932 128.055 231.225 128.762C229.987 130 228.571 131.238 227.687 132.829C227.51 133.183 227.864 133.713 228.394 133.536ZM167.188 140.964C178.509 152.104 188.769 150.336 203.275 146.092C212.474 143.263 230.34 154.226 233.878 141.317C234.232 140.433 232.994 139.903 232.463 140.61C230.871 143.616 227.864 144.677 224.326 144.854C224.503 144.677 224.68 144.324 224.857 144.147C225.033 143.793 224.68 143.439 224.326 143.616C223.795 143.97 223.264 144.5 222.734 144.854C221.319 144.854 219.726 144.677 218.311 144.5C219.373 143.97 220.257 143.263 221.142 142.555C222.203 141.494 223.795 140.433 224.149 139.018C224.326 138.665 223.972 138.311 223.618 138.311C222.38 138.842 221.319 140.079 220.257 140.964C219.019 142.202 217.604 143.086 216.012 143.97C215.835 143.97 215.835 144.147 215.658 144.324C215.304 144.147 214.95 144.147 214.419 143.97C215.835 142.555 217.427 141.14 218.842 139.726C219.019 139.549 218.842 139.372 218.488 139.372C216.365 140.256 214.419 142.025 212.827 143.793C211.589 143.616 210.528 143.439 209.466 143.439C210.528 142.378 211.766 141.494 213.004 140.61C213.181 140.433 213.181 140.079 212.827 140.079C210.705 140.256 208.936 141.671 207.52 143.263C207.344 143.263 206.99 143.263 206.813 143.263C207.874 142.378 208.759 141.494 209.466 140.433C209.82 140.256 209.466 139.903 209.113 139.903C206.99 140.61 205.221 142.201 203.452 143.616C200.621 144.147 197.791 145.385 195.138 146.269C184.524 149.629 176.386 146.622 168.249 139.726C167.541 139.018 166.303 140.079 167.188 140.964V140.964ZM141.183 142.378C140.476 142.025 139.945 141.848 139.414 141.671C140.476 140.61 141.537 139.549 142.599 138.488C143.306 137.781 144.014 137.073 144.721 136.189C145.606 136.366 146.667 136.189 147.552 136.189C144.898 137.604 142.599 139.726 141.183 142.378ZM135.7 140.079C136.584 139.195 137.469 138.488 138.353 137.781C139.061 137.073 139.945 136.366 140.653 135.659C141.183 135.835 141.714 135.835 142.245 136.012C142.068 136.189 141.891 136.543 141.537 136.72C140.299 138.134 138.884 139.372 137.469 140.787C136.938 140.61 136.407 140.256 135.7 140.079ZM133.577 139.018C132.869 138.842 132.162 138.488 131.454 138.311C133.046 136.896 134.815 135.835 136.407 134.421C137.115 134.774 137.999 134.951 138.707 135.305C138.353 135.482 137.999 135.835 137.645 136.189C136.584 137.25 135.523 138.311 134.284 139.372C134.107 139.372 133.931 139.195 133.577 139.018ZM129.508 137.781C128.8 137.781 128.27 137.604 127.739 137.604C129.331 136.189 130.923 134.598 132.515 133.183C133.223 133.36 133.931 133.536 134.638 133.89C132.692 134.774 130.923 136.189 129.508 137.781ZM124.555 137.781C124.024 137.781 123.493 137.957 122.963 138.134C123.493 137.604 124.024 137.073 124.555 136.543C126.147 134.951 128.093 133.713 129.685 132.299C129.862 132.475 130.216 132.475 130.393 132.652C128.27 133.89 126.324 135.835 124.555 137.781V137.781ZM149.144 136.189C149.144 136.189 149.144 136.012 149.144 135.835C151.62 135.482 153.92 134.598 156.574 133.183C157.635 132.475 156.75 131.061 155.512 131.414C151.974 133.006 148.967 133.536 146.137 133.36C145.96 133.36 145.783 133.36 145.606 133.36C144.544 133.36 143.483 133.36 142.599 133.183C142.599 132.829 142.422 132.652 142.245 132.652C142.068 132.829 141.891 132.829 141.714 133.006C135.876 131.768 130.569 128.762 123.14 128.055C115.71 127.524 109.342 129.292 102.619 132.299C101.735 132.652 102.266 134.067 103.15 133.89C111.464 131.238 118.01 130.353 125.262 131.414C121.725 132.652 118.894 135.835 116.418 138.488C116.064 139.018 116.594 139.549 117.125 139.195C119.779 136.72 123.493 134.774 125.793 131.768C125.793 131.591 125.793 131.591 125.793 131.591C126.324 131.591 127.031 131.768 127.739 131.945C124.378 133.536 121.548 137.25 119.071 139.726C118.894 140.079 118.894 140.433 119.071 140.787C118.894 140.964 118.717 141.14 118.54 141.317C118.01 141.848 118.894 142.909 119.425 142.201C120.663 140.964 121.901 140.256 123.317 139.903C123.493 140.433 124.201 140.787 124.732 140.256C124.909 140.079 125.086 139.903 125.262 139.726C126.147 139.549 127.031 139.726 127.916 139.726C127.739 139.903 127.739 139.903 127.739 139.903C127.208 140.61 128.447 141.494 128.977 140.787C129.154 140.61 129.508 140.433 129.685 140.079C130.569 140.433 131.631 140.787 132.692 140.964C132.515 141.14 132.515 141.14 132.338 141.317C131.808 141.848 132.692 142.732 133.223 142.201C133.577 142.025 133.754 141.848 133.931 141.494C142.952 144.854 152.328 150.69 157.458 140.61C157.635 140.079 157.104 139.372 156.397 139.726C153.213 142.025 150.736 143.616 147.198 143.616C148.967 142.378 150.736 140.787 151.974 139.018C152.151 138.842 151.797 138.488 151.62 138.665C149.498 140.079 147.729 142.025 145.606 143.439C145.606 143.439 145.606 143.439 145.606 143.616C145.252 143.439 144.898 143.439 144.368 143.263C143.837 143.263 143.306 143.086 142.775 142.909C144.544 140.256 147.198 138.665 149.144 136.189V136.189Z" fill="#7D91A9"/>
</svg>
