<svg width="90" height="90" viewBox="0 0 90 90" fill="none" xmlns="http://www.w3.org/2000/svg">
<path d="M35.748 23.6622C41.1174 19.6497 47.7344 17.1533 54.4328 16.1974C54.4023 16.5291 54.359 16.8559 54.2979 17.1827C47.2405 18.1238 41.3109 20.78 36.4354 25.8343C35.8931 25.134 35.8218 24.5001 35.748 23.6622ZM39.2283 59.6716C38.4569 59.7772 37.6676 59.8362 36.858 59.8362C32.4128 59.8362 28.9019 58.5609 26.361 56.0055C20.8108 50.4843 21.9641 40.9138 25.5768 34.6948C26.9058 32.4022 28.6727 30.1417 30.875 27.9303C31.6413 28.5421 32.5579 29.0704 33.4693 29.4439C28.8764 36.0585 27.0611 46.0664 32.3695 52.8137C34.3961 55.433 37.0286 56.9368 40.4606 56.9368V58.3791C40.0507 58.8165 39.6459 59.2465 39.2283 59.6716ZM60.3497 15.7429C67.1245 15.6618 73.7313 17.0648 79.1771 21.1166C86.8634 26.8639 89.1675 36.9307 82.525 44.285C79.9434 47.1672 76.071 49.6808 70.9002 51.8308H72.084C82.5989 51.8308 90 57.5756 90 68.075C90 78.1222 82.4894 89.8845 71.0453 89.8845C65.8388 89.8845 59.7768 84.9285 63.1069 80.4294C64.6091 78.4662 66.4727 79.9921 68.1989 80.7956C65.3754 84.27 66.1468 88.8427 71.3839 88.8427C79.6354 88.8427 83.0266 79.2697 83.0266 72.6968C83.0266 62.3031 78.37 53.3371 66.4371 53.3371V52.2731C81.4888 49.2041 84.2105 31.2474 74.0495 22.1412C70.4801 18.9298 65.8286 17.1999 60.0722 16.937C60.1816 16.5414 60.2707 16.1458 60.3497 15.7429ZM68.6215 24.4239C64.0006 28.2202 62.9262 35.1542 62.9262 40.6853C62.9262 43.7247 63.1502 47.6316 63.6085 52.4476C64.6523 63.8413 65.3627 72.9229 56.1743 82.0168C50.7641 87.334 44.1344 90 36.2801 90C29.765 90 22.0736 86.9482 22.0736 79.6776C22.0736 77.2843 23.5375 74.1048 26.4221 74.1048C27.4048 74.1048 30.9641 75.7707 31.929 76.154C30.2054 77.4293 29.0037 78.5718 28.3036 79.5793C24.3039 85.3142 30.7528 88.8427 36.3997 88.8427C43.0294 88.8427 48.0195 86.9679 51.3497 83.2355C58.1958 75.5496 55.9757 62.3793 55.9757 52.7547C55.9757 41.1054 58.1958 31.272 68.0767 23.7482L68.6215 24.4239Z" fill="#798594"/>
<path d="M65.2914 62.1287C66.9743 60.2957 68.5655 58.1654 70.0753 55.7304C70.4546 55.8065 70.8238 55.9122 71.1777 56.04C69.3395 58.9615 67.3663 61.4825 65.2735 63.5907C65.2837 63.2 65.2914 62.8044 65.2914 62.4088C65.2914 62.3204 65.2914 62.227 65.2914 62.1287Z" fill="#798594"/>
<path d="M41.4789 13.5904L50.3771 10.5903L50.3185 11.7893C49.738 12.2734 49.3154 12.8385 49.0735 13.4553C48.7298 14.2711 48.6942 15.5168 48.6942 16.3842C46.2144 17.0722 43.7907 17.9568 41.4789 19.0576V13.5904ZM41.4789 60.1606C38.0699 63.834 34.6455 66.5589 31.183 68.36C11.3525 78.6481 0 60.4874 0 43.0613C0 21.8808 16.6252 0 40.9315 0C47.4212 0 59.6317 2.75936 59.6317 12.4896C59.6317 15.7797 58.7329 18.6792 56.9304 21.21C55.2933 23.505 52.8925 25.5419 49.7151 27.3479V26.1243C51.4769 24.9301 52.8441 23.4583 53.8218 21.7113C54.9624 19.6276 55.5479 17.1705 55.5479 14.3472C55.5479 5.38113 49.9672 1.15977 40.6897 1.15977C19.1635 1.15977 7.69646 22.7482 7.69646 40.3781C7.69646 50.9512 11.7573 67.7998 25.6506 67.7998C32.0868 67.7998 37.4792 63.1607 41.4789 58.7477C41.4789 46.7642 41.4789 34.7882 41.4789 22.8072C43.6455 21.3378 46.1788 20.2321 48.6942 19.4409C48.6942 33.739 48.6942 48.0346 48.6942 62.3278C48.6942 67.4632 49.3154 70.3257 55.245 68.8244C55.2221 69.2741 55.1915 69.7213 55.1559 70.1709C53.3406 70.7582 51.5049 71.0481 49.6362 71.0481C47.0113 71.0481 45.028 70.1415 43.6455 68.3011C42.2809 66.468 41.5578 63.7529 41.4789 60.1606Z" fill="#798594"/>
<path d="M40.4606 29.5077C37.5353 29.5003 34.7424 29.3726 32.1659 27.6329C29.457 25.8515 28.1585 22.1953 30.5365 19.721C32.3339 17.8634 35.109 18.5956 37.3902 18.8118C36.4915 19.603 35.827 20.4016 35.3865 21.1707C34.3249 23.1265 34.5183 25.6648 36.3285 27.1489C37.8714 28.4364 39.012 28.4192 40.4606 28.3725V29.5077Z" fill="#798594"/>
</svg>
