<svg width="79" height="81" viewBox="0 0 79 81" fill="none" xmlns="http://www.w3.org/2000/svg">
<path d="M35.3576 26.7428C32.8277 26.7362 30.4124 26.6217 28.1842 25.0628C25.8415 23.4665 24.7185 20.1903 26.775 17.9731C28.3295 16.3086 30.7294 16.9647 32.7022 17.1584C31.925 17.8674 31.3503 18.583 30.9694 19.2722C30.0513 21.0248 30.2186 23.2992 31.7841 24.6291C33.1183 25.7828 34.1047 25.7674 35.3576 25.7256V26.7428Z" fill="#BB9A57"/>
<path d="M36.2383 12.4796L43.9335 9.79127L43.8829 10.8657C43.3808 11.2995 43.0153 11.8059 42.8062 12.3586C42.5089 13.0895 42.4781 14.2058 42.4781 14.9831C40.3336 15.5996 38.2375 16.3922 36.2383 17.3786V12.4796ZM36.2383 54.2101C33.2901 57.5018 30.3287 59.9435 27.3342 61.5574C10.1845 70.7763 0.36676 54.5029 0.36676 38.8879C0.36676 19.9085 14.7444 0.301575 35.7649 0.301575C41.3772 0.301575 51.937 2.77418 51.937 11.4932C51.937 14.4414 51.1598 17.0395 49.6009 19.3074C48.1851 21.3639 46.1089 23.1891 43.361 24.8074V23.711C44.8847 22.6409 46.067 21.322 46.9125 19.7565C47.8989 17.8894 48.4053 15.6877 48.4053 13.1578C48.4053 5.12349 43.579 1.34082 35.5557 1.34082C16.9396 1.34082 7.02276 20.6857 7.02276 36.4835C7.02276 45.9578 10.5346 61.0554 22.5498 61.0554C28.1159 61.0554 32.7792 56.8985 36.2383 52.9441C36.2383 42.2059 36.2383 31.4744 36.2383 20.7385C38.112 19.4219 40.3027 18.4311 42.4781 17.7221C42.4781 30.5343 42.4781 43.3443 42.4781 56.1521C42.4781 60.7538 43.0154 63.3189 48.1433 61.9736C48.1235 62.3765 48.0971 62.7772 48.0662 63.1802C46.4964 63.7064 44.9089 63.9662 43.2928 63.9662C41.0227 63.9662 39.3075 63.1537 38.112 61.5046C36.9318 59.8621 36.3065 57.4291 36.2383 54.2101Z" fill="#BB9A57"/>
<path d="M56.8316 55.9737C58.287 54.3312 59.6631 52.4223 60.9687 50.2403C61.2968 50.3086 61.6161 50.4032 61.9221 50.5177C60.3324 53.1356 58.626 55.3947 56.8162 57.2838C56.825 56.9337 56.8316 56.5792 56.8316 56.2247C56.8316 56.1455 56.8316 56.0618 56.8316 55.9737Z" fill="#BB9A57"/>
<path d="M31.282 21.5048C35.9256 17.9092 41.648 15.6722 47.4409 14.8157C47.4145 15.113 47.3771 15.4058 47.3242 15.6987C41.2209 16.5419 36.0929 18.9221 31.8765 23.4511C31.4075 22.8236 31.3459 22.2556 31.282 21.5048ZM34.2919 53.7719C33.6247 53.8666 32.9422 53.9194 32.242 53.9194C28.3977 53.9194 25.3614 52.7767 23.164 50.4869C18.3642 45.5394 19.3616 36.9635 22.4859 31.3908C23.6352 29.3365 25.1633 27.3109 27.0678 25.3293C27.7305 25.8775 28.5232 26.3509 29.3114 26.6856C25.3394 32.6128 23.7695 41.5806 28.3603 47.6267C30.1129 49.9738 32.3895 51.3213 35.3575 51.3213V52.6138C35.003 53.0057 34.653 53.391 34.2919 53.7719ZM52.5579 14.4084C58.4168 14.3358 64.1305 15.593 68.8401 19.2237C75.4873 24.3737 77.4799 33.3944 71.7354 39.9843C69.5028 42.567 66.1539 44.8195 61.6821 46.746H62.7059C71.7993 46.746 78.1999 51.8938 78.1999 61.302C78.1999 70.3051 71.7046 80.8451 61.8076 80.8451C57.3049 80.8451 52.0625 76.4041 54.9424 72.3726C56.2415 70.6134 57.8532 71.9807 59.346 72.7007C56.9042 75.814 57.5713 79.9115 62.1004 79.9115C69.2364 79.9115 72.1692 71.3334 72.1692 65.4436C72.1692 56.13 68.1421 48.0957 57.8223 48.0957V47.1423C70.8393 44.3923 73.193 28.3017 64.4057 20.1419C61.3188 17.2641 57.2961 15.7141 52.3179 15.4785C52.4126 15.124 52.4896 14.7695 52.5579 14.4084ZM59.7115 22.1873C55.7152 25.5891 54.7861 31.8025 54.7861 36.7587C54.7861 39.4823 54.9798 42.9832 55.3762 47.2987C56.2789 57.5083 56.8932 65.6461 48.9469 73.7949C44.2682 78.5596 38.5347 80.9485 31.7422 80.9485C26.1078 80.9485 19.4562 78.2139 19.4562 71.6988C19.4562 69.5543 20.7223 66.7052 23.2169 66.7052C24.0668 66.7052 27.1449 68.198 27.9793 68.5415C26.4887 69.6842 25.4495 70.708 24.844 71.6108C21.385 76.7497 26.9621 79.9115 31.8457 79.9115C37.5791 79.9115 41.8946 78.2315 44.7746 74.887C50.6952 67.9999 48.7752 56.1983 48.7752 47.5739C48.7752 37.1352 50.6952 28.3237 59.2403 21.5818L59.7115 22.1873Z" fill="#AEAFB0"/>
<path d="M56.7258 77.3793C55.9178 75.8205 55.6624 73.7178 56.9504 72.9825C56.5651 72.857 56.226 72.857 56.0125 73.1542C55.6162 73.7068 55.4423 74.2595 55.4423 74.7879C55.4423 75.7897 56.0389 76.6968 56.7258 77.3793Z" fill="#F3F4F4"/>
<path d="M26.2488 29.539C26.6033 28.731 26.9996 27.9472 27.4333 27.2007L27.2396 27.0818C26.6341 27.7556 26.0704 28.4382 25.5486 29.1273C24.8176 30.0961 24.1813 31.0671 23.6397 32.0337V32.0381C22.0588 34.8542 21.0614 38.4871 21.1825 41.9549C21.286 44.815 22.1579 47.5475 24.1086 49.5621L24.1153 49.5665C26.055 51.5855 28.7676 52.5939 32.2421 52.5939C32.4094 52.5939 32.5723 52.5873 32.7287 52.5829C29.4986 52.4883 26.9578 51.482 25.1171 49.5665L25.1105 49.5621C23.1597 47.5475 22.2878 44.815 22.1843 41.9549C22.0632 38.4871 23.0606 34.8542 24.6415 32.0381V32.0337C25.1061 31.2036 25.6367 30.3735 26.2488 29.539Z" fill="url(#paint0_linear_58:95)"/>
<path d="M63.2894 17.5547C63.9984 18.0413 64.6721 18.583 65.3085 19.1731C68.0849 21.7492 69.8265 25.0584 70.5619 28.5219C71.1255 31.208 71.0837 33.9889 70.4364 36.598C70.0247 38.2516 69.3729 39.8368 68.4812 41.2878C72.211 38.2626 72.4972 32.9518 71.5637 28.5219C70.4892 23.4357 68.021 19.4813 63.2894 17.5547Z" fill="#F3F4F4"/>
<path d="M64.7029 48.1594C66.5723 49.0247 68.1201 50.2555 69.3729 51.7682C72.2485 55.2448 73.4947 60.1636 73.4947 65.4436C73.4947 68.6098 72.691 72.518 70.912 75.6335C73.8646 72.769 74.4965 69.5169 74.4965 65.4436C74.4965 60.1636 73.2503 55.2448 70.3748 51.7682C68.893 49.9847 67.0611 48.384 64.7029 48.1594Z" fill="#F3F4F4"/>
<path d="M54.4096 28.7772C53.4232 30.3207 52.6526 31.939 52.0515 33.6343C50.5609 37.8177 50.1008 42.4877 50.1008 47.5738C50.1008 49.2912 50.169 50.9822 50.2373 52.7238C50.5125 59.7365 50.8207 67.6144 47.3992 73.4668C52.6724 68.4379 51.4989 59.3754 51.2391 52.7238C51.1708 50.9822 51.1026 49.2912 51.1026 47.5738C51.1026 42.4877 51.5627 37.8177 53.0533 33.6343C53.7116 31.7871 53.9142 30.6179 54.4096 28.7772Z" fill="#F3F4F4"/>
<path d="M20.7795 71.6988C20.7795 73.7597 21.5788 75.3714 22.825 76.5824C22.1777 75.4132 21.7307 73.414 21.7814 71.6988C21.8078 70.7653 22.0786 69.6798 22.6643 68.9026C22.9241 68.5525 23.2544 68.2707 23.6397 68.1364C23.446 68.0681 23.3006 68.0307 23.217 68.0307C22.5696 68.0307 22.0478 68.3852 21.6625 68.9026C21.0768 69.6798 20.7795 70.7653 20.7795 71.6988Z" fill="#F3F4F4"/>
<path d="M17.8687 62.4689C18.2607 62.4689 18.657 62.4535 19.0643 62.4182C17.2588 62.35 15.22 62.361 12.0825 60.1218C10.0128 58.6356 8.28439 56.5065 6.9281 53.9854C4.60302 49.6567 3.38103 44.2051 3.38103 38.8107C3.38103 29.3519 7.44552 20.2101 12.6109 12.3013C6.05179 19.7411 2.13483 28.9445 2.13483 38.8878C2.13483 44.2822 3.35461 49.7404 5.68189 54.0691C7.03819 56.5901 8.76438 58.7126 10.8363 60.201C12.8443 61.6344 15.198 62.4689 17.8687 62.4689Z" fill="url(#paint1_linear_58:95)"/>
<path d="M41.5666 12.0414L37.6166 13.4176V15.2847C37.9491 15.1393 38.2838 14.9984 38.6184 14.8619V13.4176C39.4067 13.1423 40.8048 12.4796 41.5666 12.0414Z" fill="#FFFABD"/>
<path d="M37.6166 52.9439V53.4327L37.5946 53.4592L37.61 54.1836C37.643 55.6918 37.8038 57.0062 38.09 58.1225C38.3564 59.1662 38.7439 60.0381 39.2393 60.7317C39.7039 61.3746 40.2609 61.848 40.9126 62.1562C41.4675 62.4182 42.1038 62.5746 42.8237 62.6208C42.7489 62.5591 42.6828 62.4909 42.6146 62.4182C42.368 62.35 42.1346 62.2597 41.9144 62.1562C41.2627 61.848 40.7057 61.3746 40.2411 60.7317C39.7457 60.0381 39.3582 59.1662 39.0918 58.1225C38.8056 57.0062 38.6448 55.6918 38.6118 54.1857L38.5964 53.4592L38.6184 53.4327V52.9439V21.432C39.2855 21.0445 40.1993 20.3245 41.2055 19.7454C39.9747 20.21 38.7527 20.7693 37.6166 21.432V52.9439Z" fill="#FFFABD"/>
<path d="M29.9896 24.5872C28.9768 23.6801 28.0058 22.381 27.7813 21.3528C27.3277 19.2457 28.8469 18.0656 30.4278 17.874C30.0138 17.7485 26.3942 18.0986 27.0943 21.3528C27.266 22.152 27.7306 22.9293 28.3823 23.5348C28.8359 23.9575 29.4414 24.3318 29.9896 24.5872Z" fill="#FFFABD"/>
<defs>
<linearGradient id="paint0_linear_58:95" x1="53.7822" y1="73.5197" x2="57.3997" y2="13.5232" gradientUnits="userSpaceOnUse">
<stop stop-color="#EBEBEB"/>
<stop offset="1" stop-color="#FEFEFE"/>
</linearGradient>
<linearGradient id="paint1_linear_58:95" x1="11.7236" y1="59.9545" x2="19.0269" y2="-3.69468" gradientUnits="userSpaceOnUse">
<stop stop-color="#FFFABD"/>
<stop offset="1" stop-color="#FEFEFE"/>
</linearGradient>
</defs>
</svg>
